<mxfile host="Electron" modified="2023-07-09T13:04:24.887Z" agent="Mozilla/5.0 (Macintosh; Intel Mac OS X 10_15_7) AppleWebKit/537.36 (KHTML, like Gecko) draw.io/21.5.1 Chrome/112.0.5615.204 Electron/24.6.0 Safari/537.36" etag="W5FRbjrGZ4h37C6EPIO5" version="21.5.1" type="device">
  <diagram name="Page-1" id="c9db0220-8083-56f3-ca83-edcdcd058819">
    <mxGraphModel dx="2673" dy="2577.5" grid="1" gridSize="10" guides="1" tooltips="1" connect="1" arrows="1" fold="1" page="1" pageScale="1.5" pageWidth="826" pageHeight="1169" background="none" math="0" shadow="0">
      <root>
        <mxCell id="0" style=";html=1;" />
        <mxCell id="1" style=";html=1;" parent="0" />
        <mxCell id="3d76a8aef4d5c911-1" value="" style="html=1;shadow=0;dashed=0;shape=mxgraph.bootstrap.rect;fillColor=#222222;strokeColor=none;whiteSpace=wrap;rounded=0;fontSize=12;fontColor=#000000;align=center;" parent="1" vertex="1">
          <mxGeometry x="40" y="70" width="1150" height="40" as="geometry" />
        </mxCell>
        <mxCell id="3d76a8aef4d5c911-2" value="Admin" style="html=1;shadow=0;dashed=0;fillColor=none;strokeColor=none;shape=mxgraph.bootstrap.rect;fontColor=#999999;fontSize=14;whiteSpace=wrap;" parent="3d76a8aef4d5c911-1" vertex="1">
          <mxGeometry width="115" height="40" as="geometry" />
        </mxCell>
        <mxCell id="3d76a8aef4d5c911-3" value="New Investment" style="html=1;shadow=0;dashed=0;shape=mxgraph.bootstrap.rect;fillColor=#000000;strokeColor=none;fontColor=#ffffff;spacingRight=30;whiteSpace=wrap;align=center;" parent="3d76a8aef4d5c911-1" vertex="1">
          <mxGeometry x="104" width="140" height="40" as="geometry" />
        </mxCell>
        <mxCell id="3d76a8aef4d5c911-7" value="Reports" style="html=1;shadow=0;dashed=0;fillColor=none;strokeColor=none;shape=mxgraph.bootstrap.rect;fontColor=#999999;whiteSpace=wrap;" parent="3d76a8aef4d5c911-1" vertex="1">
          <mxGeometry x="230" width="75" height="40" as="geometry" />
        </mxCell>
        <mxCell id="3d76a8aef4d5c911-8" value="Settings" style="html=1;shadow=0;dashed=0;fillColor=none;strokeColor=none;shape=mxgraph.bootstrap.rect;fontColor=#999999;whiteSpace=wrap;" parent="3d76a8aef4d5c911-1" vertex="1">
          <mxGeometry x="1000" width="70" height="40" as="geometry" />
        </mxCell>
        <mxCell id="3d76a8aef4d5c911-10" value="Log Out" style="html=1;shadow=0;dashed=0;fillColor=none;strokeColor=none;shape=mxgraph.bootstrap.rect;fontColor=#999999;whiteSpace=wrap;" parent="3d76a8aef4d5c911-1" vertex="1">
          <mxGeometry x="1049.375" width="100.625" height="40" as="geometry" />
        </mxCell>
        <mxCell id="TdrcF2T7CQJfTdAJFarz-1" value="&lt;div style=&quot;&quot;&gt;&lt;span style=&quot;font-size: 10px; background-color: initial;&quot;&gt;Django Admin&lt;/span&gt;&lt;/div&gt;&lt;font style=&quot;font-size: 10px;&quot;&gt;&lt;div style=&quot;&quot;&gt;&lt;span style=&quot;background-color: initial;&quot;&gt;Quit (Server)&lt;/span&gt;&lt;br&gt;&lt;/div&gt;&lt;/font&gt;" style="strokeWidth=1;shadow=0;dashed=0;align=center;html=1;shape=mxgraph.mockup.text.stickyNote2;fontColor=#666666;mainText=;fontSize=17;whiteSpace=wrap;fillColor=#ffffcc;strokeColor=#F62E00;" vertex="1" parent="1">
          <mxGeometry x="-60" y="60" width="110" height="40" as="geometry" />
        </mxCell>
        <mxCell id="TdrcF2T7CQJfTdAJFarz-3" value="&lt;span style=&quot;font-size: 10px;&quot;&gt;Summary&lt;br&gt;Tax Report&lt;br&gt;&lt;/span&gt;" style="strokeWidth=1;shadow=0;dashed=0;align=center;html=1;shape=mxgraph.mockup.text.stickyNote2;fontColor=#666666;mainText=;fontSize=17;whiteSpace=wrap;fillColor=#ffffcc;strokeColor=#F62E00;rotation=15;" vertex="1" parent="1">
          <mxGeometry x="232.49" y="29.880000000000003" width="80" height="40" as="geometry" />
        </mxCell>
        <mxCell id="TdrcF2T7CQJfTdAJFarz-22" value="" style="group" vertex="1" connectable="0" parent="1">
          <mxGeometry x="40" y="120" width="1320" height="40" as="geometry" />
        </mxCell>
        <mxCell id="3d76a8aef4d5c911-18" value="&lt;h2&gt;&lt;font color=&quot;#ffffff&quot;&gt;Megaport LTD&amp;nbsp;&amp;nbsp;&lt;/font&gt;&lt;font color=&quot;#ffffff&quot; style=&quot;font-size: 14px;&quot;&gt;(ASX:MP1)&lt;/font&gt;&amp;nbsp;&amp;nbsp;&amp;nbsp; &amp;nbsp; &amp;nbsp;&amp;nbsp;&lt;/h2&gt;" style="html=1;shadow=0;dashed=0;shape=mxgraph.bootstrap.rrect;rSize=5;strokeColor=#dddddd;;align=left;spacingLeft=10;fontSize=16;whiteSpace=wrap;rounded=0;fillColor=#007FFF;" parent="TdrcF2T7CQJfTdAJFarz-22" vertex="1">
          <mxGeometry width="1150" height="40" as="geometry" />
        </mxCell>
        <mxCell id="TdrcF2T7CQJfTdAJFarz-17" value="&lt;h2&gt;&lt;font color=&quot;#ffffff&quot;&gt;&lt;span style=&quot;font-size: 12px;&quot;&gt;&amp;nbsp;Last Price&amp;nbsp; &amp;nbsp; &amp;nbsp; &amp;nbsp; &amp;nbsp; &amp;nbsp; +/-&amp;nbsp; &amp;nbsp; &amp;nbsp; &amp;nbsp; &amp;nbsp; &amp;nbsp; &amp;nbsp; &amp;nbsp;%&amp;nbsp; &amp;nbsp; &amp;nbsp; &amp;nbsp; &amp;nbsp; &amp;nbsp; &amp;nbsp; &amp;nbsp; &amp;nbsp; &amp;nbsp; &amp;nbsp; &amp;nbsp; &amp;nbsp; &amp;nbsp; &amp;nbsp; &amp;nbsp; &amp;nbsp; &amp;nbsp; &amp;nbsp; &amp;nbsp; &amp;nbsp; &amp;nbsp; &amp;nbsp; &amp;nbsp; &amp;nbsp; &amp;nbsp; &amp;nbsp; Daily Gain&amp;nbsp; &amp;nbsp; &amp;nbsp; &amp;nbsp; &amp;nbsp; &amp;nbsp;P&amp;amp;L&amp;nbsp; &amp;nbsp; &amp;nbsp; &amp;nbsp; &amp;nbsp; &amp;nbsp; P&amp;amp;L %&lt;/span&gt;&lt;/font&gt;&lt;/h2&gt;" style="html=1;shadow=0;dashed=0;shape=mxgraph.bootstrap.rrect;rSize=5;strokeColor=#007FFF;;align=left;spacingLeft=10;fontSize=16;whiteSpace=wrap;rounded=0;fillColor=#007FFF;" vertex="1" parent="TdrcF2T7CQJfTdAJFarz-22">
          <mxGeometry x="540" y="2.0952380952380962" width="600" height="8.88888888888889" as="geometry" />
        </mxCell>
        <mxCell id="TdrcF2T7CQJfTdAJFarz-21" value="&lt;h2&gt;&lt;span style=&quot;font-size: 12px;&quot;&gt;&lt;font color=&quot;#ffffff&quot;&gt;&amp;nbsp; &amp;nbsp;&lt;/font&gt;&lt;font color=&quot;#00ff00&quot;&gt;⬆2.85&amp;nbsp;&lt;/font&gt;&lt;font color=&quot;#ffffff&quot;&gt;&amp;nbsp; &amp;nbsp; &amp;nbsp; &amp;nbsp; &amp;nbsp; &amp;nbsp; &amp;nbsp; &amp;nbsp; &amp;nbsp;&amp;nbsp;&lt;/font&gt;&lt;font color=&quot;#00ff00&quot;&gt;+3.881&amp;nbsp; &amp;nbsp; &amp;nbsp; &amp;nbsp; +1.8&lt;/font&gt;&lt;font color=&quot;#ffffff&quot;&gt;&amp;nbsp; &amp;nbsp; &amp;nbsp; &amp;nbsp; &amp;nbsp; &amp;nbsp; &amp;nbsp; &amp;nbsp; &amp;nbsp; &amp;nbsp; &amp;nbsp; &amp;nbsp; &amp;nbsp; &amp;nbsp; &amp;nbsp; &amp;nbsp; &amp;nbsp; &amp;nbsp; &amp;nbsp; &amp;nbsp; &amp;nbsp; &amp;nbsp; &amp;nbsp; &amp;nbsp; &amp;nbsp; &amp;nbsp;&lt;/font&gt;&lt;font color=&quot;#00ff00&quot;&gt;84.52&lt;/font&gt;&lt;font color=&quot;#ffffff&quot;&gt;&amp;nbsp; &amp;nbsp; &amp;nbsp; &amp;nbsp; &amp;nbsp; &amp;nbsp; &amp;nbsp; &amp;nbsp; &amp;nbsp;&amp;nbsp;&lt;/font&gt;&lt;font color=&quot;#ff6666&quot;&gt;-230.65&amp;nbsp; &amp;nbsp; &amp;nbsp; &amp;nbsp; -4.2&lt;/font&gt;&lt;/span&gt;&lt;/h2&gt;" style="html=1;shadow=0;dashed=0;shape=mxgraph.bootstrap.rrect;rSize=5;strokeColor=#007FFF;;align=left;spacingLeft=10;fontSize=16;whiteSpace=wrap;rounded=0;fillColor=#007FFF;" vertex="1" parent="TdrcF2T7CQJfTdAJFarz-22">
          <mxGeometry x="533" y="18" width="560" height="20" as="geometry" />
        </mxCell>
        <mxCell id="TdrcF2T7CQJfTdAJFarz-23" value="&lt;h2&gt;&lt;font color=&quot;#ffffff&quot;&gt;Fortescue Metals Group&amp;nbsp;&amp;nbsp;&lt;/font&gt;&lt;font color=&quot;#ffffff&quot; style=&quot;font-size: 14px;&quot;&gt;(ASX:FMG)&lt;/font&gt;&amp;nbsp;&amp;nbsp;&amp;nbsp; &amp;nbsp; &amp;nbsp;&amp;nbsp;&lt;/h2&gt;" style="html=1;shadow=0;dashed=0;shape=mxgraph.bootstrap.rrect;rSize=5;strokeColor=#dddddd;;align=left;spacingLeft=10;fontSize=16;whiteSpace=wrap;rounded=0;fillColor=#007FFF;" vertex="1" parent="1">
          <mxGeometry x="40" y="161" width="1150" height="40" as="geometry" />
        </mxCell>
        <mxCell id="TdrcF2T7CQJfTdAJFarz-24" value="&lt;h2&gt;&lt;font color=&quot;#ffffff&quot;&gt;&lt;span style=&quot;font-size: 12px;&quot;&gt;&amp;nbsp;Last Price&amp;nbsp; &amp;nbsp; &amp;nbsp; &amp;nbsp; &amp;nbsp; &amp;nbsp; +/-&amp;nbsp; &amp;nbsp; &amp;nbsp; &amp;nbsp; &amp;nbsp; &amp;nbsp; &amp;nbsp; &amp;nbsp;%&amp;nbsp; &amp;nbsp; &amp;nbsp; &amp;nbsp; &amp;nbsp; &amp;nbsp; &amp;nbsp; &amp;nbsp; &amp;nbsp; &amp;nbsp; &amp;nbsp; &amp;nbsp; &amp;nbsp; &amp;nbsp; &amp;nbsp; &amp;nbsp; &amp;nbsp; &amp;nbsp; &amp;nbsp; &amp;nbsp; &amp;nbsp; &amp;nbsp; &amp;nbsp; &amp;nbsp; &amp;nbsp; &amp;nbsp; &amp;nbsp; Daily Gain&amp;nbsp; &amp;nbsp; &amp;nbsp; &amp;nbsp; &amp;nbsp; &amp;nbsp;P&amp;amp;L&amp;nbsp; &amp;nbsp; &amp;nbsp; &amp;nbsp; &amp;nbsp; &amp;nbsp; P&amp;amp;L %&lt;/span&gt;&lt;/font&gt;&lt;/h2&gt;" style="html=1;shadow=0;dashed=0;shape=mxgraph.bootstrap.rrect;rSize=5;strokeColor=#007FFF;;align=left;spacingLeft=10;fontSize=16;whiteSpace=wrap;rounded=0;fillColor=#007FFF;" vertex="1" parent="1">
          <mxGeometry x="580" y="163.0952380952381" width="600" height="8.88888888888889" as="geometry" />
        </mxCell>
        <mxCell id="TdrcF2T7CQJfTdAJFarz-25" value="&lt;h2&gt;&lt;span style=&quot;font-size: 12px;&quot;&gt;&lt;font color=&quot;#ffffff&quot;&gt;&amp;nbsp; &amp;nbsp;&lt;/font&gt;&lt;font color=&quot;#00ff00&quot;&gt;⬆2.85&amp;nbsp;&lt;/font&gt;&lt;font color=&quot;#ffffff&quot;&gt;&amp;nbsp; &amp;nbsp; &amp;nbsp; &amp;nbsp; &amp;nbsp; &amp;nbsp; &amp;nbsp; &amp;nbsp; &amp;nbsp;&amp;nbsp;&lt;/font&gt;&lt;font color=&quot;#00ff00&quot;&gt;+3.881&amp;nbsp; &amp;nbsp; &amp;nbsp; &amp;nbsp; +1.8&lt;/font&gt;&lt;font color=&quot;#ffffff&quot;&gt;&amp;nbsp; &amp;nbsp; &amp;nbsp; &amp;nbsp; &amp;nbsp; &amp;nbsp; &amp;nbsp; &amp;nbsp; &amp;nbsp; &amp;nbsp; &amp;nbsp; &amp;nbsp; &amp;nbsp; &amp;nbsp; &amp;nbsp; &amp;nbsp; &amp;nbsp; &amp;nbsp; &amp;nbsp; &amp;nbsp; &amp;nbsp; &amp;nbsp; &amp;nbsp; &amp;nbsp; &amp;nbsp; &amp;nbsp;&lt;/font&gt;&lt;font color=&quot;#00ff00&quot;&gt;84.52&lt;/font&gt;&lt;font color=&quot;#ffffff&quot;&gt;&amp;nbsp; &amp;nbsp; &amp;nbsp; &amp;nbsp; &amp;nbsp; &amp;nbsp; &amp;nbsp; &amp;nbsp; &amp;nbsp;&amp;nbsp;&lt;/font&gt;&lt;font color=&quot;#ff6666&quot;&gt;-230.65&amp;nbsp; &amp;nbsp; &amp;nbsp; &amp;nbsp; -4.2&lt;/font&gt;&lt;/span&gt;&lt;/h2&gt;" style="html=1;shadow=0;dashed=0;shape=mxgraph.bootstrap.rrect;rSize=5;strokeColor=#007FFF;;align=left;spacingLeft=10;fontSize=16;whiteSpace=wrap;rounded=0;fillColor=#007FFF;" vertex="1" parent="1">
          <mxGeometry x="573" y="179" width="560" height="20" as="geometry" />
        </mxCell>
        <mxCell id="TdrcF2T7CQJfTdAJFarz-26" value="&lt;h2&gt;&lt;font color=&quot;#ffffff&quot;&gt;Aussie Broadband&amp;nbsp;&amp;nbsp;&lt;/font&gt;&lt;font color=&quot;#ffffff&quot; style=&quot;font-size: 14px;&quot;&gt;(ASX:ABB)&lt;/font&gt;&amp;nbsp;&amp;nbsp;&amp;nbsp; &amp;nbsp; &amp;nbsp;&amp;nbsp;&lt;/h2&gt;" style="html=1;shadow=0;dashed=0;shape=mxgraph.bootstrap.rrect;rSize=5;strokeColor=#dddddd;;align=left;spacingLeft=10;fontSize=16;whiteSpace=wrap;rounded=0;fillColor=#007FFF;" vertex="1" parent="1">
          <mxGeometry x="40" y="202" width="1150" height="48" as="geometry" />
        </mxCell>
        <mxCell id="TdrcF2T7CQJfTdAJFarz-27" value="&lt;h2&gt;&lt;font color=&quot;#ffffff&quot;&gt;&lt;span style=&quot;font-size: 12px;&quot;&gt;&amp;nbsp;Last Price&amp;nbsp; &amp;nbsp; &amp;nbsp; &amp;nbsp; &amp;nbsp; &amp;nbsp; +/-&amp;nbsp; &amp;nbsp; &amp;nbsp; &amp;nbsp; &amp;nbsp; &amp;nbsp; &amp;nbsp; &amp;nbsp;%&amp;nbsp; &amp;nbsp; &amp;nbsp; &amp;nbsp; &amp;nbsp; &amp;nbsp; &amp;nbsp; &amp;nbsp; &amp;nbsp; &amp;nbsp; &amp;nbsp; &amp;nbsp; &amp;nbsp; &amp;nbsp; &amp;nbsp; &amp;nbsp; &amp;nbsp; &amp;nbsp; &amp;nbsp; &amp;nbsp; &amp;nbsp; &amp;nbsp; &amp;nbsp; &amp;nbsp; &amp;nbsp; &amp;nbsp; &amp;nbsp; Daily Gain&amp;nbsp; &amp;nbsp; &amp;nbsp; &amp;nbsp; &amp;nbsp; &amp;nbsp;P&amp;amp;L&amp;nbsp; &amp;nbsp; &amp;nbsp; &amp;nbsp; &amp;nbsp; &amp;nbsp; P&amp;amp;L %&lt;/span&gt;&lt;/font&gt;&lt;/h2&gt;" style="html=1;shadow=0;dashed=0;shape=mxgraph.bootstrap.rrect;rSize=5;strokeColor=#007FFF;;align=left;spacingLeft=10;fontSize=16;whiteSpace=wrap;rounded=0;fillColor=#007FFF;" vertex="1" parent="1">
          <mxGeometry x="580" y="204.0952380952381" width="600" height="8.88888888888889" as="geometry" />
        </mxCell>
        <mxCell id="TdrcF2T7CQJfTdAJFarz-28" value="&lt;h2&gt;&lt;span style=&quot;font-size: 12px;&quot;&gt;&lt;font color=&quot;#ffffff&quot;&gt;&amp;nbsp; &amp;nbsp;&lt;/font&gt;&lt;font color=&quot;#00ff00&quot;&gt;⬆2.85&amp;nbsp;&lt;/font&gt;&lt;font color=&quot;#ffffff&quot;&gt;&amp;nbsp; &amp;nbsp; &amp;nbsp; &amp;nbsp; &amp;nbsp; &amp;nbsp; &amp;nbsp; &amp;nbsp; &amp;nbsp;&amp;nbsp;&lt;/font&gt;&lt;font color=&quot;#00ff00&quot;&gt;+3.881&amp;nbsp; &amp;nbsp; &amp;nbsp; &amp;nbsp; +1.8&lt;/font&gt;&lt;font color=&quot;#ffffff&quot;&gt;&amp;nbsp; &amp;nbsp; &amp;nbsp; &amp;nbsp; &amp;nbsp; &amp;nbsp; &amp;nbsp; &amp;nbsp; &amp;nbsp; &amp;nbsp; &amp;nbsp; &amp;nbsp; &amp;nbsp; &amp;nbsp; &amp;nbsp; &amp;nbsp; &amp;nbsp; &amp;nbsp; &amp;nbsp; &amp;nbsp; &amp;nbsp; &amp;nbsp; &amp;nbsp; &amp;nbsp; &amp;nbsp; &amp;nbsp;&lt;/font&gt;&lt;font color=&quot;#00ff00&quot;&gt;84.52&lt;/font&gt;&lt;font color=&quot;#ffffff&quot;&gt;&amp;nbsp; &amp;nbsp; &amp;nbsp; &amp;nbsp; &amp;nbsp; &amp;nbsp; &amp;nbsp; &amp;nbsp; &amp;nbsp;&amp;nbsp;&lt;/font&gt;&lt;font color=&quot;#ff6666&quot;&gt;-230.65&amp;nbsp; &amp;nbsp; &amp;nbsp; &amp;nbsp; -4.2&lt;/font&gt;&lt;/span&gt;&lt;/h2&gt;" style="html=1;shadow=0;dashed=0;shape=mxgraph.bootstrap.rrect;rSize=5;strokeColor=#007FFF;;align=left;spacingLeft=10;fontSize=16;whiteSpace=wrap;rounded=0;fillColor=#007FFF;" vertex="1" parent="1">
          <mxGeometry x="573" y="220" width="560" height="20" as="geometry" />
        </mxCell>
        <mxCell id="TdrcF2T7CQJfTdAJFarz-30" value="" style="rounded=0;whiteSpace=wrap;html=1;strokeColor=#D3E5FF;fillColor=#007FFF;" vertex="1" parent="1">
          <mxGeometry x="40" y="249" width="1150" height="221" as="geometry" />
        </mxCell>
        <mxCell id="TdrcF2T7CQJfTdAJFarz-31" value="" style="shape=image;verticalLabelPosition=bottom;labelBackgroundColor=default;verticalAlign=top;aspect=fixed;imageAspect=0;image=data:image/png,iVBORw0KGgoAAAANSUhEUgAABpgAAAFoCAYAAABDkvjPAAAKqWlDQ1BJQ0MgUHJvZmlsZQAASImVlwdQU+kWgP9700NCSUJvoTdBOgGkhNBCEaSDjZAECCXEQFCxK4srsKKIiIANXRRQcFGKrBVRLCwKKtgXZBFQ1sWCDZV3gSG4++a9N+/MnDnfPff855z/n/vPnAsAWZ4jEqXA8gCkCjPEIT4e9KjoGDpuCGCBEqIUgOVw00XM4OAAgMis/bu87wHQlL1jPpXr39//V1Hg8dO5AEDBCMfx0rmpCJ9G9AVXJM4AAHUQ8eutzBBNcRvCNDHSIML3pzhhhkenOG6a0WA6JiyEhTANADyJwxEnAECiI356JjcByUNyR9hSyBMIERYh7JqamsZD+CTCxkgM4iNN5WfEfZcn4W8546Q5OZwEKc/sZVrwnoJ0UQpn9f95HP9bUlMkszUMESUlin1DEEtBzux+cpq/lIVxC4NmWcCbjp/mRIlv+Cxz01kxs8zjePpL16YsDJjleIE3W5ongx02y/x0r9BZFqeFSGvFi1nMWeaI5+pKksOl/kQ+W5o/KzEscpYzBRELZzk9OdR/LoYl9YslIdL++UIfj7m63tK9p6Z/t18BW7o2IzHMV7p3zlz/fCFzLmd6lLQ3Ht/Tay4mXBovyvCQ1hKlBEvj+Sk+Un96Zqh0bQbyQc6tDZaeYRLHL3iWAQukgRRExYAOApAnTwAy+KsypjbCShOtFgsSEjPoTOSG8elsIddiHt3a0toGgKn7OvM5jN2avoeQqsKcb9M+ABbUT05OnpnzBW4F4LQ+AMTOOZ9RPQBypgBcq+RKxJkzvum7hAFEIAdoQBVoAT1gDMyBNbAHzsAdeAE/EATCQDRYBrggEaQina8Ea8EmkAPywA6wG5SCA+AwOAZOgHrQBM6CS+AquAlug3vgEegDg+AlGAPvwQQEQTiIDFEhVUgbMoDMIGuIAblCXlAAFAJFQ7FQAiSEJNBaaAuUBxVCpdAhqAr6BToDXYKuQ13QA6gfGoHeQJ9hFEyCabAmbAjPhxkwE/aHw+ClcAK8As6Cs+HtcAlcAR+HG+FL8E34HtwHv4THUQAlg1JC6aDMUQwUCxWEikHFo8So9ahcVDGqAlWLakG1o+6g+lCjqE9oLJqKpqPN0c5oX3Q4motegV6PzkeXoo+hG9Ft6DvofvQY+huGjNHAmGGcMGxMFCYBsxKTgynGVGIaMFcw9zCDmPdYLFYJa4R1wPpio7FJ2DXYfOw+bB32IrYLO4Adx+FwqjgznAsuCMfBZeBycHtxx3EXcN24QdxHvAxeG2+N98bH4IX4zfhifDX+PL4bP4SfIMgTDAhOhCACj7CaUEA4Qmgh3CIMEiaICkQjogsxjJhE3EQsIdYSrxAfE9/KyMjoyjjKLJIRyGyUKZE5KXNNpl/mE4lCMiWxSEtIEtJ20lHSRdID0lsymWxIdifHkDPI28lV5Mvkp+SPslRZC1m2LE92g2yZbKNst+wrOYKcgRxTbplcllyx3Cm5W3Kj8gR5Q3mWPEd+vXyZ/Bn5XvlxBaqClUKQQqpCvkK1wnWFYQqOYkjxovAo2ZTDlMuUASqKqkdlUbnULdQj1CvUQRqWZkRj05JoebQTtE7amCJF0VYxQnGVYpniOcU+JZSSoRJbKUWpQKleqUfps7KmMlOZr7xNuVa5W/mDirqKuwpfJVelTuWeymdVuqqXarLqTtUm1SdqaDVTtUVqK9X2q11RG1WnqTurc9Vz1evVH2rAGqYaIRprNA5rdGiMa2pp+miKNPdqXtYc1VLSctdK0irSOq81ok3VdtUWaBdpX9B+QVekM+kp9BJ6G31MR0PHV0eic0inU2dC10g3XHezbp3uEz2iHkMvXq9Ir1VvTF9bP1B/rX6N/kMDggHDINFgj0G7wQdDI8NIw62GTYbDRipGbKMsoxqjx8ZkYzfjFcYVxndNsCYMk2STfSa3TWFTO9NE0zLTW2awmb2ZwGyfWdc8zDzHecJ5FfN6zUnmTPNM8xrzfgsliwCLzRZNFq/m68+Pmb9zfvv8b5Z2limWRywfWVGs/Kw2W7VYvbE2teZal1nftSHbeNtssGm2eW1rZsu33W97345qF2i31a7V7qu9g73YvtZ+xEHfIdah3KGXQWMEM/IZ1xwxjh6OGxzPOn5ysnfKcKp3+svZ3DnZudp5eIHRAv6CIwsGXHRdOC6HXPpc6a6xrgdd+9x03DhuFW7P3PXcee6V7kNME2YS8zjzlYelh9ijweMDy4m1jnXRE+Xp45nr2elF8Qr3KvV66q3rneBd4z3mY+ezxueiL8bX33enby9bk81lV7HH/Bz81vm1+ZP8Q/1L/Z8FmAaIA1oC4UC/wF2BjxcaLBQubAoCQeygXUFPgo2CVwT/ugi7KHhR2aLnIVYha0PaQ6mhy0OrQ9+HeYQVhD0KNw6XhLdGyEUsiaiK+BDpGVkY2Rc1P2pd1M1otWhBdHMMLiYipjJmfLHX4t2LB5fYLclZ0rPUaOmqpdeXqS1LWXZuudxyzvJTsZjYyNjq2C+cIE4FZzyOHVceN8ZlcfdwX/LceUW8Eb4Lv5A/FO8SXxg/nOCSsCthJNEtsThxVMASlApeJ/kmHUj6kByUfDR5MiUypS4VnxqbekZIESYL29K00laldYnMRDmivhVOK3avGBP7iyvTofSl6c0ZNGQw6pAYS36Q9Ge6ZpZlflwZsfLUKoVVwlUdq01Xb1s9lOWd9fMa9Brumta1Oms3re1fx1x3aD20Pm596wa9DdkbBjf6bDy2ibgpedNvmy03F25+tyVyS0u2ZvbG7IEffH6oyZHNEef0bnXeeuBH9I+CHzu32Wzbu+1bLi/3Rp5lXnHel3xu/o2frH4q+Wlye/z2zgL7gv07sDuEO3p2uu08VqhQmFU4sCtwV2MRvSi36N3u5buvF9sWH9hD3CPZ01cSUNK8V3/vjr1fShNL75V5lNWVa5RvK/+wj7eve7/7/toDmgfyDnw+KDh4/5DPocYKw4riw9jDmYefH4k40v4z4+eqSrXKvMqvR4VH+46FHGurcqiqqtaoLqiBayQ1I8eXHL99wvNEc6157aE6pbq8k+Ck5OSLX2J/6an3r289xThVe9rgdHkDtSG3EWpc3TjWlNjU1xzd3HXG70xri3NLw68Wvx49q3O27JziuYLzxPPZ5ycvZF0Yvyi6OHop4dJA6/LWR5ejLt9tW9TWecX/yrWr3lcvtzPbL1xzuXb2utP1MzcYN5pu2t9s7LDraPjN7reGTvvOxlsOt5pvO95u6VrQdb7brfvSHc87V++y7968t/BeV094z/3eJb1993n3hx+kPHj9MPPhxKONjzGPc5/IPyl+qvG04neT3+v67PvO9Xv2dzwLffZogDvw8o/0P74MZj8nPy8e0h6qGrYePjviPXL7xeIXgy9FLydGc/5U+LP8lfGr03+5/9UxFjU2+Fr8evJN/lvVt0ff2b5rHQ8ef/o+9f3Eh9yPqh+PfWJ8av8c+XloYuUX3JeSryZfW775f3s8mTo5KeKIOdOjAApROD4egDdHASBHA0C9jcwPi2fm6WmBZv4Bpgn8J56ZuafFHoBaxEyNRayLAJxE1NAdAFnkOQixYe4AtrGR6uzsOz2nTwkW+WM5aDlF3dqnwD9lZob/ru9/WjCV1Rb80/4L3DMFxOYGhBsAAACKZVhJZk1NACoAAAAIAAQBGgAFAAAAAQAAAD4BGwAFAAAAAQAAAEYBKAADAAAAAQACAACHaQAEAAAAAQAAAE4AAAAAAAAAkAAAAAEAAACQAAAAAQADkoYABwAAABIAAAB4oAIABAAAAAEAAAaYoAMABAAAAAEAAAFoAAAAAEFTQ0lJAAAAU2NyZWVuc2hvdAXj0TIAAAAJcEhZcwAAFiUAABYlAUlSJPAAAAHXaVRYdFhNTDpjb20uYWRvYmUueG1wAAAAAAA8eDp4bXBtZXRhIHhtbG5zOng9ImFkb2JlOm5zOm1ldGEvIiB4OnhtcHRrPSJYTVAgQ29yZSA2LjAuMCI+CiAgIDxyZGY6UkRGIHhtbG5zOnJkZj0iaHR0cDovL3d3dy53My5vcmcvMTk5OS8wMi8yMi1yZGYtc3ludGF4LW5zIyI+CiAgICAgIDxyZGY6RGVzY3JpcHRpb24gcmRmOmFib3V0PSIiCiAgICAgICAgICAgIHhtbG5zOmV4aWY9Imh0dHA6Ly9ucy5hZG9iZS5jb20vZXhpZi8xLjAvIj4KICAgICAgICAgPGV4aWY6UGl4ZWxZRGltZW5zaW9uPjM2MDwvZXhpZjpQaXhlbFlEaW1lbnNpb24+CiAgICAgICAgIDxleGlmOlBpeGVsWERpbWVuc2lvbj4xNjg4PC9leGlmOlBpeGVsWERpbWVuc2lvbj4KICAgICAgICAgPGV4aWY6VXNlckNvbW1lbnQ+U2NyZWVuc2hvdDwvZXhpZjpVc2VyQ29tbWVudD4KICAgICAgPC9yZGY6RGVzY3JpcHRpb24+CiAgIDwvcmRmOlJERj4KPC94OnhtcG1ldGE+Cv0Pny0AAAAcaURPVAAAAAIAAAAAAAAAtAAAACgAAAC0AAAAtAAApFyTAqvCAABAAElEQVR4Aey9B3Rd533tuXF7v8BFryQA9k6RFClKtCpldUuWVW2/2HlO8pxJXp7tmTVlrbcyM2uynmdlZbISx46V5zjPRY7VJVvFKpZEVVKk2DsJAiCIQnTcXgBw/v8PAE1SAEWCIIAL7CN9/E4/3/mdC5Dr7Lv3PwfAGWmcSIAESIAESIAESIAESIAESIAESIAESIAESIAESIAESIAESIAESOCSCOTIXhSYLgkVdyIBEiABEiABEiABEiABEiABEiABEiABEiABEiABEiABEiABElACFJj4OSABEiABEiABEiABEiABEiABEiABEiABEiABEiABEiABEiABErgsAhSYLgsXdyYBEiABEiABEiABEiABEiABEiABEiABEiABEiABEiABEiABEqDAxM8ACZAACZAACZAACZAACZAACZAACZAACZAACZAACZAACZAACZDAZRGgwHRZuLgzCZAACZAACZAACZAACZAACZAACZAACZAACZAACZAACZAACZAABSZ+BkiABEiABEiABEiABEiABEiABEiABEiABEiABEiABEiABEiABC6LAAWmy8LFnUmABEiABEiABEiABEiABEiABEiABEiABEiABEiABEiABEiABCgw8TNAAiRAAiRAAiRAAiRAAiRAAiRAAiRAAiRAAiRAAiRAAiRAAiRwWQQoMF0WLu5MAiRAAiRAAiRAAiRAAiRAAiRAAiRAAiRAAiRAAiRAAiRAAiRAgYmfgWlPwOFwwGq1Tso4c3JyMGfOHNTW1uLYsWM4efLkpFyXFyEBEiABEiABEiABEiABEiABEiABEiABEiABEiABEiCB6UbgzJkzSCaTow6LAtOoWLhyOhHw+Xyw2+2TMiQVmDZu3Iibb74Zb775JrZt2zYp1+VFSIAESIAESIAESIAESIAESIAESIAESIAESIAESIAESGC6ERgYGEAkEoEKTRdOFJguJMLlaUeAAtO0eyQcEAmQAAmQAAmQAAmQAAmQAAmQAAmQAAmQAAmQAAmQwCwgQIFpFjzkmXyLFJhm8tPlvZEACZAACZAACZAACZAACZAACZAACZAACZAACZAACUxXAhSYpuuT4bguiQAFpkvCxJ1IgARIYFYRsFhzYHfkYHDgDMSpbfpZBYA3SwIkQAIkQAIkQAIkQAIkQAIkQAIkQAKTQIAC0yRA5iWuHgEKTFePLc9MAiRAAtlIwOGy4M6vV+LuP5oLqw145Wcn8ZufNKA/89ks4Gy8P46ZBEiABEiABEiABEiABEiABEiABEiABKYLAQpM0+VJcBzjIkCBaVzYeBAJkAAJzBgCFksOXF4rXB6LNCuWrMvD3d+Yi6IKt7nHTGYQ/+fXdqDhUGTG3DNvhARIgARIgARIgARIgARIgARIgARIgASmAwEKTNPhKXAM4yZAgWnc6HggCZAACWQdARWTnCIi+YI2eAM20/tz7cgrdiNU6ERekRNl1V6UzvXA7rSY+xuQmLwXfnwCW15sQffpdNbdMwdMAiRAAiRAAiRAAiRAAiRAAiRAAiRAAtOVAAWm6fpkOK5LIkCB6ZIwcScSIAESyEoCDpcVwXy7NMfZPhByIpDnQCAkLc8Oq8OCvq40+jqldaUQj6SxYFUull1XgJwcoLM1if7UGRz6tBsHPulG3b6I7NOflTw4aBIgARIgARIgARIgARIgARIgARIgARKYTgQoME2np8GxXDYBCkyXjYwHkAAJkMC0JGCz5SAgQlJ+iVOaC6FiFZWc4lSyw+PXZoPdbkE0nEF3WwpdpxPoEvGor1tFpQEjGqlwlIgNyPEOVMzzyH3mINqbQckcL1ZtKoTWZ6rb24edWzpxqi6GgX7WZZqWHwYOigRIgARIgARIgARIgARIgARIgARIICsIUGDKisfEQY5FgALTWGS4ngRIgASmNwG/uI+0TlJRuQtFlW4jKnl8djjdVhGCrNJbkIj2o705gfZT0ppEUGpLIh7NIJUYNC2dHES/1Fj6vMkhcXklc91YvakAi9aG5NgBHNzWhS0vtZn5zzue20mABEiABEiABEiABEiABEiABEiABEiABD5LgALTZ5lwTRYRoMCURQ+LQyUBEpi1BOwSY1cidZHKtFVr74VPaifZxJFkFeeS1WYxQpGKSC0NMbQ2xNFyIoZIbxr94jJSp5G2QamndGacpiONy1MH05yFPtz2cAUKyz1Ixvvxxq9PYZc4mjiRAAmQAAmQAAmQAAmQAAmQAAmQAAmQAAlcHgEKTJfHi3tPMwIUmKbZA+FwSIAEZicBEW/kfzNZrDkoKHWhfJ4PlfO80nwoFodSjig8RhsaFog6WhJoOhY1UXWnjkfFpZQUEenz3UgTBXjDF4uw+ZFKOMQx1XQ0gld/3ojmE/FxC1gTNS6ehwRIgARIgARIgARIgARIgARIgARIgASyhQAFpmx5UhznqAQoMI2KhStJgARI4KoQUBeQCkjqPLLZtc+BV2ojlYojSR1KpVLrqGSOB+pY0ui6oXZGou4y4kyKo01aa6M06ZPxgasyxss5aUBi+m57pAILr8k1h+18twOfvtOBno406zNdDkjuSwIkQAIkQAIkQAIkQAIkQAIkQAIkMCsJUGCalY995tw0BaaZ8yx5JyRAAtOPgFUEJJc4fLQukstjgcdnQ6jYaeLlCsvdKJQaSr6A3dQx0rg5rW2kdZO621OmblJHcxIdUkOptzM9/W5uZEQims1bHoA6mirn+RHty+Dj19twYl9Yxp3B4OA4M/lGzs+eBEiABEiABEiABEiABEiABEiABEiABGYoAQpMM/TBzpbbosA0W54075MESOBqE7CKM8nts8ITsMGrTZxJgZAD+SVuhIqcIiy5TN0krYkUD2cQ0yZiTLgnbQSl7raU6XvF/ZNJT17U3URx8ci9L98YwtL1IXFheU1s3u73O3HiQETutX+iLsPzkAAJkAAJkAAJkAAJkAAJkAAJkAAJkMCMIUCBacY8ytl5IxSYZudz512TAAlcOQF1IwVCdgTy7QiKkBTIdwz1IefQfJ7D1EwKd6fR16UthXB3Cn2yHO4SYalbWxqJ2NRH3V05jaEzaARgQZkLS9blitCUbwS1Y7t7cWBbN+r2RxibN1GgeR4SIAESIAESIAESIAESIAESIAESIIEZQYAC04x4jLP3Jigwzd5nzzsnARK4dAJaEynPuJAcJuJOY+4CeU5xK9mNU8krvcbhRUQ06m5Povv0UFMBSd07Iy0pYtLAwMyPjLM7LVJXyi1CUwhrby0SLmkc39uLnVs6pX5U4tLBc08SIAESIAESIAESIAESIAESIAESIAESmMEEKDDN4Ic7G26NAtNseMq8RxIggcshYLHkIFjoQJE4cQorXCiSWkkqKLk8NqmlpE3rKVkR6c2Y+khaI6ldmopK8chQHaVUYhDJuIhJEoc3myd1eRWUO3HdHSVYvCbP1JXav7ULO9/rQlT4cSIBEiABEiABEiABEiABEiABEiABEiCB2UxgWgpMFosFixcvhooHPT09OHr06Gx+Rrz3ixCgwHQRONxEAiQw8wlIpJvHZ0fpHLc4bjymlczxwO21wWa3wGbLEWeSBf2ZQbSdjKO1XlpjTFw4cVNDqT9zRrZpG8SgOJPOzG49aczPi0fqUc1Z5MXND1SYCL2W+hjee7EFdVKfabaLcGNC4wYSIAESIAESIAESIAESIAESIAESIIEZT2BaCkwOhwPf/e53MXfuXOzduxc/+tGPZvyD4A2OjwAFpvFx41EkQALZScAh0W1FlW5UzvOhYp5Xmk/cSS6IznR2OiMqkTqSTh2Loel4FE3HouhoSeLM4JB6RBHpLKrLnvEGbVh/e7FpXnE37fmoCy/9SwPSqZlTh+qyofAAEiABEiABEiABEiABEiABEiABEiCBWUtgWgtM1dXVRmD64Q9/OGsfEG/84gQoMF2cD7eSAAlkD4EcUYms6jiyqfNI5sV5lJvvRGm1B2XqTqr2oqDUZbYP9A8a59GAOI+i4Yy4kuJoUXeSOGt0Pp0czJ4bz8KRltd4cMtXylG1wA+3CE2vP3nS1GdirGAWPkwOmQRIgARIgARIgARIgARIgARIgARIYNwEKDCNGx0PnA4EKDBNh6fAMZAACYyHgN1hkXpI2qxwSO8LSL2fUjeKKjxSO0l7N5wuK1KJgbMtHs1IraSUqQXUfippaij1daXHc3keMwEElm8MYeOdxcgvcaO7PYmPXm1Dw8EIon39GBx2jE3AZXgKEiABEiABEiABEiABEiABEiABEiABEpiWBGa0wORyuUwdJ6/Xixz5angsFkMkEkEymTzvYdjtdrNff38/4vE4FMrnTXpOjfJLpVLmmM/bn9uvDgEKTFeHK89KAiQwsQTUmeSVOj4eEZG8fiu0pk9uoQv5Em8XKpEmvW7XqLV4pN/UR4qF+xHuThlBqUtEpe62FHpFTOpP0500sU/nys7m9lmx7pZCLF4XQm6BAyf2h7H34y40HIoaYfDKzs6jSYAESIAESIAESIAESIAESIAESIAESGD6EpiRApOKSeXl5Vi7di2Ki4sRDAaNwNTX14fm5mbs2rULLS0t8u3ioZd0oVAI999/Pzo7O/HRRx+Z/mKPzGq14qabbsKcOXPMufR8nKaGAAWmqeHOq5IACYxNQKPuvEE7AiFpeUN9MORAQOLugqY5pHcgI0JRuDs91HqkF/GoT5bVkTTUMkjFP/8LD2OPhFsmi4DFkoPSuW4s3ZCHJevyIYs49Gk3DnzSi6ajUbDu1WQ9CV6HBEiABEiABEiABEiABEiABEiABEhgMglcscDkttrx3UW3XtKYd3Q14vW2Q5+7rzqDvvvd72K8NZgWLVqE2267DYsXL0YikUBra6u83DmDkpISqKuprq4Ov/3tb9HQ0GBEJhWg/ut//a/GifTss8+auk8XG2Rubi6++c1vQq/zxBNPYOfOnRfbnduuIgEKTFcRLk9NAiTwuQRUTHK6beJAciCvyCnNgZD0vqDDiEy+gN30VmsOejtT6GkXJ5K0HolTU3eSRqmpU0lbIjaAwYEzn3tN7jB9CTg9VqnL5MWya0NYtDYPvR1pHNnVjV3vdckzZ5Th9H1yHBkJkAAJkAAJkAAJkAAJkAAJkAAJkMB4CFyxwBS0u/Hebd9FvjNw0eunBtP48dEt+NvDb110P914JQJTIBDAgw8+iHXr1hlh6bnnnkN3d7e5ZllZmRGeVLjaunUrdFs0GoXb7caf/dmfoaqqCi+//DLefvvti45x3rx5eOyxx4w76q//+q/R1dV10f258eoRoMB09djyzCRAAp8loHWT8oqdKCpzoUBaYbnbuJFcHhtcIi6owOASwalPxKMOrZHUkpA6SXEjKiWi/UjGB01sWlKcSQP9FJM+Szj716jo6AvaULnAh/W3F6Oixoe2pjh2vtuBfR91SwwiIw6z/ynzDkiABEiABEiABEiABEiABEiABEiABJTAhAhMH2z+HvIcfnSlwqNStVts8IsQ9Y8iLl1tgWnNmjVGYFKX0Y9+9CMcOHDAuJd0YBptt379enzpS18yTqYf/OAHxs1ks9lw991344477sDvf/97vPDCC9B6TGNN1113nYnU08i9v//7vzcuqbH25fqrS4AC09Xly7OTwGwmoEKBRtqVznGjRNtcDwpK3SIk2WCzW2C355g+LVF3rY0xtDXEpZfWEBM3Ur/USjqD/swZE4U3oM4k6kmz6uNkEdeaR+ptLV4Twq0PlUPrcJ2qi+Kd51tw8kh0VrHgzZIACZAACZAACZAACZAACZAACZAACcxMAhMmMAUdXrQnekel5LDYkef0XXWByWKxGKFIxaJjx47hJz/5CVQEOncqKioy7qMlS5bgxRdfxOuvv242r1ixAt/+9rfx6aef4plnnkFPTw9UePrOd75jel13/Phxs+99992HL37xi/jwww+hkXrpNGNvzmU8mfMUmCaTNq9FAjObgMdnMyJSRa0XlfO8KKv1wS8RdxChSWv7qeA00D+I9uYETh2PoUnaqeNRdLUlh2rsSBSr1tphvZ2Z/Tm53LvTz43TbcXmRyuwfnMxUskB7NzSgfdeakWkJ3O5p+P+JEACJEACJEACJEACJEACJEACJEACJDBtCMwogUmj7tSddPPNN+O9994zTqR4PH4ebKfTia9+9avGyaT7/PrXvzY2roqKCvzVX/0VOjs78fTTT6O+vh4LFy7EX/zFX0CFqzfeeAMvvfQSPB4PHn74YaiL6Wc/+xm2bdtmjj/vIlyYNAIUmCYNNS9EAllNQF/yq4NEayFZtJdWWOZGeY0ISdVelFZ7kFfoNEKSuo0GRUjqlwi7SE8aLfVxaTHTn5aos3SSEWdZ/WGYosFbLDmomOfBzQ9WYM5Cv4lR3PJ8M47s7kNS6m9RmJyiB8PLkgAJkAAJkAAJkAAJkAAJkAAJkAAJjJvAjBKYNBbvgQcewIYNG/C73/0Or732GpLJ5Hlw9Fvojz/+ODZt2oT9+/fjn//5n41AVFBQgK9//eumrtJTTz2FXbt2QZ1KmzdvRiQSMXWW/uEf/gHqgFKBqaamBn/3d3+HxsbG887PhcklQIFpcnnzaiSQDQRUTLI7LXC4LHC6rNLnwJ/rQFGFB8WVbhRJK670iDEpx7hJ0uIo0RaL9IsbKYHTTUm0n0qgvSmBSC8dJtnwzLNpjG5xyi3fGMLqTQUoqfKg/kAY77/cYj53cfkMciIBEiABEiABEiABEiABEiABEiABEiCBbCEwowSmvLw8fPnLX8a1116LV1991YhMqVTqvGehAtNjjz2GL3zhCzh48KCp06T1lrxer4nXu/HGG03sncbfqXtJ1+/Zswfr1q3DE088gWAwiIceegh6Xo3g6+joOO/8XJhcAhSYJpc3r0YC042Aikk2hwUab6f1brR5/XaEil0IlbiQP9zcXqtxicSj/dCX+PFIBn1daRNv19WWMn1fV0ZqJtGdNN2e8XjGU1ToQs0cn3GkHT0eRlfP+f8WGM85J/qYonIXVt+Uj/kr8lBY7sb2t05j39YutJ1MIhUfmOjL8XwkQAIkQAIkQAIkQAIkQAIkQAIkQAIkMOEEZpTApPF1GpF30003YcuWLabG0oUReQ6Hw0TkqctJRaQnn3zSOJisVquJvdP4vLfffts4mL7xjW9g+/bt2Lt3r6nP9PLLL5t9VWDauXOnieBTdxOnqSNAgWnq2PPKJDAVBGwSbecN2hHIs8OvLWRHMORAMN+J3AKn9A4EZDmZGECkO21q3IRFXAhL1F1fZxq90lRY0p5Rd1PxBK/+NUuK3Pjjry3A3ZsrTd2st7Y042/+v73yxZDpKdpUL/Vj5fUh1CwJmljGfR934vCOXqn1lZSaX1LUixMJkAAJkAAJkAAJkAAJkAAJkAAJkAAJTFMCM0pgUpHo7rvvxl133YWjR48ah1E4HD4PvUbcPfroo1i6dCl++9vfGqfT4ODQN9aXLFmCP/qjP8LJkyfR0tKC66+/Hj/84Q9x+vRpfO9730Nra6up0XTHHXfgmWeeMXWeMhnGJ50HeJIXKDBNMnBejgQmkYC6k7wBO/KKHNKcUiPJISKSA75cJ3wiMmnT7bpfT0cKPe3akjKfFEEpg1hfBtG+ftMSWuNmkC/rJ/HxXfGlbDYLXBJ16HbZ4JKoQ5dT2rm9zLsvWOeU5eoqP754awWKCt1mDPFYP+59/E3sPdB9xWO6WidwicOuVoSmZdflo2qBHz2nkzjwSTd2f9CFRHR6CmNXiwXPSwIkQAIkQAIkQAIkQAIkQAIkQAIkkD0EJkxgKnblITU4uthikbd/g1K9+h8Pv4W/lfZ5k7qMvvvd76K6utq4h1TkudRJ4/E0Js/tduOf/umfcOzYsfMOXbNmDR588EH4/X4jHh05ckQKaw+9dKyoqMAjjzyCQCAg3yLuN9E6f/u3f2vmv/KVrxhRqq+vD2VlZfi3f/s37Nu37+yx512EC5NGgALTpKHmhUjgqhNweawm0q6gzImCMjcKS0VIktpJLq8Nbo+IDPIS3i5xeOpA6mhJmNbZnDDikgpISW0SLabzgwMUk676A7vEC9jtEmHolghD0yTGUJ7lyLLbLcu6XtZ5Zd49vJ8KSSow2aw5Q73Oi3vNZtV+eH6U7aI1wue1o6rCB5ecTyeNPfwv//tWPPVivVmern9YLDnivrOjZpkfG24vlnmn1GWKYesb7Ti0vXe6DpvjIgESIAESIAESIAESIAESIAESIAESmMUEJkRgevvWv4I9Z+hFzlgsB3EGT9Z/ctkCU319PX7zm9+MdVqzvr293TiLdCE3N9fUWFq1ahWamprw05/+1LiRLBaLEaweeOAB1NbWYvfu3fj3f/93nOtw0vpK9913n4nK03NphN5TTz0FdTitXLkSf/qnf2rm1d2k0XoNDQ26G6cpJECBaQrh89IkcCUERAkoKnOhuMqDkjnSqtzILXTCKaKAikh2hwgM9hwjGLWdjKOtcajpC3cVkDLpM9IGkUkNMkbsSp7DJR6rLjGHXepbidjnEzFIRRwzb3qZF3FQ1w01EYtUMNJtsl7//rWKeGIRsUhFFDNvwdD88Lo/rB/aB/JvhkRyADFxH8Vi4kSLay9uNJmPyfy5fVT3ics+si0lxzjks/OfvrEIX/lStREme7pT+HhHO/7lZ4fx4bb2S7zjqdtNP/cqNK28vgDX3VlixNL6g3145/lWtJ9KTN3AeGUSIAESIAESIAESIAESIAESIAESIAESuIDAFQtM+m1hp9V+wWlHXxw4Iy8DBz8/6uVcB5O6i3SQF5teffVVvPLKK2d3WbZsGR5++GFoHJ46kbq6ukyvy3a7HSpIqUCk7qaReDw9WF+C3X777bj//vuNe+mJJ54wQpTuU1pair/8y79Efn4+duzYgeeff96c9+xFOTMlBCgwTQl2XpQELpuAP9eO8lovKuZ5UV7jQ0Wtx4hIOSI4qHihvQpGHeJIOnU8iuYTcTTXRdEtsXcabSd/fYgTVmQHxtxdNvsLD1B3kN8n9aukBbX3O4aW/VLbanh9QOZ1u294WQUjq7iH9FlBn9fQH/rn0DpdowvDy2ZWVui6SFRqYUVUAOpHOCLz0Ywsy7yu1/nhFpZ9RuYTyX7zzPXfAMaLps9eT256WWcWZFH7C9bpbuqaWjAvYD4vtdVB/NWfLcXpjgR+8dQxvLWlVf5NMBSNq/tO10kFufwSJ257tBJL1uQhJnw+fq0N28TRpE49TiRAAiRAAiRAAiRAAiRAAiRAAiRAAiQw1QSuWGC6GjegItCf//mfo6qq6pJO/8Ybb+D1118/b1+NsdNYu7lz5xrhSDeq2FRXV4eXX37ZuJvOO2B4QSP07r33XnkplmMi9FSM0klj89T9tGLFCvz+97/HW2+9hXQ6PXwUu6kiQIFpqsjzuiTwBwIqDkkJPONI0ZfidkcOSqtFSJJWVqOCkheBPLsI+pAvDJwxjgyNsOvtSomQFENLnYhJ9TF0iDsjLY6k2TapCKN/5wz1586fv04wD+8ztN4ltYmMUKSuIp/DiEM+3/A6EYZULDKOIhWJ1F0k2zweuzynIWFGxRkj4EivMbZDy39YN7Jt6IseZxBPiHNIxCAVikaEIO2jUV0WsUidRiPzZj9xIImzaKon5bphbRH+858ukc9pDl589SRee6sJvX3ps0LVVI/x866/YHUQX3ysEvmlLiPCvvlUExoORo0oa0S2zzsBt5MACZAACZAACZAACZAACZAACZAACZDAVSAwLQWmibxPr9drnEzqTjp9+rS8/IpO5Ol5rikmQIFpih8ALz/rCGiUmd1pgUObK8dE2gXzHSiu9Ji4O+0LpX6SCklpiStLpyTOLjlo3BedrQmcPpmUujLSS4uFp158mMgHaGLeRMDQCDgVMs4uD69T8W1k29le1jmdEj2nkXIi/pjoOYmVG4qXG4qaM/WJZNvQPkP7ae0iFRYGxdGlrAeG+6FliQ38zLqh/foHBpEUd5CJnpOoOSMamfi5DOLiitH4ORWFTBydmZd9ZDkhz1CFpmyd9FksFEfTt762AHMq/Xh/axteeKURp5rjRlzLhvvSGmUb7ijC6i8UwiNi4ZFdvfjkzdPys5REKkFHUzY8Q46RBEiABEiABEiABEiABEiABEiABGYagRkvMM20B8b7OZ8ABabzeXCJBC6bgLg7XKbuUQ7i0YHz6hmp88MhcWoenxVu08QdI1F3+SUu0wpK3QgVO0VwskpdpH4kxL2iLS6ttyOFrrYkOlu1pRDpTouLNDsECpuIPjabRWpASS0omwhqOi9N5836s+tk2ewztN0ptaM8bhvc0kyv7IaX3eI2UlHI9LJe99Fll7BTZ5dGtmnLnO3PDC1nRtYPLw9vV5YqFGmUXELEBe3jph8wopFZJ44jrWOUkD4+3KfEIaZupdk6VVf58NiDtVi/phC79nXh18+fwOFjfVmDQ0VKrVe25uZCzFsRNBGFuz/oxKEdPUZoUmcgJxIgARIgARIgARIgARIgARIgARIgARKYLAIUmCaLNK9zVQhQYLoqWHnSWULAKkJJ5TyPeVntE+Ho2J4+nNgfgcNtMUKSX2LtcvOdCBY4kSctt9AJb8BuxKRIj0Si9UrNHOnD0no7UyIqaS9Neq2nNNWTQ8UfEX2cdisc0psm64bmZd3I/Nneamr3qKNIhR/t3U4bnC4LXA5ZFmFI15ttuqzzsk57FaHUPZSW+05nxLlleplPy7yIRGZZ5lNmfni72TY0nxSnV0paUoSgpO4nQpDOp2TerJPlVKofSV0v++l5Z7FOdEkfLafFhgGIQKcK3jlTRZkHX7pzDm6/pRwnGiJ48pnj2Lm32zy/c3ab1rPqZqpe6sOya/Ox8Jpcic1LYt/WTnE19aFLBF1OJEACJEACJEACJEACJEACJEACJEACJDAZBCgwTQZlXuOqEaDAdNXQ8sSzgEBeoQOP/Jd5uO6OYuPEUbfRoe09ps6PL9chYpLN1EtSwahHHEk9HUnjTFJBKdor9Xj6RGCSPhlTsePqOCeMi0rEnCFhR4QeI+jYZFnmRdgZEYPMdhWCVBCSbbreMSIsne1FcDpnfkhwGhKaVIgygpQIRRlxB50Vc1TwGRZ2zq4zYpDct9n2B1EoYwSjITEpI0LSiJiUyajwdI7QNCIySa/7XSV0s+ATPPYtbgrV4OaCRRJJaMXb7Yewpfv4eTsXhJzYfHM5vnJftdRiSuHZl+olNq9d6ktlV2yjxlNWL/Fh5fUF0gdwfG8fDnzShaO7wxJB2X/ePXOBBEiABEiABEiABEiABEiABEiABEiABCaaAAWmiSbK800qAQpMk4qbF5shBApKXZizyItF1+Th+ntLEQw5zt5Z3b6weUnd0ZKQaLuEcSYlJDovISKSCkk6r06dy520Bo5ThCKPxsSZCDmNixuJipNIuZF56bXm0NltIhSdG0NnG4mps6pYJNF0I3F2w+uH4uwkuk62p8RJNBIVp7WGRmLiRtYNxcpptJzGzP0hak4dRyayTuLG+lUE0t5E02k/Mq9xdiPz0kttIwpFl/upmLj97TlW5Nrdpi33l+DxyvVYFqyETdYfjbbhT3b9As3J86Pw9HO2dmU+vvX1RRJ9mIM3tzTj5d81oaMrOXEDm6QzFZa5sGB1EKs2FRiX4YkDffj0nU40HY2az+wkDYOXIQESIAESIAESIAESIAESIAESIAESmGUEKDDNsgc+026XAtNMe6K8n6tFoEBeQM9fGZQWQH6xGy6vzTiUKiu8mB/yw5FjwbH2MP6f//lTNNXFkZEotrS0ARFRzp1yxFKkdYW8Xit8Hju88pLeND2fzHuG1/l0/TnrtN6Q1i+yitCkTWvJmF6XZV4FKG0XblMHk8btxeL9pkXjGcSl3pP2I+tishwbXlYHilkvvYo+gwPAgAhi2rQ+jeklMe0P87Lu7HrZR/ajUHTuE5/6efkIIGiXul8OL/Lt0hweFDh8CGlv90jvg9Nqg10+wzZppa4AytyFsFnsZvCZwX78p92/xJau811MulE/e2Ulbnznz5ejdq4fH31yGr96pg5NLXFzbDb9oS68gjInVn+hAMs25OOMfJb3b+3GlhdbTV20bLoXjpUESIAESIAESIAESIAESIAESIAESCA7CFBgyo7nxFGOQYAC0xhguHrWE8gRsSa/xIml1+ZhyboQ1OFgUYFHnBrqRDq4vRsdJxJ45IvVePhL1dCX+N0SFfZ3/7hPYsIG4BdxyO+zm+YzvQ0+r924i6wWi4nRU/FHZ7Qfmh2eH1k/tFm26wqNnRtENCqxelGp3xTtR0REoIgsD62TXoQi3RaVbWGzn4hFso86iozMJcqPij9DTeb1rMPLOvOHZYpEgiZrJhWHikQkMs050vtR7PSjyOlFrghL+gmST535LJ3fD63Xmx2Qz0BfJiFzZ1DrK4NfxKih9YP4WeMW/KD+A0T6R69PVFjgwre/uQg3bCjB9l0d+O8/P4KGk1FzfDb9oT9q+jNeXuvF5kcrUFHrMwLtaz8/iZ1bOrPpVjhWEiABEiABEiABEiABEiABEiABEiCBLCBAgSkLHhKHODYBCkxjs+GW2UNAXyobR5C8WFan0pK1eVgsrbjSY9w56tYJd6dxfF+fCEs9aDoSNfWGbtlUiv/21+tQVOg+C6u+IYLuntRnRBwj4KiYI3umkioAiYtIRaDYkFg0IhIZwUiFo0gGYSMgDe2n2zMSM8dp5hGwyAdw6D/5HJ6dF0eafC51vTqNilVAMoKR9n8QkdSJ5BKBSSf9bKmUqPW89D8x4Jhel3V9YiCDjnQUHako2rWlY7IclnnpZbknEzcik57rrqJF+JM5GxCwuuGQ80cH0ni/qw4/a9qOlmTYnFf3O3cK5TnwHx6Zjztuq8CRo3344b8eRF19xLjezt0vW+ZVaFq1KR+3PVxhYvOajkfw5q9P4dTx2FBsngLnRAIkQAIkQAIkQAIkQAIkQAIkQAIkQAJXQIAC0xXA46FTT4AC09Q/A45gagiooOTySA0jr0WcSi7ULpf4uxW5RmDSaLukuoF60qg/FMaxPWF0t6TgkppFJcUebLy2GDdcW4Tyci+KxLmRHxJ3k5wvHE7jf/zqKA4e6TUuoqEIOnEWxQeGIuhMFF2/qUc0NXfNq042AatEzg1Fz0nEoTjXNIJO6x1pr9tcVrvE1XlMfF2BRtiZ+DrtJcJOaiIFpemkAlH/oNS2OiO1q84MnJ3vH55PS4xdXyaJrkwMXek4ukd6mdflnv64EZjGc/81nnz8L7U3odITwt6+Zjx5aieOxNrNWC48XzBgxwN3zcFdt1ehL5zCz586jh27OpFIStZilk65BQ5svLsES9flwSq/A/Z91GncTJ3yO0HjJzmRAAmQAAmQAAmQAAmQAAmQAAmQAAmQwHgJUGAaLzkeNy0IUGCaFo+Bg5gkAjZ5OewL2hAI2REqdmLOogDmLvIjr8hpYu/CIiiFu1NoFIdS42FxejQlkRe0i6jkxqL5uVi3uhCLF+QiLvWM2jriaGmVl/aJfqxano9A0IF33m/Fvz15VF6sZybpjniZqSSgbiOnxXZecw0vOyxWqcslnzW7E3lS5yhXhCJtedocQ8JRwOaWY60iHQEqEKWk4FVqMDPUD+jyH1q8P42+/gR6RUTqTUuv82Y5YYSlcH/yqqIodwXxx5XrsS6vEvXxLiMy7Q43y7g/Kxy5nFbcfEMJvnzvXImIdOCFVxrw5rstxtl3VQd5lU9evcSPtbcUYO7iIFIiGn/y+zYc3yvic1va1B67ypfn6UmABEiABEiABEiABEiABEiABEiABGYgAQpMM/ChzqZbosA0m5727LxXu8OC3EIHCqSeUmGFG6VzvCitFodIsQt9IiZ1tSbR0ZJA28k4WuvjaGtMIC/XgepKH2qq/Vi6MITFC3OhL81PtcZQ3xjBkWN9OHC4B8cl/kunYMABr8eGzu4k0nQ0zJgPmssiNbNs0iwOeMRp5LEO9W6Zd+s62ea3ORGwuUzvt7tk3inzuqz7OiXgTsWjAeMeSgymEe/PIC5xc3GJqxvpNbouKgJRRESkiPYDKVPrSOsdaYvKcmYUIWeyQReKw+qRstW4pXC+idj7dfMufNhdbxxVo41l/ZoCPPJADZYszMOrbzaJ0NSIpubYaLtmzTp1PS5el4vlG0Ioq/ahtTFmHE3H9kQQ6aWwnDUPkgMlARIgARIgARIgARIgARIgARIggWlCgALTNHkQHMb4CFBgGh83HjW9CWhNpZI5HhGT3KYvLHNL9J24RvId6O1MobVBxCR5MdzRnBBxKYXe9hTsNgtq5/rlZXgu5tcEUTPHb+LwOruSOHCkR0SlXlNPpk5qLGn0HafsJmAX55BPBKMhMUhEIRGDfCIOmSbrvSomiUjk1WaEpZF1Q0KTW8QnPYdG10VVBBJxSPvIwJBQZASjzND6ISHpfFEpZkQmWSeiU1LcStkyaYzf3UVLcE/JEug9PNuyB79rPzxqXJ7e06L5QSMybVhXhA+3ncYzL57AkePhbLndUcdpkeJYecUOLLomF8s25JvfKw2HwyI0dYmjKcLYvFGpcSUJkAAJkAAJkAAJkAAJkAAJkAAJkMBoBCgwjUaF67KGAAWmrHlUHOjnELCJU6mkyo05C32oWuCTl75OBEMOuP029HWmJfYugpNHw+hqk4ixTq2vlMGZwTMoL/Vizcp8LFuch0qpqVRa4oFVXiDv3Ct1VvbKC+MTYbSeTqCnNyW1kzTMjNN0J6CuIXUWaf0iE00nUXRBcRUFxGFkepn3ynaXdSjeTusgabSdibcbXueQZT2POo36MhJDJ3F0WuNoaF4+QxpVJ+sjIiKdG2WnEXfJ4Wi7kX7wzMz63CjDWwvm4/HKNdB7e7ntAF5s24ewCGyjTaUSMalxeXfcUmHE2ud+U489+3uQzmR3/SK704LCMicWrw1h/eYiJCQ2r+FgGNvebEeLuCE5kQAJkAAJkAAJkAAJkAAJkAAJkAAJkMDnEaDA9HmEuH1aE6DANK0fDwf3OQQ0/q6s2oN5K4ZqKQULnHB7baZ1SPRd3d5enDgQNhF4iajElEkbGDgDu9Ri2rShGBvFVTGvJoBg0Gki7k6IO+mDrW3Y9mk7esNSjyksNXDSn60x8znD4uarTECFoTybByGHB/na7N6h2kZS60jrG6mo5Bx2GNktFthzrLDlSC+OI+1tsmwVm5vGzvVk4kNN6hp1yXy3tK60rJPWLU1FIt2v/8ygtAETB6fzui4j/YC02ThpTOD63Cr8Vc0XYBOu73bWSV2mHWhLDcVGXsgkV2qU3fqFUjx8fw16+9J4/rcNeO/j00gks8e9deE9jSxrbF5ugR0b7yrFyhsK0NmawP6tXdjxdqcRskf2Y08CJEACJEACJEACJEACJEACJEACJEACFxKgwHQhES5nFQEKTFn1uDjYYQJzF/mkDkoI81eKOBRywmrPgVUi7jpOJXB4Zy8O7ehGZ0sS/ZkzGBDX0aA4lXTS+LvNN5bhxhtK4RBxymG3IhxJ46NPTuONd5rR2BRDKjWQ9c6KYUxZ2anwkyuOo0KnD4UOH4qkLzBCkld6qZ1l98FndxqhyCL7WsRnZHqZ1/9G1unN94pY1CkiUWc6Ji2KjpQ0mde+XfqwuJAG9T9x4WjU3ZnhfmR5pjmPJvoDYRWxrtabj/9r4Z1G4NvZ14R/adyKhnj3qJdSYVfrMn3r64sQ8Nnx9Esn8NKrJ0VkmhkirtNtRfUSH75wXxnKarwmivO9l1pwdHef+T00KhSuJAESIAESIAESIAESIAESIAESIAESmNUEKDDN6sef/TdPgSn7n+FMvgPRDGCx5sAmL6Yr53mxdH1Iap6EjENJRaNBcSN1n05i39Zu7N/Wgy4RlUbEJK2TYpVjC0SA2nRdCe64tQIVZV6RESAvewdx8EgvXn3rlHErxWLZ76KYLp8DjZXLGRZ7zLwJmhtZB1PTqFCEokKHH8UiHhkBSRxIhU4VkHzIl14dR/qcRPIR0We4v2A50Z8xopGKRx0iHqlgNCQcRdCe1OXorHUXTfZnQetU/bdFd2FJoBSHIqfxo/oPcTjabp7faGNZvSKEP/ujRaitDuD5lxvwr788inR65jjBvAEb1t5SgHW3FRsBfP/HXXjtySZE+zLmd9ZoTLiOBEiABEiABEiABEiABEiABEiABEhgdhKgwDQ7n/uMuWsKTDPmUc6YG1Exyem2wOOzomSOFwtW52Le8gA8fjvS4nRISp2T3q4kDn/ah2N7+tDelDh77yoqeT02+H02LF6QixuvL8WqZfmw2XIQjWVwuj2BrTs6sOWjVpxqYY2Us+AucUbdQepa0Zi5s714iEaWHRKVpvF0I46jfBGSQrKcJw4kjbMLSYSd1+oUtUlEPhM5JxFzgxo9N9RG1qUlfk5rHWlEnYmrM7F1MRNh1yVCUlcmhpgITCpAcZoeBAJSl+kvqm/A9fk1aIh14acnt2FPuMU829FGqD+f//FrC7B8SR7e+6gNT/yPw+juTZ8ViEc7JtvWlc7xYNOXSlC9OABfrh2/f7oZu97vQKyv37grs+1+OF4SIAESIAESIAESIAESIAESIAESIIGJJzArBCb9NrrL5ZIXP1J3IiPfwJV+oieL1Mlwu90moiidTqO/n46CiWY82vkoMI1Ghesmm4DDZYFfXsD682worvRi7mI/qhb64QvYEe3NICIvnrWuSeORKBoORdDRnDw7RHU5qahUVOAyDqXVKwtw7TUFKMx3o6s7iTYRlY4c78OOXR3Yf6gXSYnA4/RZAhovp/WKHBYbHOIg0t4pgpG6iZwyr/WLfOJUydM6RyIaqZAUtLsQlDi7XO1lOSC91jfS+kRpqV2UGu5VMErJ8kgf608bAam3PzHcJyXOLnG29fUn6T767COa9mu0Ftaj5atxW9EC4yb72cnt2CGxefrsR5sqy7345uPz5ee10DgKf/nMcflZDZuYytH2z8Z1VhG3F6wKSn2mEhSUukxNpm1vnkbd/jDC3XQ0ZeMz5ZhJgARIgARIgARIgARIgARIgARIYCIJTDuBSYWa3NxcIwglk0l0d49eCyEYDMLj8RgWra2tF2Wiws8dd9whBe/D2LdvH9rb2y+6/3g2+v1+3HTTTUZg2rVrF5qbm8dzGh5zmQQoMF0mMO4+YQS0Xkmo2IH8EqeISh6UVftQXuuF129DV1vStI6WBFrq42g+EUNvR/q8OiY2qblUWebBnEofFswLGifEPIncisf70XgqhvrGMA4c7sX+wz1o7/iDIDVhN5BlJ1KXkdtqH2qWod6lvYhHbqsDHtmmApE6Ufw2p6lz5Be3kZmXZe1dso86jhKDGSQG+qVPIzmQQVxaYripeBTpTyEqIlFE5wdS0uu89kPzKjjQe5RlH6BLHK6KTHcXL8a9JUvNZ+Tplt14t+uYfB7So54hEHDgy3dX4Yu3VKC3L40XX23Ex9vbpTZaZtT9s3WlCuhLrs3F8uvykVfkQtPRiMR6dqNuXxiJGEXvbH2uHDcJkAAJkAAJkAAJkAAJkAAJkAAJXCmBaScwOZ1O3H777aipqUFdXR1efvnlUe/xlltuwZIlS0ytjB/84Aej7jOyMi8vD9///vfR0tKCp59+GocOHRrZNGF9UVERvvOd70CBPvvss9i9e/eEnZsnGpsABaax2XDLxBNwS3RdUYULJVVuIyoVlrtl2Q2Hy4qu1iRaG6WOTnMcbScT0qfQ25nGGam1dO5UXOjGwvkBLBRRaX5NEDVz/XA5rSIqRXHoaC+O1fXh+IkIGpui6JcaTbNh0ug6t4hFPhGEtB6ONp9lqNdIOq8ISH4Vjuw6b4dHtnuGRaWh3mGEJ62ZpGJRVEQhFYrO9kYwkmXTp8w+sYE04iIw6f5xmTfL0qvQNKiFkzjNWgJB+azdUjAfD5WvNI62N9oP46W2A6ZW1mhQrFYLNt9Yii/fOxcetw2vvtmE3719Ct09o4tSo50jG9ZphGdxlQsLrxkSmuwOC47vERFc6sfVizNTkiI5kQAJkAAJkAAJkAAJkAAJkAAJkAAJzDIC005gUlfSN77xDaxcuRLqBPrxj3886iP56le/io0bN0IdT9/+9rdH3WdkpQpMf/M3f2MEJhV/Dh8+PLJpwnoKTBOG8rJORIHpsnBx53EQ8Igjqazag6oFPmhNktxCiVPLdxhR6fTJmMTeRcSlJHV1TqfQJy6liETiXahP+Lw2EZWCuGZ5PubXBlFW6kFByIVOqcW0a1+XRN91o+FkFC1tCVNr6cLjxzHsaXWIxtPpS3tt6jAKiFAUsGo/suyS+DpxGInI5LJqtJ1N5od65/CyRt0lxTkUFjdROCNNeq1zFBbRSJc1ri6SUfEobSLN1GWk+5/tRTjSZa2XxIkEPo+AuuXWBCvwzaprUewM4KOuE3iyeScaEz2jHqp10tauKsCjX64xUZdvvtuM537TgM7u1Kj7Z/NKjQStqPVgyboQlq7PR1zcWkd29WDnu50SBTrz7jebnxXHTgIkQAIkQAIkQAIkQAIkQAIkQAJXm8CsEJhsNhsqKyuhtZE0ci+RSEw4VwpME470kk5IgemSMHGnyySg38yvXR7APGkae+cLimNGhCanOJVOSjTUcYmFajjch3CXuF8iImQkBjF4gdvIKt/2ryjz4vr1RVi9Ih+lJVL7J+g0I9ktotJHn5zGQXEsaaxWJJqRum3Z6ZqxivtInUda20jrGuU5pJm6RkPzuTaPqW+kwpEKTSoUaa2kod4qDhGZl/X9El2nQlF3Ji61jOLoEfGoZ6RPJ9CVjhuXUb/UQ8qc0SY19WS+38zLshyv4tEZhtdd5qedu49FQD+bVe5cfK/2JtR6C7E33IJ/bdyGI7HRY3ZVZFooAvLXHp6HpYvy5Ge8DT9/qk6E4/hYl8ja9Vo7Th2dcxb6sPbWIsxd5Ee3RINuf7sdez/sRjLO2LysfbgcOAmQAAmQAAmQAAmQAAmQAAmQAAlcBoFZITBdBo9x70qBadzoruhACkxXhI8Hn0PALS6jmmV+LF6bK+JSEHa7CCEiNEFepDbXRXHgkx4c/rQH8ai4YNJn0J8RMWMUTUhrK92yqQQ331BmXEtOib9z2C3GofTuh614S5wNMamzlEyJINI/9W6aOe4Qvl6xBkVOH55v2YuPehuQFuFmZFI3Ub7DiwKH5w+91KnRdUPNI+4jFywCSqPuRppV1ozMKyetadSVjqHTtPjZ+a7M0LpeEZH0uioRaUSdSHYYMP3wssxTPBp5Kuwnk4DGM/6v827G+ry5OBhpw08at2JfZPTajxojVyI1ir4uItP160tQ19CHf/7pYRytC0/mkCftWhZrjrg5LVh6bQi3PFhmRCd1dL711CkR4aOTNg5eiARIgARIgARIgARIgARIgARIgARIYGoIzFiBSR1Lfr/f1GgaQZtMJtHW1oZYLDayatReHU9VVVVYuHAhCgsLUV9fjyNHjiAcDqO4uBherxdNTU2IRCJnj79QYDpw4IBxTS1evNic48SJE9i/fz96enrkpfQob6XPnokzl0OAAtPl0OK+IwT02/c58iLY47OidlkAy64LoWZp0DiUVNwYEDdRc10Mez7slOgndSqNXUtFXyjL/1i8MBdfvKUCm28uh7qXBqX2UjiSxtbt7Xj1rVPygrlv2rmUihw+/B8Lvoh7SlcbNAMDSfzq1CdmvtCpopJPnEle4zga+a01IvLor7GR+aTEz3WmomgX8agjHTEiUrssd6SlmT5mah2N8GdPAtlGQOuA/fncjfhi8WKciHXhn058YESmkZ+BC+/H6bCKyFSLL901B6n0IP7uh/uwdUfHjP773+604LaHynHdnSXIiAC/54NOvPdSK/q0Ft3IL5ALQXGZBEiABEiABEiABEiABEiABEiABEggqwlcscCkL1fzS4Zinz6PRCLWj2hf/0V3m6gaTN/61rewfPlyIzDlyNtkh8NhajA9/fTTOHTo0JhjCAQC2Lx5MzZt2iQOBruJ1dPj4/E4PvjgA6hgNH/+fDzxxBOmRtTIiUYEpkGJaXrrrbdQU1ODZcuWmc0qWOm5VJTS6x8/fnxGv2QaYTIZPQWmyaCc/ddQQckmbiSnfNPe6db4u1wsXJ1rYp10fSoxYFpLfRSHd/ZJ4fo+U0tprDu3iyPJ67GhqMCF9WsKceP1pSYOT1+qqjvp+Ik+vPfxaXyys8NE4I11nqlcr7F0q/3l+MGKh5Dvyjs7lJb4aRGIoiZubkAi59RVpLWONKJO4+vUcdQt810pqTsl67tlOSLuJHUbcSKBmUwgKBGQj5Wtxj0lS414+rOTn2Bb70kkRGAda3rg7io8/pV58Lht+O8/P4w33mlGXH7fzNTJKjGBFfO82HhXCWqWBMzv0a2vt+HQjl7z778zIrxzIgESIAESIAESIAESIAESIAESIAESmDkErlhg8kpdkv/3mZtMRMrFsGh9kreeacCzPz52sd1wrsCkQtBTTz016v733HMPVq9ebQSkb3/725/ZZ926dSgpKTHbXS4Xbr311s8VmHS/2267DbfffjtSqZRxHKnzSNersKSuKJ1UhPrxj388qsCkQlZvb68RpBoapMB3ZydUfNKx5uXlYfv27UZkikYZHfOZhzaOFRSYxgFtlhyiDiWXxyL1k+wIhOxSlN6HannhqY4ldSiFe9LywjOD9lNx1O2LoP5gBLFwZsxv2lslCiov14HCfBfm1wawYU2RqbOiEVHd3Sk0NUex/1APtu3sRH3jH9yN0w23VerKqHNpdW457i5aglsKF8JmccnvSouISBH8pOE97O5rNnWQ+qQmUp+IR6nBi38xYLrdI8dDAleLQEDi8r5Usgz3icikNb+ebd6DtzqPmp+Tsa656bpifPOxBQiFnHjxlQa8/HoTuuT3z0x2M+u/DRetDWLlDQUor/Gh8UgE2986jVPH4xcV78diyPUkQAIkQAIkQAIkQAIkQAIkQAIkQALTk8CECEx/9+LNKCj1SFHn0V9C6gtYMRDguSeOXJbApCJMS0vLqOQ0qk6FHn1BM5rAdO5BKux8//vf/1yBSV1Hjz32mBGmXn/9deNE0lg9nVQkevjhh40rSpfHEphCoRAaGxvx/PPP4+jRoxKTNWhErhtuuMGcW+/nmWeeMZF7eh5OV0aAAtOV8ZuJR/uCNoSKncZZWVLlRbkIS6VzPeZWu9tT6GlLoFOK0Z88EkVzvbzs7BnbfaDOJ7/PjqoKL+ZW+Y2gtGJJCEWFLpxuT0hdpYiprXLwSA8OHukTZ8LovwOnC+cihx/L/MW4uXA+VgfL0ZzoQ2syjIDdA5fVhW09dXiuZQ+iA6npMmSOgwSmHQGPxOXdkj8PD5StQL787Pyu/TBebNuHttTYwvKKJXn4D4/Ok98lfny4rQ2vvNGEhiZxCorYPZOngnIXVmwMYcHKXJTN9eLTLR3Yv7UTLScSSMRmrpNrJj9T3hsJkAAJkAAJkAAJkAAJkAAJkAAJnEtgwgSmgHwzt7M1ce65z847JIIqmO+8bIEpnU6jr6/v7HnOndH6Sk6nc8IEJo2x27hxIx555BETZffkk0+afuSaVqsV6op6/PHHzXXHEpiCwSBUnPrd735nXFAjx2stp+9973tmvM899xx27Ngxson9FRCgwHQF8GbQoepQKq50o6TKjaIKjzQ3Csrc5g5PN8XR1hhHR3MCp5uGWix8cSFI3Uq1c/1YMC+IBeJWml8bxJwKn4m/O9EQwZHjPThWFxZxKYL2zoT8XE9vmLkS7bXUV4xN+bVYk1uB2EAan/ScxPtdJ3A01gF7jlUEJpuJwsuIK4MTCZDAxQloxOQ1gQp8rWINFvqL8G7ncfy6eRdOxLtGPVCjdudUevHlu+dgxEZZ3AAAQABJREFU3TWFEqMZxouvNmLvwR5Tr2jUg2bISv19Wl7rxapNIcxdHJT6d8Ch7d04+EkP2k4m0J+Z5r9AZ8hz4G2QAAmQAAmQAAmQAAmQAAmQAAmQwNUgMK0FJq1V9PLLL4963xp5t2TJkjEj8s496FIcTBrNd+edd5p4vPfffx+/+c1vEA6Hzz0Namtr8Y1vfMO4mcYSmFT0evbZZ/HRRx+dd2xubq5xWqnQpO4mrefE6coJUGC6cobZeAZ9QRnIc6ByvtfU+ygq9yCv0IncIidEC8aJAxE0HY+KsBRFb0caPe0Z+bZ8/+cKQSXFbqxcmgd1KVVV+lEuzkytt6ROpT0HunHoSC+aW+JoaYsjLfWWpvvkstiw1F+CG8VtoZF4VvGSfiI1Y97trMPxWCedStP9AXJ8057AIm8RvjnnWnEEVhjR9lenPsXB6OlRx62OyAL5Ms4dt1ZIq0Q0lsFTL57Alg/bMCAxwjN9cvusqJT6TKs2FaBqgd9ElB7Y1o1d78nvos+pzznT2fD+SIAESIAESIAESIAESIAESIAESCBbCUxrgWnXrl0mim40uF/96leN48hisUxIRJ7G7T344IPYsGEDXnvtNeNAGonHG7m+1mBSB5NG6Y0lMOm+GoG3c+fOkcNMr86mP/mTPzF1nF544QW8++67523nwvgIUGAaH7dsPSq3wIGapQFUL/WjWJxK3oBdms3ETDUeDuP4vj601Ecl9m5A6in1I5X4/Agmr9eGZYvycN3aQuNYKpAaS8GAAx2dSezc04ntuzrQeCqG7p6UcTBNd7fSyLOt9eTj9qJF2BiaC4302hduwSttB3Es3in1lUZ3m44cy54ESODSCZQ6A/hG1TrcVDAfB8Kt+KWITLvDzRgc45eF32fDzTeU4tEHa0188NMiMr3wyslLv2AW72mR2ni+XBvmLvLhujtLkSdfCuiS2NKtv2vHvo+7s/jOOHQSIAESIAESIAESIAESIAESIAESmJ0EKDANP3d1OWk83urVq4176Y033pDYmvNrs5SVlZk6SgsWLBhTYNKaSyow7d69+7xPlApM3/rWt1BVVQUKTOehuaIFCkxXhC8rDlZn0oJVQSxel2ei7xwuKxxOCzLpQdTtD0vMUrcUjo8iFulHJjV4SXFL+pKzssyLW75QivVrClFc5IFbztsvLoJ94lR6+/0WfCriUkrOl0wNZJW7IE/i8O4qWoIvlSyF1+5EU7x36IV3XzPig+kxX3pnxYeBgySBaUogT2oxPVa+Gg+UrkC9iLi/aNqBreIWzAyOLnJrdPC6VQX4z3+2FB6PDb95rRE//3UdUunR95+mtz3uYWlsnl+iTZdvCOH6e0phs1lw4mAf3n2hReozxcd9Xh5IAiRAAiRAAiRAAiRAAiRAAiRAAiQwuQQoMA3z1ppO999/P2644QaouKQupnj8/Jccc+bMgTqntB/LwaRANSKPAtPkfJApME0O58m8isZI+XPlxeN1+VhxfQhl1V6p2SErhxOkDoigtPv9ThzfGxGR6fJexupLzM03luGO2yqwbHHecGTeGYnAi+Kd91vx8ptNUvctPZm3O2HX0powN4Zq8PXKtah05yE+kMFPT27Fa+2HkBi4eM2pCRsET0QCs5iAV5yCD4rA9LWKtejpT+DfTm7D21KbKT049s9fdZUP//f/tgbFEs+55YNW/OQXR3Fa6rrNpqlI6ufdeH8ZVm7MN67TD19pxbY32s2XBmYTB94rCZAACZAACZAACZAACZAACZAACWQjAQpMw0/N7XZj8+bNuPvuu7F161a8+OKL6OnpOe+ZqnNJazDl5+dTYDqPzNQtUGCaOvYTcWV1EtkdOXC4LMgtcKJ2hTiV1uaivNonTqRBpJIDSMYH0HBInUo9IiqFL9lNZBGlyilOJ4/bivm1Qdx4fSlu3FgiNZpykJTzdvemsGtvF977qA2HjvZlpXNA79FtsWOJvxj3l6zAskAJ+s8M4u2Oo3i2dS9OpyIT8Zh4DhIggUskoHXP7ihchEcqVks0pR1PNe/CbySaMjqQGvMMGsn5vf9pGVYtC+HQsV784qk6HD7WJ9Gf07/O25g3NY4N+rv/hntKUDrHi56OFN5+7pSpp6d/B8ivNU4kQAIkQAIkQAIkQAIkQAIkQAIkQALTkMCECUy5hS6Eu0Z/gWK1y0teqXPy3BNH8OyPj10Ug8fjMSLOypUrMZk1mKxWK9auXWscSiosPfnkkzh27Jg4HIZsE3a7HZs2bcJDDz0ErftEB9NFH+OkbaTANGmoJ+xC6lDSukneoA0hqb9RtTCA2mUBFFd6TOxdtDeDSG/a1FI6tjuMU3UxIzJd6gBcEnWXn+dEqTgCVi3Px4a1RSgr9QyJSlJH6ejxPuyRGDyNwOsc43fWpV5rKvcL2Fyo9oSwuXAB1uZWGoPXrt5TeFUcS/sjbVM5NF6bBGY1AWuORdyEtXhURKZqdwgvtO3D0y270ZmOjclFI/P++PEFuO2mMlP/7clnjmPH7i4T0TnmQTNwg8tjxbW3FWLlDQXwBe2oPxjG9t+3o6UhjkT08hyrMxAPb4kESIAESIAESIAESIAESIAESIAEph2BCRGY/va5mxDId1705rQ2yis/Pz5tBSYdfGlpKR5++GEsXrwYH3zwAd555x20t7eL48GK2tpa3HPPPSYeT5cpMF30cU/aRgpMk4b6ii40Um8jr8hhRKWKWj8qF/hQWOY2kUjdp5PoaU/idFMcDYdjaJWXianEpb9M1Oi7ogIXykvdxq20alk+Fs4LAiJmnW5PoK4hLMJSGPsOiQvqRPiK7mWqD1ZXxFx5aX1jwTxcK8KS1+bEnr4WvNdVh0/7mkw03lSPkdcnARKA/HxW4fGKa7A8UIY324/g35t3ojFxvjP6XE5eqcV09+YK3HvnHKQl/vOZl+rx/senEYuPHbF37vEzZd5qy5EvHLhFZMqX+nu5sIjr9NCnPTiwtUv+bkgad+tMuVfeBwmQAAmQAAmQAAmQAAmQAAmQAAlkO4ErFpjsEkG1+aGqS+LQcERirrZ3X3TfiXAwLVu2DBUVFWevo/F3d9xxB8JhecG8b58RjUY21tXVGaeSLqtLac2aNSYmLy8vD0eOHEFzc7NZX1VVBYfDYVpJSQkFphGAU9xTYJriB3CRy9vsORJ750BxlRtFFW4UV3hQPMeDQhGB4tF+cSjF0NEcR3tzQl4aJnD6ZMI4mC5yyvM2iXaEQMCOBbUBIyqpoDS/JogicVM2NcdwvD6Mw0d7UVcfMfPRWHa/pNUaS+qGuD5UjWvzqjBX3Evbe07ig6567Ayfuqg74jxwXCABEpg0Ahpf+Xj5GvMzu62nEb8+tQuHY+0YGCPzTUWm69cX4cF7qyXe04ZXpS7cG+80o0vcl7NtcvtsqJjnwfINISy8Jg+9Ept3ZFcP9m/tQfup5GzDwfslARIgARIgARIgARIgARIgARIggWlJ4IoFpom+q4kQmL72ta9h48aNZ4eWI5lcGmun0+Dg4NnYO11+7bXX8Nvf/lZnzaTXX7FiBTZs2AAVlXS5u7sbx48fx4EDB8x5582bh3/5l3/Bnj17Rg5DUVERvvOd70h9mAE8++yz2L1799ltOhMMBvGtb33LnPOFF17Au+++e952LoyPAAWm8XG7mkcVV7rkpaAX5TVe5Je4ESp2IRBySLxRPxqPRCTyLorutgQ6W1PywjAtdZYur7iGRuwtXpCLFUvzsGh+LirLvRKH50EkmjFC0p79XTgmLqWW1jg6JAJvcHAo5vJq3vPVPneZK4hNIixtCM3FQm8hDkfbsaXzuDiWTqE5GZZ4vOy/x6vNkOcngakiUOnKxaPlq3Fb0QLsD7fh2ZY92Ck/u6nB0UVvp9OK5Ytz8dCXqjG3yo9PdnYYN9PJU2NH7E3VvU3GdYP5dolS9WHl9YWYJ3X6tCbfgU+6cPjTPkR6MpMxBF6DBEiABEiABEiABEiABEiABEiABEhgDALTTmDS+Dl1CKlwEI1GjYNotLHrPoFAACoeqdPo3Em3qaBzKVNXVxc6OzvP21WdSrm5ufD7/VD3k45D3U86pscffxz5+fn46U9/ikOHDp09To+prJQ6KFKzSWP19JhzJ5vNhrKyMjidTnR0dKC3t/fczZwfJwEKTOMEN4GHWSxDcUY1y/yoXR5AINcBnzSPfPtcnUp1+/pwXFpXWxLh7gyi4X70py9PVNLhlpV4sHZVAa69pkBqKol4FXKKcJyDEw0R7JR6SrtFWGrvSJpv+qfHcf4JRDJhp/JLnSUVlm7Kn4cF/kJ0pKJ4o+MItnY3oi0VQebMpccITtigeCISIIHLJlDo8OK+kmW4X1qr/Oy+0LIXW7rrxoy01FhRrSP31YdqccP6EpxojOAnPz9iYj4v++Iz4IAc+V2fJ47YRWuCWL6xAHlSv6/xcBg73u5A/aHouP5OmQFYeAskQAIkQAIkQAIkQAIkQAIkQAIkMOUEpp3ANOVELhiAClgqGum0YMECfPOb30QikcAvfvEL1NfXX7A3FyebAAWmySY+dD2tkaGxd4vX5mL+yqBE4TnhcFlNy6QGsPejLhza0SOxd1JLSRxK6cSguPsu32WjcVErl4Vw8/WlWLQwFwG/3cRGaV2l7bs68cG206iX+kqJ5ACSct3hH9WpgTKBV82R4lHrJQbvnuIlWCH1W+KDGbzdcQy/az+M0/JyeiznwwQOgaciARKYYAJ+qZd2W8ECfLViDcRLjWdaduPl0weRGBjbheP32fH4V2rwlfuqoQ6mn/ziCD7e3j7BI8ue02n0aqjYiTU3F2LZ+hBsDgv2f9yFd19oRaR3bI7Zc4ccKQmQAAmQAAmQAAmQAAmQAAmQAAlkFwEKTBc8L3Ua6dTff350jcvlwq233or77rsPH3/8MV566SX09IxdrPuC03LxKhGgwHSVwI5x2rJqr3x7PIQl60IIyTfIRQcRFyEQC2fkJV83dr/fieYTcSPKjlfs0fNVlHlxlxS733RdCYoL3capmEz2i0upG+++34q3P2iFpsINjvciY9zfdFhd48nHI2WrcWvRfKQHB/CJ1G355alPURfrYhTedHhAHAMJXAEBq/yC+0KoFn869zoUOf34ZdMO/OLUDvSPUZNJL6W/E++7swp/+SdLxaWZwE9/dRRvv9c6I+I/x4vS/D0x34vND1diziI/BvrP4PVfNWHbG6fHe0oeRwIkQAIkQAIkQAIkQAIkQAIkQAIkMA4CFJgugHb99ddj06ZNJv7u2LFjJj5P4/JWrVpl1vf19Y1aY+mC03BxkghQYLo6oC0Sz2R3aLOguEqcSmvysOTakKmllEmJI0ncQlH5tvixPX3Yt7UbbY1x84JvPKOxybW05ohHi9tfW4SbN5Vh6aI8pDMDSMl1Gpui2PZpJ979oAVt4lyagZoSHBaJBnX4sbloIb4sEVpncixojHXjl8078LEITJxIgARmFoGNeXPxx3PWY64nhN+27cdPGrchNpAe8yY1DvSGDUX48z9eLPvk4MVXGvD6O83o7UvPyN+JY4K4YINTnLNLN+ThpgfK4M9zoLUhJm6mFonPiyAt7tmZ+PfFBQi4SAIkQAIkQAIkQAIkQAIkQAIkQAJTSoAC0wX416xZg3vvvdfUYNK6ShaLxbiZUqmUEZs++OADbN++Hclk8oIjuTgVBCgwTRx1m90Cj98Kb8CGglIXaqWY+rzlQQTznUhILaVYXwaJWD+OST2lI5/2iqiUGPc36PVlqV9qNOVJrabauQFsWFuEDeuKYJX1kWgGHZ1J7DnQjV17u3DwSC/iifMdhRN311N7JnuOFcXiYliXW4m7ihejwOFDZzqGl9sO4I3OIxeNzprakfPqJEACV0rgmmAFvll1LRb7S7Cl85gRmU6nI2M6M7Uu0/Ilefj6w/NQWe7Fex+14TevnURTy5Br9ErHk83H58vfWatvyMcKaXaHVSJau7Hnwy4RnOJGaMrme+PYSYAESIAESIAESIAESIAESIAESGA6E6DAdMHTCQQCqKmpQVlZGYLBIDQaLxqNGnHpxIkTOHnypIn/uuAwLk4RAQpMVwbe4bSIgORAbpEdhWVuVM7zo3K+DwFZp4JSV1sSfV0pNNfFcOJgxIhKV3JFj9uGshK5jrwcXbYkhFVSX6mkyINoLIPTEv108HAPjp4I48Ahqd/UMXNFXK2xVOoKYKmvBLcXLTAuhg4Rlj7qqsfv5UVzayp8JZh5LAmQQJYQWOAtxB9XrccaEZl39Dbh35t34ki0fcw6axoNVzPXj0cfqMHaVQUmNvSpF07g8LG+LLnjqzvMmqV+LL8uJLUBc5HJDGLXex04trsP7U3JcdUBvLqj5dlJgARIgARIgARIgARIgARIgARIIPsJUGDK/mc4q++AAtPlP351KhVVuIabWyLwvCid4zHxQiomtdbH0SHfiO9oSYiwFEf36TT65UXdeCebzYJyEZVqq/1YMC8XC+cFUTPHb6KLTrXEcOR4r7Q+nGiI4ERjdNyuqPGOb7KPK3R4sVQcC7cUzoe+XI70p7G1uwEf9dTjeLwLGam7xIkESGD2ECgTsfnr5WuxMb8aDfFuvNC6D5/0nkT8IpF5FWUefOnOObj9lnLUye/OXz17HDt2dc0eaBe5U5fXikXXBLFUYl3La33mixL7Pu7E0V1h9HaOHUN4kVNyEwmQAAmQAAmQAAmQAAmQAAmQAAmQwBgEKDCNAYars4MABaZLe04OqVNRMseNilqP9B7kF7uRX+KCN2hHT3tK6lWE0XwiKi/fUmg/lRLXUnrcNZVGRpQbcIhLKdfUU5pXHUBlhQ/5eU40noyKS6kPeyUCT+srnWqNIxLJjBw2Y3u/zYnl/lJxLC3EAl8hbFJn6d3OOnworqU6EZaiA6kZe++8MRIggYsTCNk9uKd4Ce4pWYKoiM4vte7H77uOyfzYvxcKJL709pvL8cj9NejoSuKZF0/g/a3tMzZS9OIEz9+qcYK5hQ4sWCVC0/oQQsUu+fJEDLs/EKFpdxipBIX884lxiQRIgARIgARIgARIgARIgARIgATGR4AC0/i48ahpQoAC09gPwum2orzGg5plfpRX+0wtJX+eHS6PDT0dKXnJ1ouTR8LoFoEp3J1BpDeDM+M3Kp0dyAqpEbLumgIsW5yHwgIRskRU0kL06lLauacTh472okeWe3pFxBo4c/a4mTpjt8i36X1FuKNwEVYEy1AiNZd+33kUr7UdQkOiF339iZl667wvEiCByyDgtTrwhVANHq9YA6fVhpfa9huh6WLis1d+n69fU4j/+LWF0Pi8198+hVfeaEJn99jC1GUMKet3NTGwIjQt3xDC2luKMCh/55w6HsVHr7Xh5NFY1t8fb4AESIAESIAESIAESIAESIAESIAEppoABaapfgK8/hURoMB0Pj4xxaB2eRCLr8nFnIU+41By/v/svQd0XMeVtbvRCWjknDMIEsxJzFkkRVJUoiRayZZkOcppPLbnH79ne/n3/zzLa2b85KDnMJZtWZJFUZmUSAXmnHNGzhmNHBuB71SBoAiRBJpEYDd6X6/2vX1vVd2qr5rd0N11zhbfI7N4LVWXt+L84WpJE1QjEUrtaGnu1Obn6oHbQLeYSG/MmRmOhXMjERFmha+PWXuVZWTXSdqmKhw5WYkqSb/X3NwB+wDS7Q20n8NdP0LEpAcjx2OePDRWx2frS/BWySnxWKmU1HitGDj54R4R70cCJDCUBCwiSM8JTMSz8TMQ6umLTWXn8XLhEdj7SJ2p0pDGi6/d958fj3iJFN1/uExS5uWgWKJDuXUT8LQaJKLJE/PujcKUBSE6cvec/B4e3VbBtHn8kJAACZAACZAACZAACZAACZAACZDAAAhQYBoAPFa98wQoMAEmiwEpE/wxcW4IJswKklXsHjAYPKDEpqrSVpyWlECn9trQUGOX1dtA12WRNQZB2fAW4WrqpBCsXBqDSeOCYZX36r5lZc04eKwCew6W6WilLomK6uoahBve+Y+bwz1Q6e/uj5yAByLGI847EPnNNXhbhKW9thztq+JeNBzGxoIkQAJCQL69MS0gFt9Omod47yBsq8jAf2fvRGc/IaahwZ747tfHYe7MCBw5UYm//OMS8osYpXPth8osv5cqqnfBA1FIGO2P0oIm7N1YiovHagfkNXjtPXhMAiRAAiRAAiRAAiRAAiRAAiRAAu5EgAKTO832CByruwlMRpMHTGYPWH1MiEv11d4SKmLJS9LhdUhkULu9C42Sfu7kHpuOVqouH7w0SWazAZ7ycC46yhvLFsVgnjzEDAvzQrvct6HBjrPna3D0VBV27S+D3e5+/hYGEfY8DZKuKjAeayInYqx/JKraGrG9MgMfVlxAhRxzIwESIAFHCajUmv+ashgpPiE4VlOAF3P3obStvnuRwE0aUSLTlx4bJd5MsVrg/+PfLyA3v9Et0pHeBMkNT/sGmjF1YQimLQrT/kzpx2uw/Z0iifS169/RG1biSRIgARIgARIgARIgARIgARIgARIggesIUGC6DglPuBIBdxCYLF4GePua4O0nnkopvmJartLf+YmXkhHNjR1orm+XlHficXSqDuohWU2lfdCm0CKiUoC/GYEBFkyfEqbT4I0fE4SmZvFsamxHfkEDTp6RNEOnKlFU0uyWDzGVsORn9MRY3wgsDx+N+ZIOz9bejBM1hSIsndfp8AZtQtgQCZCAWxGIswbiX5IWYLx/FDIkteYrBUdxvrEMbV0dN+UQFGjBI/cnYuXdsbDVtOHVNzPF/86Gllb3E/5vCunKhegkb8xaEY6U8QFQHoX7N5fhxK5K7UtobxsEU8L+OsDrJEACJEACJEACJEACJEACJEACJODiBCgwufgEunv3R6LApIzalXgUEGpBQIgZUQk+SEjz06KS2dOI2so28Y9ohU08lZRZec65BtSKp9LlQUpDp9LcBQdZEBVuRUqSP6ZMDNEvo9ED1fKwsqyiBafP2nAxsw6ZOfVoFKHJHTeZJviYPDHGJwxzg5OwOCQF9suduFBfhi0StXS4Nt8dsXDMJEACg0wg2OKNZ2LvwgL5jrHZm/Bm8SkcrMlDU+fNFxP4SJTr0gVReGBVAlQ60w0f5WPb7hL9HT7I3XP55iziUZgy0R+z7glHWIw3mhvacXJ3FTJO1eoFG50dTGrq8pPMAZAACZAACZAACZAACZAACZAACQwZAQpMQ4bW/Rq2Wq2YMWOG9gD6/OgzMjJQWlra63RwcDDS0tIQFRWFtrY2FBUV4cKFC5Je7eYPzXo1IG9GksDk7WeSh1teCJdXWIwV0Uk+iIz3gYpgspW1ojS/SYtLJbnNIizJcZXjnD7P7UbvfeWBZGK8L5IT/DB2dCDSUgMRFuqF2no7SsQs/sx5G3LyGpBb0IjS8pYbNeE254zisTRW0lfNkHR480OS4CsRTOmN4jslHksH5MFvcx8Pft0GEgdKAiQwaASsRjMeipiIB6LGo0PM9N4tPYMdVVmo72i96T1MklJ1xtRQfOGhZIxOCcCnO4rw/uZ8FBbTl+lG0NSijlQRmibND0VwuCfKCppx/kg1Mk7Woan+5hFjN2qL50iABEiABEiABEiABEiABEiABEjAXQhQYHKXmR6GccbGxuL111+H0Wi87m7//d//jY0bN149n5KSgqeffhrz5s3D5cuX0dUl/kHt7diwYQPeeOMNNDU59gDM1QUm30ATohO9EZvig9Boq34FR3hpn6WqklbkX6pHZUkL1HF5USsaagY3WshkMiA+xgfj0wIxdkygCEx+iBWPpc7Oy8jJb9AeHhczarXApB5Kdsh5d9+UH8rMgHgsCE1BuMUX2U1VWlg6XleICntjn/4o7s6O4ycBErh9Al4GM5aGpuLRmMlQx5vKzuGD8vNo6Ojbay8t1R+PrUnB7LvCsf9wOd7emIP0rPrb78gIrqkieMPjvDBKhKYpC8J0NHHuxXqcO1iNzNPifzVIkcIjGCGHRgIkQAIkQAIkQAIkQAIkQAIk4GYEKDC52YQP5XCTk5Oxe/du7NixAx9++GGvWx0/fhy5ubn6nI+PD55//nk8++yzWLduna6jLjz55JOYNWsW/uM//gPvv/9+r/o3e+OKApOPRColjvNDkrwi4qzi++CJgGALzJKmpySnCRmna1GU2YCG2naJUmpHS2PnoD/U8vcz65XtUyeFSMSSP8LDvBDgZ0F2Xj0upNfi1DkbCgqbtH9HY5Ok36OuhEgvP8wNTMIy8VmK9vJHWWuDpMK7hKPitVRub4Bdogq4kQAJkMBQElDC0qygeDwVOx2hFh/5DkrHuqITfUYyqf5ERVix9sEkrFwaizMXqkVkysXpczXo6KDP0I3mS0UOx4g/07iZwRg/KxjKjynjZI34M1VJZJN7R/DeiBfPkQAJkAAJkAAJkAAJkAAJkAAJuC8BCkzuO/eDPnIlMG3fvh1/+ctf8F//9V+92lcRSipSSW3jxo3DL3/5S50W72c/+xmys7P1NXX+o48+wubNm/GjH/0ILS39P8RxFYHJN8CMUZP8MXpqgEQs+ciqaBO8fIwSqWRAcXYTzh2yIfNMLdqau9AsgpJdzNiHQtSZMiEY82dHQglLAf5m+PqYUVPbhrMXanD8dJU8cLShuaUTTc0dOoqp1yS66Rs/8VmaJanw7o+cgETvYIlQ6sL7ZWfxaUU6attb0NbF1Elu+tHgsEngjhAwG4yY6BeFbyTOQaw1EAdsefhL/gFUij9TX1tQoAWrRGBac1+i9mJSItM+iWhqld8bbtcT8JBoJi9vg/Y/nH53GJLH+UsUsR1Ht1fg5B75rWzgd//11HiGBEiABEiABEiABEiABEiABEjA3QiMSIEpISEBYWFhveZSpV9THj82m63Xeb4ZPAI9AtOf//xn/Od//udNG1Zp8VTKvK1bt+I3v/kNamtrdVnlyfTKK6/AYrHg3/7t33DmzJmbttFzwZkFJr8gM8ZMDcTEOcGISfaByWKU9IEeWkwrzW/G8Z0VYiIu3g513WJO1xCln4uO9MbCuZG4Z0kMImUVu8logL29CxfTa3DkRCUOHKlARVWrFpSY/qfnkwWYrvgsPRY9FVMDY2E2GLBFRKW/FxzR0QIdIjRxIwESIIE7QcAAD8Rbg/CDlEVI84tAZmMl/t/sXchp7vtvHE9PI+bPCsezT46Gt9WE9e9l48NPCtHaRpHpZvMoPwX6t3vKglDMvz8KQWGeKC9sxqfrCpF9lqkGb8aN50mABEiABEiABEiABEiABEiABNyDgNMLTAZ5qBsUFAQlXiQmJiIyMlJSunSgokJWkJ48qUUju93ea7Yef/xxzJ8/Hx4eHvq8yWRCXV2d9vc5cOBAr7J8M3gEelLknT59Gunp6bIqulWLRNu2bUN1dfXVCKYFCxbg17/+tY5U+t3vfqfnRvUiMDAQSpyKiYnBT37yE+zZs6ffzjmDwKQ+ZgYRjpShuqe3EeNVSp3ZwYgb5Qvl59AhYo5KQ1QuaXVO7qkU0/BatDYNzcpn1RezREX5+ZoxaXwwli+KxkTZW+Sc8k8qKW0SUakKB49W4PylmiGJkup30py8gNnDiGCzFY/FTMNi8VmyGs04XVeC14uO40JjOTopLDn5DLJ7JOA+BILku+oHyYsxKzgBpa31eDFnD07Wl/T7PTV9Sgi+9qU0pCT54Z2NeXhlfSZFJgc+Nt6SXnbxmkhMXxyu/6a5cLQG+zaVwlbWhs4O5pJ1ACGLkAAJkAAJkAAJkAAJkAAJkAAJjDACTi0wWa1WnU7tscceg5+fH5SQpCKRlOjk6ekpK0qNOiXb22+/3WtaJk6ciPj4+KsC08qVK9Hc3EyBqRelwX+jIseU91JTU5MWAdUcRURE4NKlS/j+97+Pixcv6puq+fnVr36F8vJy/PznP9ciobqQlJSEHjFKnVfp8vrbhlNgMpoMWHH/bMydNx07tx/CkYMntW+SX6BZ/JRU+rtAxI/20w+ZmhuUd5IIocUtuHS8BheO1krau6GLePGRlHvKVyk6yltWp0dg5rQwhIR4yVx0SCqkVpwTMUn5bRw7WQXlqcTtegJeBhMCzd5YHjZaXqn6WEUDfFx+EQdq8tDQ0XZ9JZ4hARIggTtMQEVXfiN+DpaHp6FRvqf+XnAYB6rz0NLV93f9+LRAfFkimdQihF37SvC31zJQVd026J5/dxjPoN/eZJbosdG+mLEsXKfNa5bf+hO7ZfHI4WrtmzhU0ciDPhA2SAIkQAIkQAIkQAIkQAIkQAIkQAKDQMBpBSaVJm358uVYtWqVPOzoQmZmJvLz83WKOy8vL0RFRSFRIpqUSPHSSy/1ieK3v/2tFqc2bNgARjD1iWpAF5UIuHDhQpw6dQoNDQ062mzt2rX42te+pqPNnnzySe2rpFLh/fCHP8Tq1avxhz/8Qc+JEg3vu+8+PPfcc2hsbMQvfvELLQj216HhFJjGzwrC138+CcFRJhSmN+P80Ur4BVkQGe+tu1lbZZeHS63yakPW6XrkXWpEY13fD/j6G19f170k1VFYqIh44VZMHBuMaZNDMXZ0oESE2WETUSmvoAGnzlXjYkYdCouV6Dd0Aldf/XT2axYRliIsvpgZFI/FIaOQ7BOCXBGW9thysFdepW1MgeTsc8j+kYC7EzBI+Opj0VPwQOREHb30VvFJ7LBlacGpLzaJ8b4iMqXirilhOHOhGm+8k4307HrxSGTKvL64qWu+ASbtqzhxTghiJWK5NK8ZJ3ZVIO9io/wd0Duyvr+2eJ0ESIAESIAESIAESIAESIAESIAEXJWA0wpMEyZMwFe+8hWoKKZdu3Zhy5YtOs1aD2glSKSkpEiURggOHTrUc/qGewpMN8QyLCd9fHzw+uuvQ6XFU+LT+fPn9X2nTZuGb33rWzpCraqqSgtPKpVhcXExZs6ciZ/97Gfao6m/Tg6nwPR//WUqJkjqO7Vdlkw4lRKdpPwXSvOatLBUmNWM4qwmNA2h8bdKgRceZkVinA9Sk/0xbkwQxo4J1Kn4yitaUFImD7hOVyG3oBH5hU2ob+BDrpt9hoxirBEuwtL0gFjMC07CWP8IlLU2YJ+ISodr85HZVHWzqjxPAiRAAk5HwFPE8qWho7E2ehK8JLXnxtJz2FKZjpr2ZvSVvC002Atr7ovH3QtidMTrxo/ycfBYJRoah26BhNPBG0CHwmK8MG5GINKmByM6yQfnDtlw5oANRervgfqhSYc7gO6yKgmQAAmQAAmQAAmQAAmQAAmQAAkMKgGnFJhUhNLTTz+NKVOmQIkPyq+nvv7GUQRKaFIRTn1ttyMweXt7a/FKRduYzWbU1NTovqh+XFbqQh+bElVUariAgACdyk95EamInrKyMp0+ro+q4uNj0vWUcObv76+FF5vNpj2n+htnX+3eyWu//OUv8fzzz+NLX/rS1bR3at6UZ9OkSZM0q9raWuTk5GDp0qVYtmwZfvzjH+PIkSP9dns4BaZ//9MUTJoXovukfJX2fViCbW8Voyy/BS3Nstq7749Fv2Ppq4DyVBqd4i8RSgEYPSpQBCZf8SbzFNG17Uqkkk2LSqUiMJVXtvbVFK8JAV+TJ2YGxmO+CEuT/KPR1GnHvuocHKrOx7mG0qGcSvInARIggSEj4GUwY5Z8tz0eOxVhIqDvqMzE+2Vn+43E9PIyYtHcCDz6QDJUdOzH2wrxyfYiVNdykYIjk2WyGBCdaNV/IySPD4BKo5dxshZnRWwqyWlBu73vv1MduQfLkAAJkAAJkAAJkAAJkAAJkAAJkIAzEnBKgWncuHFQ6dTCwsJ0mrSPP/54QOxuRWDykBAR5SWkom1iYmKghCbl9aQ8nKqrq3W01NmzZ7UX1Oc7pcqlpqZi3rx5OoWfEsqUYNTR0QElMlVUVODgwYNQ9W+0qRRzc+bMgYreUsKJqq88p5Sn0YULF7Bz585+BaobtXunz/3+97/HU089hQcffBD79u27rjs9IqES81577TUtxinPJiXI9bcNp8A0ZloAvvG/JyM0xhMZp+rw5u8vIvN0Q39dvO3rZvF8SpBIpWmTQzBxnKyMjvSR6CX5TMiDqvSsOpwXX6UL6TUok8ilSlubfFb4AMsR2DPk4evdkgpvcmAMTBLFpESlPbZsXGqqQJP4lwyhTuhI91iGBEiABAZEQKX9nOgXiSdjpyHFOxSn6orxStFRSf1Z3We7JpOHpMoLxROPpCBG/Py27izGOx/kScpV+s/1Ce6ai95+JkSJ0DRtURgSxvihVRafXDxajWM7q1BfbdfRz9cU5yEJkAAJkAAJkAAJkAAJkAAJkAAJuDyBAQtMvj4m/PmFJQ6B2LKzAK+uT++37N133639eZR4oFKlKWFmINutCExjxozBAw88gETxd1KikoqqUeKQEp1UVJISmZTgdfjw4etEJlXm8ccfR3x8vPaKys3N1YJQYGCgrqsElE8//RSffPLJdcNR4tITTzyBsWPH6mtFRUWorKzU0UxpaWn6XqdPn8bbb7+tPYqua+AOn1DCnBIEVcTZtZFWSiz85z//KdE2QZg+ffrVNIdKVFKRYNdGgymvph/84Af405/+pL2Z1Iezv204BSaj0QP33DcHc+bfhZ1bD2LvzmPoaB98OUL9m5o/KwJzZoqBeII//P3MkirShMzsOpw+X43TZ23IyW9Akzy4ahWfjK6uwe9Df9xd8foY33CsCB2DeaFJ8DFacLKuCB+VX8SFhnI0dIqxfT+Ria44ZvaZBEjAPQmoFKBxXgH4cvxM3CX+csUttXgxdx/O1pf2CUSJTGNGBeDpx0bpFKz7DpfhH+uyJDK2pc96vPgZAQ+DB3z9jUhIk0VDqyIRFm1FjUQWH95SIR5NTL36GSkekQAJkAAJkAAJkAAJkAAJkAAJjAQCAxaYAvwt2PvxI0iI9euTR1NTO1740yn8+sWTfZZTF9esWYMlS5bo1HTf/va3ewkW/Va+QQFHBSYlVqxevVrfWwk8ShgpLZV0WfLgWaWrU9dUhFFWVhbWr18PVaZns1gsup7q+7lz57Bx40aUl5frukp8UWn2YmNjoY4vXbrUU03v1bkVK1boCB8lpn3wwQc6YklNjrqm6n3zm98Unx2DTjG3ffv2XvWd4Y2K3nrhhReQlJSEvXv3aoEtLi5Oi3VKeFMRScqLqUdQWrVqFe655x4oEa6trQ2zZs3C8uXLcfToUXzve9/rxbav8Q2nwKTmYu7cuXqet27dqkXGvvp2q9emTAzG0kUxmDsjHFZJV2Q2G1BZ1YoTZ2w4cqJSeyvZJXqpo/MyRaVbgBvh6YcVYWlYGZGGUIsPCuVB67riY9hvy4P9sgh0FJZugSaLkgAJuAoBseyD8mX6TtJ8rIoYh4q2RryYswcHavL6HIJBBJKYSG88+2QqZt0VjkyJmP39SxeQKwsbuDlOQHH0DzZjsqTWnXtvJCxWI/IuNWDnu8UoSG90vCGWJAESIAESIAESIAESIAESIAESIAEnJjAoAtM+EZhCQ6woKrnxfzB7WowID7Xi13846ZDApPyXlJCjUsP96Ec/GjA+RwUmFb2k7q0ijl5++WWcOHGil7iVKFFNykcoOjoab7zxBg4cOKDT36kOKqHj4Ycf1unxNm/erKOcVHo7Rzbl1fSLX/xCt7Vp0ybs2rXrumqKxzPPPIP09HQt1Aw0quu6GwzwhBK/fvjDH0JFIam0gkqMUWJScXExfvWrX+lUh9feYtGiRfjpT38KFZ2lytrtds3sJz/5CZQfk6ObqwpMRnnwZJSV4tHyEG/+7AjcszgWUZFWLRy1tHRK+rtqHD5eiUNitF4hIhO3WyNggAf8zJ6YG5SIR6ImI8E7GFX2RmwoO483i0/cWmMsTQIkQAIuTuArcbPxhdgpqLE346X8g9glaUE7L/edVlV5/31xbQpWLYtFs/wu/e7P53DkZBU6ZZEDt1sjEJ3kg3n3RmD87GB0SuTz0e3lOLy1EnVVdi4YuTWULE0CJEACJEACJEACJEACJEACJOBkBJxOYFKeRc8995xOp6Y8eH7+858PGJkjApMSSGbOnIkvf/nLOqpGRdsUFhb2urdKY3f//fdDiSN79uzRUUqNjd2imhJVVGo9FXl15swZKKGopKTkujR6vRq88kbVUan1lBizbt06Hf3z+XJKhPqXf/kXLb6oNHnKk8kZN8UhKipKi0w1NeIPJHOoPKhutFmtVi3Wqeiv7OxsLTLdqFxf51xJYFKrmdUDu6BAi6QeCsSC2ZEYlxYoHl8GScfYgWIRaI+ftuHUuWqkZ9ahvaPvh399cXHXa2rFfoDZijSfcDwYNQGT/KNR39GKA9W5eLvkNMrbGuix5K4fDo6bBNyYgPpuXBM5CU/FTYe9qwPrik5gR1Ummjvb5Tvx5oKRrP/Amvsk/e+aZJ2q9a+vpmPbnhJZAHTj33U3RuzQ0JXANGNpGGKTfdBQ2469H5Yg60w9Gus60EXhziGGLEQCJEACJEACJEACJEACJEACJOBcBJxOYFLRLM8++6xOmaYiWX784x8PmJgjApMSORYvXoxHHnlERy69++672k/o2psr8UuldXvwwQdx6tQpHcXUE22jrimPoccee0ynw1ORRkoEUgKLEqHq6+v161p/op62n3rqKSxcuBAtLS06NVxPGcWiZ1Ptx8TEaD+oDRs26OipnmvuvHcFgUl5KIWHeSEuxgd3TQ6DSoUXHOSJmlq7RCe1SLRSDS5cqsUFEZVqaKZ+2x/nQBGW4r2CsCoyDbMCE9AiD1HP1ZXg4wrxWWosl4eq/Xt63fbNWZEESIAEnJyAxWDEkpBRIjLdJanzjNhUdgFbKtN16ry+RCY1rEXzIrUvk/rt2rA5H5u3FsJW3SaRyk4+aCfsnm+AGVMXBmPCnBAEBHuiKLsRx3ZUoCirSQtNTthldokESIAESIAESIAESIAESIAESIAEbkrA6QQm1dNHH31Uiz3qWPnx9Agu6v3tbI4ITCryZuXKldoLSaW+Ux5KPeJRzz2V4HP33Xdj7dq1yMnJwd///vdeIpSKMlqwYAGmTJmC8PBweHp6atGoqqoKBQUFuHhRHnSL6KRS/127KX+isWPHoqGhAfn5+ddeuu64tbUVhw4dwtmzZ6+75o4nnFVg8vI0IjbaGwlxPkgbHYQJaUFITQmQB3KtKC1vRk5eA85eqBZPi0aUlDXD3s5opdv9/PqaPJFsDcHCkGTMDk7QniPKyH5nVTZO1xfrCKbbbZv1SIAESGAkEVCeTDMC4/CF6CmI8vLHPluupA49h/yW6n6HOVUWR3zxC6MQH+OLvYfKsGlLIQoKG7UvYL+VWaAXAZPZAxHxVkyUiKbUKYGwyN8MWWdqcfZgNQpFaGpv498EvYDxDQmQAAmQAAmQAAmQAAmQAAmQgNMScEqBacWKFVrsUaLPv//7v18n9NwqTUcEJpWuTd131apVOHjwoBaYVIq3azclMC1dulQLYFlZWdqnyWazXVtEp4aLjY2FeimRKSIiAgkJCfp8dXU1Pvnkk17eTaryd7/7XUyYMAGqzVdffVV7F/Vq9Jo3ytdIRUSpaCdu3d5XZrN5WFCo+Z87d65Og7h161YcPnz4uvsqT6W0VH+MGRWAUckBSE70kzIe2p8sXx7EHTtVhZLSZhGZWtDQ6JhH13U34QlNwCIPSlO8QzAvOAkzg+IRYvHGxYZy7KjMxPmGMpSL5xI3EiABEiCB3gTMEr001jcCj0ZNwkRJI3q+oRSvFR5DelNl74Kfe6fSvI5K8sNDqxMwdWIIMrLrsPGjAlksUcOUrp9j5ehbq68RMUneOpopbVoQmurbkSlC05n91SjJbXa0GZYjARIgARIgARIgARIgARIgARIggTtGwCkFJpVqTkUJBQUF4bXXXsO+ffsGBOiFF14QU+pOqNRy+/fvv2FbSqRQ0Ucqxd3p06ehfI4qK3s/bFFllAilfJhOnDiB9evXo66u7obtKU8nJVqpqCYlNC1btgyjRo3C+fPn8dZbb6G8vPxqPRWxtXz5cmRmZuLFF19EW1vb1Ws86JuAM0QwKV+l8eKpNGVSMEZLlFJkuDdUWrzyyhZ5AFePM+dtOmKpytYGG1Pg9T2hDlxViSNjvAKwWFI9zQtJQqSsws9vrsZHZSoVXhmKWm/8b9KBplmEBEiABNyCgEEWTMTK9+hj0VOxJCwVefId+reCwzhe29t78vMwlMgUHuqFFUtjsGJJLOob7Fj/Xg72HCyXaHPmy/s8L0ff+webET/GF1MXhGLUpAAUZjbiwtEanD9cgzqb3dFmWI4ESIAESIAESIAESIAESIAESIAEhp2AUwpMfn5++PrXv47U1FSdWu5Xv/pVn1E9/VH7xS9+AdXm5s2bsX379hsWV9Epd911F5577jkt/rzyyivIzc3tVVYJXg899BBmz56NnTt34sMPP7wu3V2vClfeqLbHjRunI5UKCwu1eJWRkXG16Jw5c7TvVHFxMdR9+0uTd7UiDzCcApN6sPb//HQ5Zs9IxKaPz2PHnguYMiEYUyeFIiJMxER/C1rbOvVq7tPnbDifXiMiZSsaxQydKfAG58PqbbRgWWgqVoSnIc4aqNPffSDpnQ7V5KOktR4dl5lWaHBIsxUSIAF3IBBs9pZ0eZOxNmYqClpq8I+CI9hty+536H6+JixZEI0nHk6Gh/w2vvFONjZ+XNBvPRa4OQGD0QP+QSaMnREkQlMYgsI9JV1etz9T1ul62Jk27+bweIUESIAESIAESIAESIAESIAESOCOERg0gSkx3l+ihG68elX0FUnp1oFf/+Ekfv3iSYcGq6KJVGSPihp6//33sW3btutEJhUllJiYqP2Q+mr0O9/5jhZ4VOq7devW6WimG5VPSkrCk08+qdPbqegkFe3U0dFxteiYMWPwzDPPaLFKpbI7fvz4VX8oJSKp/iign9/UNVX3X//1X3UavDfffFMLZz3lvLy88NOf/hT+/v5auFL+TzfynVLtKx7t7e03vN7Tnjvth1Ng+tF3JuD7z0+E2WRAc3MHCosb0CR7o9GA9MxaHJX0d0dPViG/oFGnC+ro6KIB+iB+GOcGJ+qUTml+kegUIenj8gv4qPwiitvq0d51/b+7Qbw1myIBEiCBEUtA+TI9GDke30ich/K2Bp0ub0tluv6e7WvQZrMBc+4Kw3e/Ph7eVhPe3ZSHV9dnyd9NFPr74tbfNaPJA0FhFsxcHoEJ4tHkaTVKNFM1drxTjJoKRjP1x4/XSYAESIAESIAESIAESIAESIAEhpfAIAhMZmx+8wGHev3OB1n47Z9OO1TWYrHg+9//PpKTk2G327Fnzx7tXaQ8jzw9PbWv0X333Qfla/Q///M/fbY5bdo0HRFVX1+PvXv34tSpU7pN5Wek0uCpvdrUPVeuXKl9mJTHkRKjzpw5o69HR8tK3See0IKWOvfOO++goqLi6n1VKrw1a9aI8NCsPZxUCjwlEhmNRj2GRx55RAtXR48ehRKYlI/StduMGTN09FRra6tOCbhjxw40NDToIqoNlV5vyZIlUNdff/11ejBdgTecAtP+j1djdGrg1Wm7mF6LjZvzse9QOU6ctYnwx4dqV+EMwoFKhWfwMCDVJxSPRE3EnOBkWMQ75HB1Hl4vPoFLjZ/9+xuE27EJEiABEnBrAislMvQHKYtR396Kt0tOY7OI+I2d/afsHTc6ED/50RSEBHli594SvLwuE5W2Vi6wGOCnSdYmIUHS5i1+OFr2/rq1FomITpseiMqiFrzzxxwc31XV/TfslfVdV/6cHeCdWZ0ESIAESIAESIAESIAESIAESIAEHCcwYIHJ8Vvdeklvb288/vjjmDhxIlSUj9qU2GQymfRLHR85ckT7NPXVuvJCUt5KkyZN0uKUEmxUVJESgL73ve/piKCe+kpIWr16NSZMmKDLKpFHiTqhoaG6fFFRETZt2qS9lK6NMlLRR6qvkydP1qJSU1MTamtrERISor2YVF9V6jvlA5WVldVzu6t7NT7l0zR//nwdyaRELyWeqX4GBwfr6CjlzaSippSHk+oTNwxrirw//noOHr4/SebXQ/hLRN6LZ/CHv12S1do3jtzj/Nw+AS9ZUR8t/iDLxBtkcego+Bo9kS6C0ofl57HHlnP7DbMmCZAACZDADQmYRNCfE5SIrybM1t+5n1RcxAfynVvR1ojL8r++NuU9+N2vpWH82GCoxRevv52F9CyJLmU0U1/YHLrmLekIx88Kwn1fTtD+TD2VirIbsfPdYhGbWtHa0ok29WqWV2snOq9EUCtfLJU5VglPV4/lnLLLunzlWu9jdaHnDtyTAAmQAAmQAAmQAAmQAAmQAAmQQP8EnFpgUt1XYpBKl6cieJQHkooyUuKLElsKCgpw+PDhXunmbjZkJVapSCYVEaXEINWuEoj+9Kc/9UqDp+oHBgZi3rx5+p4+Pj5a3FERTWVlZTptXl5e3nW3Uf0aO3asFsPCw8O1IKbuoQArcUnVOXToEJRAdbNNpb8bPXo0Zs6cqUUlJTopgUmlxFOCVXZ2tha2lI9TT9TVzdpyl/PDGcGUmuyP//zfCzEqJUSilgrwwv93DFm53VFm7sJ7qMdplgilaE9/eciZoI3nlciU1VglolI2tlZmOLSafqj7yPZJgARIYKQSUCLTZH+J2I6ZhlG+YThQnYu3ik8hv6W6X93Bz9eML65N0d5MFVUteOPdbBw/ZdPehCOV13CO6+FvJuHh58XzSoX3ytZU34HSvCbYW7ug/JvU4he1V55YdhGZ7OIJqa7pY73v0uLTZ+875H3PdVW++1hFY3dJymv1UqmvVQbaLllIo49FjVKZoK9el/OflRMxi+JU9+Tw/0mABEiABEiABEiABEiABEjAjQg4vcDUMxfKf0iJPSoVXU+nlegylEKLSsWnRC0l/KhoInW//jYlCCkxy8/PT4tMSghT6fDUy9G+9rShhC41bnVfFUmlhCZuvQkMp8Ck5mX+/Dm4d+VCbP5oJ/btP9y7M3x32wQMwjbGMwBTAmJ0xFKabzhym6txtKYAO6oyUdxaB3G0uu32WZEESIAESMAxAgZ4SGrSMDwWMwWzghNwsrZY+zKlN/WfltTXx4TVy+Nw/8p4LSy980Eudh8ok7S+9MlzjP7NS6l0eV//P2MRO8oXLU2dOL2vCmcP2LSoY7Z4wOxpgMligMXTKH+3GqC8nIziGWm69lidu/Le1OtYyptVeQ+JfrqMdhGb2u2dV/ZyrN4rAcquzl95f/V673LKg6ujXYQo2au2uo+v2avzV66rCPDu424B6+aj5xUSIAESIAESIAESIAESIAESIAFnJdCj1dxI+1BrJPlE11lnjv3SBIZbYJo7d672wtq6dauOnuM0DJxAuKcvpvjHYIF4LE0KiEalvRGHRVjaJ6nwcpptaOvqGPhN2AIJkAAJkMAtEUiwBuNh8b9bHj4GmY2VWmQ6VlfYbxtKZFo4J1JSyibC02LEpi0F+HRHMWrr7P3WZYG+CYy9KwBJ43x19NKl43UoL7w+XbKKYDKJWKSEJbMSjWTf8773vrvM589ZvCQNtQhVSqRSe93Olb1JCVlXzvfsu8vIeSmjFuJ0SARUh4hQWmiyK2FJBCl5KSFJiVP6uhx3tHdeKXuljBKspLwStpQopcvq993ttas6WuDq3ut2r7SnhCxGT/X92eFVEiABEiABEiABEiABEiABEhgqAhSYhoos2x0WAhSYhgXzkNzE1+SJqSIsLQpJwcSAKHRIHp6DNfnYVZWFvJYaNHb0by4/JB1joyRAAiRAApqAWgDwQMR4PB47DTlNNqwvOom9NTloV3nT+tisXkZMmRiMRx9IQly0Dw4fr8SbG3JRVNJ/JHgfzfLSMBBQafZ0dJNEMxlUlJNKv6f2vY4l4skoaayvnO8pp6OnJILKIvBM8ccAACQQSURBVNFU5mv2KrrKokQrtVcRVnrf/d4sIqSOvhIxTIlESizqiX7qPlbRTd3RUFffX4mO6jmvxCiV+k/vVWpAFXGl0v9dibzS0VcqAku912Vlf+WaErokYzY3EiABEiABEiABEiABEiABEiCB2yRAgek2wbGacxCgwOQc83ArvVDp8Cb4RWFF2BhMD4yDWdJAHq8twqayCyIsVaO+4/oV2bfSPsuSAAmQAAkMHgF/WQywTL6vv54wBxX2BmwsPYdPKy/JIoC+I5JMkp4tPsYbTz6aglnTw8WzsA5/fS0D5y/VDl7n2JJTEZCfd+0DZZAoKv0SEUpFVCnRSn7qP9vf4JxK52cRYdLTS4QntbeqYxGrrrzU+Z7rFrl29VhdF8FK3UMJVNofSryiuvefvb+sPKXkvNp36etyTfYqEqpNUjgqv6o25V0lx2qvznV7VIkwdfX4yrme9yJmqftwIwESIAESIAESIAESIAESIAF3JkCByZ1nfwSMnQKTa01ilJc/HoqcgBXhY2GRp00q7dI/i07gfIN4dHS2S05OPqhxrRllb0mABNyBgNlgxJygBHwnaT6MHgZ8JAsC3is7i5r2lj6HrwQHb6sJTz+eiofvS9ARTH9++aJENFX1WY8X3ZOA+ryoNHvde2EgQlTP8XXXVNlrrqtIKC/vK8KU7NWxlxKp9Msk7w3dx97q+NprSqwSgUraUgJV9+tKyj0lSH3unMoprs8pkUpeSohqbb7yaulAm/hjtcl75TvW2iyilRzrMkqUUuXUXsqovYrU4kYCJEACJEACJEACJEACJEACrk6AApOrz6Cb958Ck/N/AOQZEFQ6vJVhaXg8ZioCLd6osTfjlcIj2FaVqYUl5x8Fe0gCJEAC7k1ARZ+O943A91MWIcYrEJ+WX8JrxcdQZXcs7d0XHkrC154eg4qqVvz11XTs2l+qH9S7N1WO3hkIqDSAKirKy8cIqwiiXr5KoLoiRIkYZZXzV9+rMnLOU7zG1F7VUeJWjxAmstf1Q7py6torajlNmwhSLUpsUq9mOW7s0GKVOtem3uvzIlbJsS4j71uaRMQSoUql+/tsu2Z5zg3W6ehTNzj/WX0ekQAJkAAJkAAJkAAJkAAJkMDtE6DAdPvsWNMJCFBgcoJJuEkX1Cp3H6MF0wNisUaM4pN9QkRM6sCnFRfxYfkFlLc13KQmT5MACZAACTgrgVTvUHw9cQ4mBcRgjy0b/yg4gpLWun7jT9VD/OWLovHcU6PRIWnF3t+ch227S1BbZ6fQ5KyTzX71S0AJSyazQUdFqbR9KjpKi1XWKxFTV6Oouq91R1Rdc03qGKW+BFBdE5ElkVuSUlBHc6nUgnKTa9+r8+32z9L66XR+Ei2lRCp9rKKk5KWjpT4XQaXOK78qFX11NTpLRWOJAHVZNCsdodVr351KsCdqS+0He9PinIogu9KnwW6f7ZEACZAACZAACZAACZAACQwtAQpMQ8uXrQ8xAQpMQwz4NpqXxyAIMlsx2jdcUuGNwUS/SLSKIfzRmgLt23GpseI2WmUVEiABEiABZyGQ7B2Cp2KnY05wIk7VFeOv+YeQ02zrt3tmeZA+fXIIHluTjKgIb+w5UIZNnxagsKSJIlO/9FhgJBJQqfm055T4SFlElFLp+iye3Wn7lAeVWc5r/yl1rue6nPe8UsYse+U/pQTcbt+rK55X6py0rf2v1DX9ErFKzmnvKbv4T0mKPiU2af8pJTxJVFT3+8/EK7v4TKnr+rwSruR9Z8cVjyvla9X5mc+V/KnX7X2lz1/jdXXl/Y0EJLNFvNpGeyM02gt1NjvyLjXpaK2RONccEwmQAAmQAAmQAAmQAAmMVAIUmEbqzLrJuCgwOddE+5u8MMonFHeHpmKKrG43yrLUE7VF2GvLwcn6YrR1dThXh9kbEiABEiCB2yIQZw3CF6InY2nYaGSJn97fCg7jQkM52i/LU+Y+NvUgPDXFH4/clyhiUyhOn7Nh/YZcpGfW9VGLl0iABK4joKKnTAYtQimhxiJilEkJVXKshCl1zmwRAUtEKLOnpAHsdV6JWUYdfWU0iRgl7Ziu7Hved++vuWbuTvKnBKouJRqJ0NSuRCl5tdvlpfb6uFusUlFW3e9VmW6hqqO9S3tPqbrqFR5rxQNfSULsKF9UlrTizd9l4Nh2m27vuvHyBAmQAAmQAAmQAAmQAAmQgFMSoMDklNPCTjlKgAKTo6SGtpzVaEaqTxgWh6RoYSnE4oNjtQXYb8sTYamoXyP4oe0dWycBEiABEhgKAuGevlgTOQn3R45HWWs93i4+hf01uWjstPd7u7gYbzx0bwKWL4lFVk493ng3G0dPVvVbjwVIgAQGh4CKZjKKaKQiC00iRKlUf92vnmPZX3PeLGVNIlJ11xHBysuky6vzRiVe9dSXY9VOd7vq+Eo9EZe1RdWVNHudIlJFxFgRM8rn6oD2flCKdS9kor66/eo5HpAACZAACZAACZAACZAACTg3AQpMzj0/7F0/BCgw9QNoiC+rCKUkawgWibA0IygeKeKzdKKuCLursnFS0iaV2xskr/8QJOwf4nGxeRIgARIgAccIBJi9cHdIKh6LmYoOiV76qPwiPqm4hOr25n4bCAv1wqqlMZIyLwWl5c14a0MO9hwsR6uk7eJGAiTg3AR0hJOIRkpwMhpFeNIRUHL8uX13ZFTPeSkndcySCtBLBKrxs4Ox6KHoqwM9vqMSL//HJdRU9i9SX63EAxIgARIgARIgARIgARIggTtKgALTHcXPmw+UAAWmgRK8/fqhEqWkUuHND05Gkk8wilpqsaUiHYdr81Fpb0K7SsbPjQRIgARIYMQT8DSYMFXSon41YTaCzd7YXpmBt0tOo8Le2O/Y/XxNmD87Es88norOri58sq0Im7cUobq2rd+6LEACJOCaBDxkgZLRBETEW3HfswlImxakU/ZVl7fi0zcKcfDjcp1CzzVHx16TAAmQAAmQAAmQAAmQgHsRoMDkXvM94kZLgWn4p9RiMEoqvFFYGZ6G0b7hqGtvwVZ5mPiprFivaqewNPwzwjuSAAmQwJ0nYPQwIMU7BN9Kmocx8tuwsyoLrxQeRXlbQ7+dM4v/i/Jl+tZXxiI22gd7D5Rh3bs5Oqqp38osQAIk4LIE5GsDVh8jPCWiKTLRG8u/EIeAUE9se7MIBz8pd9lxseMkQAIkQAIkQAIkQAIk4E4EKDC502yPwLFSYBreSZ3sH4XHoqdgdnASmsVjY58tB+uKT6KgpWZ4O8K7kQAJkAAJOCWBeGsQvi0i04zAeOyV34jf5+yBzYF0eWowwUEW/PDbEzF7ejgOHavAn/9xCYXFTU45TnaKBEhg8Akkj/fDI88nIyDEEx++nIfDWyoG/yZskQRIgARIgARIgARIgARIYFAJUGAaVJxsbLgJUGAaWuIe4sbsKRFLCd7BWCURS/dHTkBjRxsyGiqwvuQkjovfEjcSIAESIAESuJZAvFcQnkuYhTnBiThXX4LfishU0lqHTgc8+cLFl+mZJ1KxZH4ULmbU4n9EZMrOa0BnJ/38rmXMYxIYqQRGTfLHmm8kw9ffjI/+mY8TO6vQbu8aqcPluEiABEiABEiABEiABEjA5QlQYHL5KXTvAVBgGrr59xJPjVivQMyVB4QrwsfAarSgoq0RG0rPYU91to5gGrq7s2USIAESIAFXJhDl5Y9nYmdgXkgSSlrq8FL+IZxrKEVrV0e/wwoL8cLaBxOxdFE0Kqpa8er6TJw6W42WVnr79QuPBUhgBBBIneyP+59Lgpe3ETveKcLJvTa0NfPf/wiYWg6BBEiABEiABEiABEhgBBKgwDQCJ9WdhkSBafBnW/loxIuwNDkgGsvCRiPS0w+l4qGx15aNXVXZDpm2D36v2CIJkAAJkICrEQixeOOhyInas08JS28WnZQFCjmo72jtdygBEr2wfHE07l0WB4vFiI0f5WP73lJU17T1W5cFSIAEXJ9A6pQArHwyDl4+Juz5oARn9tnQ0kSRyfVnliMgARIgARIgARIgARIYaQQoMI20GXWz8VBgGtwJj/EKwCTxWbo7NFWnxbPZm7DflovDtfnIaa6W9EZMUTK4xNkaCZAACYxsAt4S/bokJAVrY6bAR443lV3A5ooLqJLfl/42L08jpk8OwdqHkpCc4I/te4rx3qY88WVq7q8qr5MACbg4AYPBA6On+uPuR2NhFZFp36YSnN5fjVaKTC4+s+w+CZAACZAACZAACZDASCNAgWmkzaibjYcC0+BMeLDZG1MDYnGPpMJL9A6CvasTuyVa6UB1HvJabJIOr31wbsRWSIAESIAE3I6A0cMD0/3j8HT8DMRaA7ClIh3vl56V6Nj6fllIVYwZFYCn1o7CXVNCsP9wOd7akIuM7P7r9ts4C5AACTg1AZPZA6mTA7DkkRgtMu2VSKZTEslkb+WCJ6eeOHaOBEiABEiABEiABEjArQhQYHKr6R55g6XANLA59TaaJWIpBveGp2GMbzgCzVZ8UnlJP/wraKlFgwNpjAbWA9YmARIgARJwBwIGeGCsXwSeiZuh9yrt6j8Lj6PEAZFJ8YmO9MYTjyRj2aIYnDlvw/r3c2Rfg87Oy+6Aj2MkAbclYLYYRGTqjmTy9jVhu3gynRJPps4O/tt32w8FB04CJEACJEACJEACJOBUBCgwOdV0sDO3SoAC060S6y6vVpMneYfggcgJmBEYj1DxyThck493Ss4gq7kKTR12XJb/cSMBEiABEiCBwSJgkN+eZGsIno2fibsC43C0pgAvFRxEoSxocOQXJyTIE/eviscDK+NRUdmCN0VkOnC0Em1t9GUZrDliOyTgjARUJNOYqYFY/ngcfPxN2PRynk6X54x9ZZ9IgARIgARIgARIgARIwN0IUGBytxkfYeOlwHTrE6o8MNZGTcE9EWMQ4emHjMZKvF1yCvurcyU1XodDD/lu/a6sQQIkQAIkQALdBKI8/fHV+FlYEJqCLPkNeiFnN7KaqhzCY/UyYsmCKHxRUuZ5ehrw+ltZ2Ly1CG12psxyCCALkYCLElDpMsfNDMLqZxLgG2DG+t9l4cKRGhcdDbtNAiRAAiRAAiRAAiRAAiOHAAWmkTOXbjkSCkyOTbvJwwAvgxl3h43C6vBxSPQJRklrPbaJD4ZKiWez0zDdMZIsRQIkQAIkMBgElPffUzHTsEy8/5okHevvc/fheF0R2sUDsL/NYPDArOmheOaJVCQn+uNt8WR6/e1sNLd09FeV10mABFycwKS5wbj36QRYJV3eO3/IxoWjkiqT6fJcfFbZfRIgARIgARIgARIgAVcmQIHJlWePfQcFpr4/BEpYCjB5YWpgLJaFpmKapCQqFWHpSHU+Pqm6hOwmW98N8CoJkAAJkAAJDBEBb4mofShiAh6MniCLIEz4e8ERbK/MRGNnm0N3nDwhGM88PgoTxgZj+54SvPJGpqTOa0XXZUcS7jl0CxYiARJwQgKT5gVj5VPxMBiBj18rEJGpFu1tjGJ0wqlil0iABEiABEiABEiABNyAAAUmN5jkkTxECkw3nl3lcxFosmK8XyTmBydhbkgSattbca6uGFvl4d2J+qIbV+RZEiABEiABEhhGAur3annoaDwROw3BFh+8XXwKH1dcRJW9yaFepCb740uPjcKMqWE4caYK69/LQUZWvaTM6z8SyqEbsBAJkIBTElAi09K1sVCp83a8U6wjmeytFJmccrLYKRIgARIgARIgARIggRFNgALTiJ7ekT84CkzXz7FaBT7RPwqzgxIxKygeRoliuthYjl2V2ThaW4CWrvbrK/EMCZAACZAACdxBAnMCE/BU3HTEWgPxafklvF92DmVt9Q71KCrCiodWJ2DR3ChU2lqw8aN8HD5ehYZG/t45BJCFSMAFCcift1Dp8hY/FCP+oZexe0MJLh6rBUUmF5xMdpkESIAESIAESIAESMClCVBgcunpY+cpMPX+DKiIpdnykG5OSKJOjZfeWIHdtmycri9BZVuT/g/w3jX4jgRIgARIgATuPAEPeGCSLI54KnY6xviGY4/8dr1Xegb5LTUOpbzz8zWLwBSJNSI0mc0GfLytEJ/sKEZNrf3OD449IAESGBICZosB42YGYtGDMfp7Yvf7xbh0vA7tdkYyDQlwNkoCJEACJEACJEACJEACNyBAgekGUHjKdQhQYOqeq0RrEOaHJGOJ+CyFWLyR31yNrRUZ2jBdpRlqv8xUQa7zqWZPSYAESMA9CaiI2xSfEDwWPQXTAuJwoaEU64pO4mJTuUMik6fFiGmTg/HU2lGICrdiy85ivP1BLqprKDK55yeKo3YHAhbPKyKTimTquoxtbxUh/UQdOjvpxeYO888xkgAJkAAJkAAJkAAJ3HkCFJju/BywBwMg4O4CU4j4VSwQj6XVEeMQ5RWAxo42vF96FturMlDf0Qp7F4WlAXy8WJUESIAESGCYCShPpihPfzwSNUkvmqhoa8BL+YdwrK7QoZ6YTB4YNyYQzz6RitSUAOw9WIa/vZYBW02bQ/VZiARIwPUIqEimiXOCsPhhJTIBH/49F1lnG1xvIOwxCZAACZAACZAACZAACbggAQpMLjhp7PJnBNxVYFI+S9MDYvFYzBSM8YvAZVmkuan8HF4rOiEiUys61QluJEACJEACJOCiBHyMFi0yPRw9GQZJn/dC9k7skrR5jmyiUSEhzhdf/eJoTJ8ShosZtXjhj+dQVNLkSHWWIQEScEECBvFkmrYoFMsei9ORTG/8NgsFGY0uOBJ2mQRIgARIgARIgARIgARciwAFJteaL/b2cwTcTWDyFGEpwTsIj0ZNxuygBBjlv6aP1hRgffFJZDRVOpRC6HMI+ZYESIAESIAEnJbAQ5ET8HTcDPibvfCH3H3YXH7B4ejc0GBPPPloMpYuikFDQztefOkCTpy2ob2D/ixOO+HsGAkMkMCs5WFY+oU4dMi/87d+LyJTehO6JHUeNxIgARIgARIgARIgARIggaEhQIFpaLiy1WEi4C4Ck7es5A4yW3F/5HgsCkmBl9GMjMYKfFx+EUdrC9HUSX+JYfrI8TYkQAIkQALDTGBZ6Gh8NWE2fE2eeKvkJDaWnkOdROs6snl5GvHgvfF45P4kmCV93stvZGLHnhI0NnU4Up1lSIAEXJDAnBXhWPJILJrq27H51XzkXmhAZwdFJhecSnaZBEiABEiABEiABEjABQhQYHKBSWIXb05gpAtMVhGSlBfFPPFZWhiSjAg5zpJIpd2SJuhgTR4q2pj64+afDl4hARIgARIYKQRmBsZrkSnc0w+fyuKKjWXnUGZvcDhyd/miaDzxaAoCAyzY8FE+PtpaiCobfZlGyueD4yCBzxOYdU8YFjwQjca6dmx/uwi55xvQ0U6R6fOc+J4ESIAESIAESIAESIAEBkqAAtNACbL+HSUwUgUms8GIaBGTZkkaPJUKL9UnFHktNdhblY2jYnSe21x9R7nz5iRAAiRAAiQwnATEVgkT/aPxxZjpSPYJlvSwhVpkymquQsdlx1LezZoeiscfTkFctA927S/Fpi2FKCxuQmcnHzoP51zyXiQwHASUF9uMZWGYtzoKDTV27N5QoiOZKDINB33egwRIgARIgARIgARIwJ0IUGByp9kegWMdaQKTeoAWYvHRopKKWhrrF4EqezP2VeXgcG0+LjWWg4/BRuAHmUMiARIgARLol4DRw4Ak72A8FDkRM4Likdtkw9slp3G6vtghkclo9EDaKH88tDoRE8cF41JGrY5mOnepVvu19NsBFiABEnApAmaLAVMXhmCuiEz11UpkKkbexUamy3OpWWRnSYAESIAESIAESIAEnJ0ABSZnnyH2r08CI0lgMsmDs/kiKi0OHYVxfpHolBXZ+6tzsdeWi0xJi9dMn6U+Pwu8SAIkQAIkMPIJGCQsIdzih9URY3FPeBoa2lvxauFR7KnOcWjwRoMHoiOtWLk0FncvjEZtXRveeC8H+w5VoKuLSzgcgshCJOBCBDytBkyeH6IjmZTItO2tIhRmNPHfuwvNIbtKAiRAAiRAAiRAAiTg3AQoMDn3/LB3/RAYKQLTFEn7s0oelE2XFdlmD6Ok/snHJxXpSG+qQJMIS12X+dCrn48CL5MACZAACbgJARXt62P0xL0iMj0eM1UWZFzG3/MP4ePKSw4RUKmzfH3MuGdJNL7wUDLU+9fezMaHnxY4VJ+FSIAEXIuAxcuA6YtDMe++KNTZ7PjwH/koy212rUGwtyRAAiRAAiRAAiRAAiTgpAQoMDnpxLBbjhFwdYEpwRqE++QB2dKwMfAze+FSQxneLD6FI7UF6OjqQhcT4jn2QWApEiABEiABtyOgIn/vkd/P55Pm6cUZ/yg4jPUlpxzmYJKUeYvnR+FbXxkLq9WEN9/Lxj/eyHK4PguSAAm4DgGVInP2qnAsfEAiF6vasP432aipbHOdAbCnJEACJEACJEACJEACJOCkBCgwOenEsFuOEXBFgUl5SISYvSUVXgruj5yACE8/lLXW493Ss2JYftaxgbMUCZAACZAACZCAJqDSy/7fo5fr4/dLz2Bd8Qk0d9gdXqIxfXII/tf3JsHPz4ztu0rw6puZqJJUWpcZPcxPGAmMKAIeEq64eE2UjmSqrmjDm7/NRHV5m/xbH1HD5GBIgARIgARIgARIgARIYFgJUGAaVty82WATcCWBySj/URts9sHUgBjtHZHqEwabvRl7bNnYIMJSpb1psPGwPRIgARIgARJwCwKT/KPwvaQFCPX0xe6qbFm0cRrFsnhD+Rk6siUn+OFrT49B2ugAnLtQg/Xv5yAjux7t7Y7Vd+QeLEMCJHDnCRjEh23Jw1GYuzoKpblN2PRKPioKW+nJdOenhj0gARIgARIgARIgARJwUQIUmFx04tjtbgKuIjCFWnygBKUV4WMwRQSmejElP1lXjC2V6choqkR7VyenlARIgARIgARIYAAERsvv7Bfj7sI43wicrS/BOxLNlNEov7GXHfuNDQv1Ek+mJCyaG4nS8ha8tSEHx0/Z0NrmWP0BdJ1VSYAEhpGA0dQdyTRjaQRKRGTa/nYRSvNaKDIN4xzwViRAAiRAAiRAAiRAAiOHAAWmkTOXbjkSZxeYAs1WjPIOlXR4ozAzKB4dspL6TF0JdlVl4XxjGRo6mPvdLT+4HDQJkAAJkMCgE/CAB2K9ArAmaiIWhCSjsKVG+xqekAUdjopMfr5mPLAqDquXx6OpuQPvfpiLXfvL0NpKkWnQJ4wNksAdJGAyGbDgwUhMXxKmRabdG0okooki0x2cEt6aBEiABEiABEiABEjARQlQYHLRiWO3uwk4q8DkbbRgjKykni8PuKYHxsLP6Ikz9aXYXpWBS40VqGI6PH6ESYAESIAESGBICKio4fsixkk62vGolt/b9cUnscuW5bAnkxKZlsyPxJr7EqEeQm/6NB8fbytGfUP7kPSXjZIACdwZAlYfI2atCMf0xeEiMjVCi0z5rbjcRVOmOzMjvCsJkAAJkAAJkAAJkIArEqDA5Iqzxj5fJeBsApPRw4Bk72AdsTQ7KBEhFm+dnuejsgu41FSBsraGq33nAQmQAAmQAAmQwNAQUBHE94SNxtqYqWjrbJdIppP4sPyCwzfzthpx19RQPPpAEiLDrTh4tEJ8mXJRWtbscBssSAIk4PwEfANMmLEsTItMRTmN2P5WMapKRGSixuT8k8cekgAJkAAJkAAJkAAJOAUBCkxOMQ3sxO0ScCaBST3MWhk2FsvCRiFSUvSUt9VjY+k5HKstQrm9wWGj8dtlwXokQAIkQAIkQAKfEVDRxAslkvibifMkeuky3is5I75Mp9EigpMjm9ksi0YSfPHFtaMwdVII0rPq8NdX03Exs86R6ixDAiTgAgQ8PAAfEZlmr4jAtEVhKMpuwuZ/5KPOZneB3rOLJEACJEACJEACJEACJHDnCVBguvNzwB4MgIAzCExmgxFLQlLxSNQEJHiHoLnTjk3l57GlMgNlrfXad2kAQ2RVEiABEiABEiCB2yRgksjiaQEx+LdRd8MqgtO2ikt4teg4qtsdi0TykKfPPt5GfPPZNKxYGouikib88W8XcfRk1W32iNVIgASckYCPnwkLH4zCtMVhyM9oxJu/y0Z7G73XnHGu2CcSIAESIAESIAESIAHnIkCBybnmg725RQLDLTAtmDsPixctxrbt23DkyBFM8o/Go9GT5eFVLNQKyJ2VWXi35DQym/ng6RanksVJgARIgARIYMgIJFiD8b9GLUaSTygOVefhH4VHUNhSpyObHL3ps0+k4olHklFpa8VfX0vH3oPl6OxkHi1H+bEcCTg7AauPCcsfj8HUhWHIu1iPN36TBXtbl7N3m/0jARIgARIgARIgARIggTtKgALTHcXPmw+UwHAKTMo0/OdzHsW0yCQcKkxHaXkZZgXFwyQRTOfrS7W3w+Ga/IEOifVJgARIgARIgASGgECEpx++ljBH/3ZfaCjDq4XHkN5Y4XCkscnkgfvuicNTkjKvzd6J9zflYfueUtTV2+nXMgTzxSZJ4E4Q8JZIpnueiMXk+aHIOFmLD1/OR2OtY2k170R/eU8SIAESIAESIAESIAESuNMEKDDd6Rng/QdEYDgFpv8cuxqPxM650t8ulLRU4bCsgt5ZlYnt8mrr6hjQWFiZBEiABEiABEhgaAkEm73xxdjpuDssFfnNNXit8DhO1ReLyORYKixPiwFzZoTj4fsTERbihV37S/HR1iKdOu8yg5mGdvLYOgkMEwEffxXJFIvxM4ORfrIG294qQm0lRaZhws/bkAAJkAAJkAAJkAAJuBgBCkwuNmHsbm8CwykwbZvzPBJ9Y6524KOyM3ghexsKWmrQxadKV7nwgARIgARIgAScmYCKSH4gYjzujRiHKnsT1okn076aXId/y81mA8aNCcBD9yZi4rhgnDlvw5sbcpCeWe/Mw2bfSIAEboGAr78Zd6+Nxti7gpFxqgZ7NpbCVtZ2Cy2wKAmQAAmQAAmQAAmQAAm4BwEKTO4xzyN2lMMpMP1YDMK/mrREWHqgqq0ev8nahndKT6HzMnOzj9gPGAdGAiRAAiQwIgkEma24JywNa6Im6gjkt0pOYUdVFlo67Q6N10OMFxPifLBmdQLuXhiNzJx6rHsnG8dO0oPRIYAsRAIuQCAg1IKF90dqkSldRKa9H5Siutyx7wgXGB67SAIkQAIkQAIkQAIkQAKDQoAC06BgZCN3isBwCkyR4t3wjZmrMT1xDLZdOo51p3fqlc93auy8LwmQAAmQAAmQwO0T8DV5Yn5wEh6PngofOf6k4iI2lJ2Fzd7scKMRYV64b0UcHn0wGcUlTXhLIpl27S+D3c7FJw5DZEEScFICoiMjKNwT81ZHdItM4sm0671i1NmYLs9Jp4zdIgESIAESIAESIAESuAMEKDDdAei85eARGE6BSa1WXjR3PpYuWIRPdmzD/iOHBm8gbIkESIAESIAESGDYCXgaTBjvG4mvJsxCrDUQ+225eL34OIpa6xzui5+vGUsWROHpL4xCm71TPJkKsVl8mWrrGOngMEQWJAEnJeBhAIJFZFpwfxTS7grCxWM12Lq+EM0Njvm2Oemw2C0SIAESIAESIAESIAESGDQCFJgGDSUbuhMEhltgmjt3LpYsWYKtW7fi8OHDd2LIvCcJkAAJkAAJkMAgEjDIApIwiy9+kLwIUwJicKquCH/JP4TsZpvDd1G+TJPHBeEbXx6LsBAviWIqxfr3clBW0eJwGyxIAiTgnAR6IpnuXhuDsdOCcO6wDR/8NR+dnZeds8PsFQmQAAmQAAmQAAmQAAkMIwEKTMMIm7cafAIUmAafKVskARIgARIgAXckYDWY8YOURVgSlorz9WX4Y95+ZDRWwNFHyJJNC3ExPvju18dhysQQHDpWgb+8cglFJc247Ggj7gieYyYBFyEQFG7BvU8nYPSUQJzaV4WNf8lDVxf/cbvI9LGbJEACJEACJEACJEACQ0SAAtMQgWWzw0OAAtPwcOZdSIAESIAESMAdCASarfhS7F1YGZ6GXIlgekkimc43lKHjsuOeSlGRVnz5ydGYNysC5y/V4G+vpSMrt4HRDu7wAeIYRzyB4AhPrH42HqmTAnF8ZyW2vFGIliamyxvxE88BkgAJkAAJkAAJkAAJ3JQABaabouEFVyBAgckVZol9JAESIAESIAHXIRBk9sbDUROxKmIsqu3NeLXwKI7VFqG1q93hQUSGW7H2wSQsnh+F8opmvLI+C6fPV6O1lQ+iHYbIgiTgpARCo7xw7zNxSEwLwIndFdi9oRQNNY5/PzjpsNgtEiABEiABEiABEiABErgtAn0JTP8/AAAA//++DGzgAABAAElEQVTsvQd4VFearvtJlatUKuUcEBkDxhiDMcnGARvnduhgu3P37TvxmdNz7rnnnnun55k788x9ZqanZ6ZP95zu6ehu2+00OAdsgsEBkwwYbJIRQrmUpVLlknS/f5UkEBIGbEJJ+ref5bX2rl271n53AWvVt/7vTwMwwKKbEkhZAhkZGbDZbJekf2lpaVi2bBlWr16NN998E9u3b78kn6sfogSUgBJQAkpACVxaAj6rC2vyZ+KOoitgQRrWNe7Hpo6j6I5HzrkjuTkO3Lq6BLfeVI70NOD5V09g8zvN6OiMnvM19EQloARSk0BukQO3PVKBylle7H27Fe++2ozutnhqdlZ7pQSUgBJQAkpACSgBJaAELiKBvr4+BAIBDAyMlpI4FVaB6SKy10tfAAIqMF0AiHoJJaAElIASUAJKYBQBj8WOpdmVuL/4ShQ6MvFm62E833wAzdGeUeee6UCGx4oli/LxwF1VKClyY9PbjVj3cg3qG0NneoseVwJKYJwQKChz4aYHSygyZWLfu214T0SmdhWZxsnj024qASWgBJSAElACSkAJXCACKjBdIJB6mctDQAWmy8NdP1UJKAEloASUwGQgYE+3YJanAN+oWIzZ3iK831GDx+p34Xio45xv32pNx8xpXnz9yzMw/4ocvLfDj6eer8bRY4FzvoaeqASUQOoRoLkBCitcWH0fRabZmdi7VSKZ/Ah0qsiUek9Le6QElIASUAJKQAkoASVwsQiowHSxyOp1LwkBFZguCWb9ECWgBJSAElACk5ZAGi3ySpyZ+G7lUlyXMwW7u+rxaO1OHA62nBeTshI3vvrF6Vi1rAj7PurAE88ew4GDXejvH20jcF4X1pOVgBK4bATS6X9ZVEmR6f5kJNPuzS3Y+mITwr19l61P+sFKQAkoASWgBJTApxOQRSKVszOw/I4i9CX6se01P04cDn76m/RVJaAEzkhABaYzotEXxgMBFZjGw1PSPioBJaAElIASGP8Esm1ufKviWtxWMAsfBZrxi5r38VFv83ndWB7zMj1wdxVuv6UMjc0hPE6RafvuVsRi/ed1HT1ZCSiB1CGQJiITI5lue7gcFTO92Pa6HxufqecPVioep85T0p4oASWgBJSAEjhJwOFKx//960WomJHBnDHA/vfa8eS/HkXj8fDJk7SlBJTAORNQgemcUemJqUhABaZUfCraJyWgBJSAElACE5OA1+rAI6WL8EDJAlSH2vHvNe/iw54m9A2cu0DkcVux9uYyfOneKsgP07978hO8vqleRaaJ+ZXRu5pEBCSS6d7vTkEZLTG3PN+IN5+u14zGk+j5660qASWgBJTA+CEw/cpM/M1ji4c7LItCmk+E0NYUQU9XDIGOOHo6WdP2Nlli3OcxHo8EExSlRi8iMUdGHx7+DG0ogYlMQAWmifx0J8G9qcA0CR6y3qISUAJKQAkogRQikGl14q7CubineB4ifTH8tm4XtnXWINx37nlX7PZ0rFpaiC/fNw2lJR48++JxPPVcNXo5YdVNCSiB8UugdKoH91BkKpniwVvPN2DrC02IRc5dgB6/d649VwJKQAkoASUwPgg4PRasuqcEX/0/ZiDdkka7aqCrNYKm4yHEov3mmFjgykKw9HSwDLZ57tB+KBhHb3cCwW7WXQn09sSTbdnvjpnXwr0JY78n1xdLbFmP1t83YD5vgPtyTF6T9hh61fiAqb1UAoMEVGDSr8K4JqAC07h+fNp5JaAElIASUALjkoDHYsfq3On4Qsl8eCk4/WfjPrzecgjdich53c81V+XiEeZlumJWNt58qwGPPfMJmv1hnWSeF0U9WQmkFoGy6R7c/e0pKCxz4+2XGvEe8zqEAioep9ZT0t4oASWgBJTAZCNgsaYhu8BuxKWrV+UjTJHIYktjRFIf3n6xEbvfajdI3BlWuL02uDMscHnZNvtDtcXs2xwWyPWstnTWUtiWmtcbbvNYIt5vxgAhik0yFkiW+IhjkVCCwlafsdZNxAdM3cc6wagqyQ+VrJPHRaDSTQmkIgEVmFLxqWifzpmACkznjEpPVAJKQAkoASWgBC4gAXu6BUt8lfhi6VWY5snDq/6PsK5pP5qiPef1KVfMysLDD07DogV52LmnFU+uq8bR6h61zDsvinqyEkgtAmXTPLjj65XIL3UyJ1Mztr/ZyhXO5x7lmFp3o71RAkpACSgBJTC+CbgYtTR1nhfXrikyUcbVH3Vj64tNxhIvPS0NIgCdzyaiklxToqGc7mQx+9IeOuaxwkEhykrnApsjHXa7xdRmf/CYTWoeF0/daKgPYRax4AuziPAl4lN4sI6G+xgVzUIxKhEbMHOFeHQAceZyjTPySmoRtOJ8LaH5Xc/nceq5F4CACkwXAKJe4vIRUIHp8rHXT1YCSkAJKAEloASAK73FeKR8ERb6yrGx7Qiebthr8jOdD5vyUg/uu7MSK5YWobE5hBdfO4Htu/mDtFrmnQ9GPVcJpBSBckYyrflKOQrKXNi+wY+db7YgQBsd3ZSAElACSkAJKIFLRyAzx4aFq/Kw8Pp886G7N/ux9+0Ok1vpYvdCbPYcTopLLoupHU4L2+kjj/E1EZrsfE1ed7isg+cM7fM95ngyWkqEpBjFpijFJhGdorTijYYZBcV6SICSWl6XY+accPK16FAtwpQRq/qNbd/F5qDXn/gEVGCa+M94Qt+hCkwT+vHqzSkBJaAElIASGBcEprpz8XDZIizPqcKOrlr8of4DHOz1n1ffs7McuGlVMe66tYJrGAfw2oZ6rN/UgC76uOumBJTA+COQxrwNFTMycOODZbTLo8j0ph87KDIFe1RkGn9PU3usBJSAElAC442AiDv5JQ5ce0sB5i3NRbs/gvdeacbB3V3Ghi6V7odBVMZuz0Q0MdpJIp5s9jQjPCXbyX2x5BOxysXoKClOt9QSQcX2YORU8rjFWOsNRzeZCKe+4UinOCOdEnIsnhSpJFrKRE2F+k3klLRFmIowokpEqQjbGhWVSt+Y1OuLCkyp90y0R+dBQAWm84ClpyoBJaAElIASUAIXjUCRw4svlSzEzQUzcaS31YhMe3sakJCMvue4ubli8eoFOfjqF2cgN8eBNzY34JkXjqOzS0Wmc0SopymBlCIgycMrZnpw0wNlKCh3Mx9TE7avbzE/2KRUR7UzSkAJKAEloAQmEIF0ikvT5mdi2e2FKJ2ageqPu4241FAdGhaXHLSmmzktEwnmNTp+IoAIrefGwyZjC6vJ9ZTOvE/M+cS2qU9rS54oj+SSypT8UZJTSnJLSUnml5J9J4uF10vmfhKLvcG8T1L39SfzQTEPVB/zQcUYJRXs7TN2giEuljH5pGgtKOJUSCz9+JrY+Unk1EC/5ooaD9+lC9lHFZguJE291iUnoALTJUeuH6gElIASUAJKQAmcgUCOzY07C6/APcXz0BEL4Yn63Xi3swax/nOfsMoEcf6cbHzr4ZmYOiUTb73bhJ/95hACvZq/5QzY9bASSGkCQyKT2OUVUmR6a10DhSb/8A9cKd157ZwSUAJKQAkogXFIYAmjlm68vxRgZNDOjbSp3dBqbGqHhA87Len+r/+yAA/eU2WElKeYA/Vnvz2Mjs7oOLzbsbssUVEitKVRQEpnVLW0Tc19ibIe2rcwKioj04aMLCl2ZPhYc9/js7KcbNsZVTXAKU0/xaN+rp8zNcU5YSr7yVpyQ1FwogDV2x03JdhNYaonjmBARCm+FhhqJ9Seb+xHNy6PqsA0Lh+bdnqIgApMQyS0VgJKQAkoASWgBFKBgMtiwy35M41lnjXNgt/UbsfrLYcZyXTuIpPcx/SqTHzvG7OxYF4O9n/UgX/8yX74W8KpcIvaByWgBD4DgSlzvLjzG5UoqnDj5UdP4P3Xz89G8zN8pL5FCSgBJaAElMCkIiAWcrd8pQzL1hYZUWP947XMt9SOgdMCaqZN8WLbm3dDRBjZuugW8PTz1di2owUn6gM4URdCT2DyOQgM8UhSGfz/ICOLJZ0RUVZk5tqQmW1HZg7FKIpS3uzkvpfHvNwXyz6xJ6Tj9/A23Bxu8GW6PPR0xU0urECn1DH0cr9XBCmKUwERpQbbEhWlW2oTUIEptZ+P9u4sBFRgOgsgfVkJKAEloASUgBK45ASs6RaszJ6Kr5Zfg1KnF7+v34X/bNqPcN/5RSGVFrnxyBenYdXyYuTnOpCf4+SEtxf/8vMDePWNBsRpWaGbElAC44fA1HkUmb5eiYIyN16hyLRzU6vmNBg/j097qgSUgBJQAilKwEIHgOJKN264vwTT5/nQ2RbFC7+oQc3BwKgeOxi9dPdtFfjpD5clhRCeEaH92/ETvQixFss4ie5JcJzd0BRCfWMwWZqkDnHBV8jkNxLbuITYyDGKR2z2pJaoHt1g8kNlZFlNRJSITt6haCiJiBpqM0pKhCgTZTUYUTV6X4LQ0mgtPBgRZQSoZASU5LSUaCgTETVo2SfnJfhcxKFcnoXUA1QXkxFWp7b1OV3o76kKTBeaqF7vkhJQgemS4tYPUwJKQAkoASWgBM6DwNKsSiMyzfIW4PmmA3iy4QO0xYLncQXAl2nH//vfF+KhB6cbmw95s0Q0/ejf9+Pw0W7jFx9hkt4ofePFOz4WU9HpvADryUrgEhOYfmUmbv9aJXKLnFj/RC0+eKtNczJd4megH6cElIASUAITh4DTbcGshT6svLvERNQc2duFDU82oIcRMadv2bSAW7O6FF/+wlRMo1uAWFOLOLRrTyu272qFgzZwhQVueJmzyMEcRpKnKVmnw8l9sdZLY5hPd08Uzf4Imik2NdNhoNkfhr81jN5gjGPywXE5x+QyPpf9eLwf/aeHUZ3euUm4byNPD3NESXGLLZ/JEcX9wVpyRrmYJ8pqTTe5piysk/mmTtaSg0oERrEk7iPzpBUfo6BoyRdmjqgw80MlC3NE0XJcjoVY4jxXREIp/SIQSnuw7k/AWCf2sRaBSrezE1CB6eyM9IwUJqACUwo/HO2aElACSkAJKAElgCszi/H18iVY4CvBhpYj+ANFptpwF10jzn2y8r2vz8bf/j+Lhm08gpwonagNoImT2db2CFrbWNrDaGnj5JbHerl6LxikxQTPkxLkvq6o1C+jEkgdAiIyrX2kwtjLvPV8gxGZwkyOrZsSUAJKQAkoASVwbgQk8iUzx4b512Xj2jVFRiCQfEvbXmsxQsGpV5GopLISN+5ZW4nb15SjtTWCbdtb4O1zIBCK49VttahpPBntZKOQkZfjQC4dBHLpIGDa3M/2OeBxUwxxUwwxNcUQ1lJsNguFpD500m6vTcbnLG0dLKzFbk/G5sFQnxmXD43Pw4yYilF80u3TCYh4JNZ7IjYN1W7uOzN4zGOFU9rmGVB4ok2ijUKhiFc2ioKmNu3BY3xdxL4In0UkSNGJc6VImEIg96N8Hua4tDl/koioMNsJilHxGCPV+KwScdbcl1qEw8TgcRGoJvOmAtNkfvoT4N5VYJoAD1FvQQkoASWgBJTABCcwzZOHr5YtwtW+MuzracQzDXtxMNiCeP+5/aA8e4YP//b/LcXC+bno6olh09ZGfHy4C5leGyOcHPD57MhiyeRqS4lg6uyOmsltZ5fUUbS0hsy+vLeLnuZSd3fHTMTTBEevt6cEUpbAtPlerPmyiEw2vPNKE/a81W5W1KZsh7VjSkAJKAEloARShICIS2XTPVi0Og/Tr8xCB6OJtr/hx+EPuk1kyqnddLmsmD8nC3fdWoFFV+XhaHUPnn/pBDKr83Bj/mz0UWzY1HoIm9uOINg3Ourp1GtJ20NBI4sOAzL29jHqRmrZz+A4PNPL8TiLj2P0TB6TdgbPF4ErRLGii+NvKTJWl1qEp14KTz3MN9TNdjfrLpaAOa4LxE5nf7Z9+V6IuOR0MfKMkW0OVzrLybY57pRoqHRGo8nrjEqT153JttRmn++zsy1iVVTEJ5YY80AlS7+pJTJt6Ji8HmJ0VCxCIcoc52sSuSbtU0qc14hTmBqYgFaKKjCd7dupr6c0ARWYUvrxaOeUgBJQAkpACSiBQQLFzkzcWzgPN+TPQEO4G881fYidXXWI9J9bXqbFV+Vi9kwfApy87PmwA35GLYl9R7JYTZ3NCW4BbT1klWUeV1smV1w6uaIynaslOVnle4eKCE8S+dQuKys7omZ1pdQy2dVNCSiBi09AEmlPn5+Jmx4sg5ci07sUmT7Y0m5W0178T9dPUAJKQAkoASUwfgnMvTYby+8oRna+A4d2d2Dnxhb46yImiunUu5LFWDeuLMbam8tRygimbTtasO7lGnSdGMCTi7+NUleuOf1YbxMer9uOA4FmdMa5MCseRhfL+Wxi3eZxMccQo2xEVJLi8SQjnURoys12ICfbycKaVn3ZbMs5YtEn0U0yRhexKUD7NtkPhUV4iqGdVn8yXm/vjKKDbRmrS64o3T4fARGP7BLpRMFJatM+pRahykr7PZlHOTnnkkgpF0UrJ2uxZZRoKqklcsrOa0gEkwhKYr2XjHhKtk/uU1zi62GJimLUVDJiijaKRsAaqpNiViSc3Bfrvs+yScTXUP6pz/L+z/IeFZg+CzV9T8oQUIEpZR6FdkQJKAEloASUgBI4C4Ecmxs3583A3cXzEGX00rrGfdjU/gnCfecmMp3l8iZJrour7VxciWdqZ9Kyo6DAhWIKT4Wsi6Tku5DFiS3zEpukxiGupotE6EfOyWqr2Oy1RNBEP3m/eMobb/mISXR8ts/X15WAEjg/ApIzYOpcrxGZMnPs2PJ8I/ZsbTMrYM/vSnq2ElACSkAJKIGJT0AiThbfnI9rbyk0P+q/J4sztrYj0Dl6LC3RRV+8dypuuaHEgHl5fS3efKvR5Exa7KvEE4u/OwysfyCOY73NaIkGzOKvCJPvRDg+70nQ6i4aRGsswBJES6yX5/Set/gkIoWMzZ1SaNtm2lLzfvJzXSjg2Dw/z4nCPLZZ53NfonHEci9sxulSs08mpxOjZShStHChmOR9kvG6tGWhWCdFqHhCLfeGH+wFaMhzsNpZ+AxN/ieKTqZt6mT+p+TxdLgpaEreKM9gLfsn80nZjCAlC4zEXq+Pz0lEqcRgbXJASVss+Fgbe77BHFJJKz+x8xu09ePzH7b3C0qUVNIVI8NnNX8+rlqZh56OGF57rA6N1aELQOHsl1CB6eyM9IwUJqACUwo/HO2aElACSkAJKAElMIIA5xNwWexYlj0FXy2/Bj6rA0827MFzzQcoOF28lYiSGNcmK/BMzRV6nCBJtFNZiYerOT2mLiv2oLjYbSa94icuk1NTs93N1ZNNzSHUNwZR3zRYs90TGD2ZH3HDuqMElMBZCYjING2eF7d8uRzebDveeLIO+95uH7UK+6wX0hOUgBJQAkpACUxgAvmlTqy6pxhzrskxuXJeefQEPvmwZ8xFGeUc337joRm4dlE+o/Sj+N1TR7FtZ4sRaKoYtfSnVSu44GsBkGY3xPZ31+KNlo/YHoC4DhTZvShweuHhuD3OUJDEAPPw9HNszLZYXPexbqfg1BTpZmFe1GiPKc0UqCTySXL8nMsmYoMZp3OMLiKFCFE21nLMR4s9GaeXFHKhWKEbJUXJItZ7MqeIS8TM4HhdBImhIvfbyHF7Q1PQ1M2yaIwCVIDjds3Jei5P5bOdI89SxCiJHkqWk/sWC9s8npaefN5uiXLjYr8MHwUoFqkzsnhsqM1abBX5lTN2evLcxFnd1GyLxZ5EN8nriRjzetFWMRjoQ2auDVcuy6X9soN5yPrxwaZW/M//dgDn+HX8bDc++C4VmD4XPn3z5SagAtPlfgL6+UpACSgBJaAElMD5EkjntHBpdiW+N2UZSpw+ikwf4Fe128/3Mp/7/HTOhGQylCzJFXhTyr2YUpGByvIMTGGpZFvs9uQcmSrLBGWA/5OVcjJhPVHbi5o6KQHU1AbNZPZzd0wvoAQmGQH58zVzoQ+3PVIBHyOZnvv5cezf1jHJKOjtKgEloASUgBIYm8CUOV7c+Y0KFJZ7UHOoB8/8pJpRS7ExfzhftCAXf/bdK4w4c/xEAD/55cc48HGXEX0WZZXj+1NXId/hxa6uWvQmoojxl/sXmz/CsVAbP5xj48EuSMtpsaKMY/VSljKX1Nmss1hnwsOFYvyp34yPpSNmnCz7bDRHelAX6UQ9bbHrwl2oj3ShkcfEek/EqXPZpB9pZpA+NFZP7osQVc6FYRVlGSgv5UIxFmkXU4CSyKihsfqImtcS272GxhBO1PeilkUWjjX6w2hlFJRESel2CQnw4ZrvmamTO0P70gt57LJ5GIXnzWY+L44NTWFbFiMNtTPZllxT5svH92Ty9dxiZ/LN/H+gK44/un7rmH9Ohk+6QA0VmC4QSL3M5SGgAtPl4a6fqgSUgBJQAkpACXx+Alf7yvBHU5ZjqicHr/k/xr/XbKNdHifLn//SF/QK+blOTlw9nMRyIsu6ghNZWUkpSY4tFibK5Qo7C1fsSS3RTnX1QdQ2sMgEtoGFApRMXPu40m64yMo7Ft2UgBI4SWDukiyseajC/Jjwn/9ezbwSXRrJdBKPtpSAElACSmASEZAf2SUvzuxFWVj9QBl/PLdj5yY/1j9eb6I3Tkch1nO33VyG//0bs814c9eeVvz80cMmiseebsHq3On47pTr4Ey34Sku7vp9/e7TL3Fe+y6LDSWOTLNYrISCkykOH0pcmRSm7LDwBiwMWUlnsVBOkLbIUG202Gug2GREJwpQjRIFxcin7jgtqRkp1UdlqA/9RhATMaqf7znXiCjJOSXRW0mXAjfEoaCEDgW5jGg5dcwu0TRmn+N3GY9LjicRnOpYGlhM1BMts9s7mddqaPzO86Q9HEWjw/jz+r5czJMdLubjZQTUVatycM93piIr326im3YxN9lPNILpYqLXa08UAiowTZQnqfehBJSAElACSmByErgioxB/VHkdZmYW4t3243i0bicnnd2cYJ7b6sbLRU1WSMpKyRIKTcVFruE6l9FODk7wHfbBwnaCFg2trREzwRfLjka/RDqFzGQ2ymS3UVo7DNUxJsbVTQlMZgLzrsvGmi+Vw0UP/5d/XYOPd3aZhNGTmYneuxJQAkpACUwuAiIu5RQ6sPD6PEg+GbEDe/eVZnywpQ1xjh1P3awUSyR/0d23VeDOWytMrqJX3qzD489Um/dlWpxYkz8LD5QuMOPr39buwButh0+9xAVvi/hUxCipArHac2SYUmhs9zKMwOVIt0JEr2RJtqUTXTHmP6Xdnp95n/ysJSdUWyxE8Sls7LRjFKAk4kqsteNsi13fucwZxHIvlwKdjN1NPlbmZi0qYK4n5nxyUZwQcc5hp422Gb8na7Hri4pjAaOcmvwh5mcNmVxP7e2S7ymC3mDCOBpEOXaX8XuMttpSxJpNoqd0u/QE3BnMUXZTPq5h6WyN4qVf16K1IXJJOqIRTJcE8+T4EIfDgVmzZiVDOE+75fr6erS3t5ujHg/V9LIyJrc7GbZ36umRCH+AaGykP2jg1MNjtlVgGhOLHlQCSkAJKAEloATGEYFKV7bJyXS1rxxHe1vxdOMeHAg0X9S8TBcLTx6jnQryHCZhsUz2JVGxJC6WFZUetxQmvmXkk91mQTAUNxPVVvrCt7RJgmJOYClABZm4NshJq6mlzSIrJnVTApOFwLyl2SYnk+Rn2vBUPQ7u7EQ0MvIHtcnCQu9TCSgBJaAEJh+BipkeLLujGFOvyETd0QC2vd6MmoO9SMRHjgdFGJk7Owt3UVxatCDPLGZ65oVqbNjSZCKGKmhnd0fBFViRW0Xbul48Xr8Lu3sYAXUZFRDJ65RjZ1SRjcXuGa59Nhdt9+wm75PkbHVTpJIibYmG6mGEUxvzPknuJ6k74iF0UpDqSUTogBBHiC4Iof5kHelLmGMiQp1tk0VhBfkUmziGz8t1sLBmxJPkgHI6ZdzO/EAcv7spRLkHa3Et6OqKobWdFnsUnNo7oujsZumKoqs7ht5e5gQKJxAK9SESYV/oZBBhSeh4/myPY9y+rgLTuH10qdfxkpIS/OIXv2CYJf0fT9t+/OMf49VXXzVH582bhz/5kz9BVVXVaWcld6urq/Gzn/0MH3744Zivn3pQBaZTaWhbCSgBJaAElIASGK8E8jjBvLdoPm7Kn2Emjs817ce2zhNmsjhe72mo3zIhzWYi25wsB7K5ejKHbYl0kgmsTF59mQ5k0WNckhbL1tkZRQcnrR2cpHbSmqOF3vDS7mYC22SJGSs+9YsfIqz1RCQgdnk3PVhuEkJvfaGRkUwUmcIqMk3EZ633pASUgBJQAkkCTpcFU+d7seLOEhSUurDv3TZsf9OPlrrRURhunrvyukLcs7bSRObs/6gT//lyDfZ/3Gly0lzpLcF9xVdiZkY+dnfVYV3Th6gJdxgLulTlLYKSCE0+qwtZVo6TTdsJL/M9ZbBk2pzIZC37Xra9FgejoKwIUGTqogDVlQizpujEdiAeNccDzDMlIlSgL1kHKUQFE7FzWsgmC8SyOX6XsXuWFB8Lx+sS9ZTpTbZl/J6ZwXE89118JnFGMXXRMntIbAoE4ugJJMfuIj51s93DYxIB1cu8UFJHwjQFvIyiX6p+H8ZTv1RgGk9PK8X7OnXqVGzduhU7duzAli1bRvR248aNOHDggDkmQtTq1auRl5c34hyJbPrOd76D3bt34/vf/z7q6upGvD7WjgpMY1HRY0pACSgBJaAElMB4JJDJieTq3Bm4r2S+6f5znAi/2XoEMhGcaJvYmWTIZJTFy8mrTGC9bItth4hPpmQ7aOfhMCsnZfVjD1dDyoQ0wIlpJyeorYx4khWT7RSkTM22CFG6KYGJQEDsga5YzLwT95eZZM9vvyQiUxdiGsk0ER6v3oMSUAJKQAmcRkAs8a6mJd6CFXlmccX29c3Y914Hetrjp50Js3Bp7U1lWHtLOaPi07F+Uz1LA63cwiZH0MqcqfhK2dXIt2dgfcshvNT8Efyxs7skjfqgFDnAIQHEVk9EJiM2MarJw3YGBSaJiJJjEhWVLYWiVNZgkddEYOqVQoGpl8KSzCtCrEWA6kwwCoqClERDiQ2f5IHq6YsgygiokbFiI0GI5Z6M2zNp5yt1BqOcvBlWuBjxJELT0EKyoQVmIkyJ5V6YQlKgl5/dKw4FjHIyTgUc31OQapNxPMf0QyJUdzcXlnHcH6OVtm6pT0AFptR/RuOmhyIwiZAkUUw//OEPR/Q7kUjwL/nkirs0zpasVusoK73rrrvOvPfXv/41/umf/olWKGf/S0QFphGYdUcJKAEloASUgBIY5wRcTDy8PKcKD3FSLJPIFxjJtI4lTMuLybCJ1YmsfpSoJ1Mz11MOBadCCk9FtNoTuz2pJfpJJrchsd9gCQ/WbbTp8DPiyc/ExM2mZpu15naaDN+eiXePYpE3+2rfsMj01nMNOLibOdo0V9nEe9h6R0pACSiBSUygbJoHq+6hJd48H6OVQnjzyVo0HOf4bYxFFVMrvfjSvVVYvCjfCBRPP1eNLe81m0VItrR03F54BR4sucrYyz1evxsb246aqJ6JilfEJxvzOUneJ5lHOKVYmFeJtRyTKKhC5oHKp1tCHgW3PAdrm8fY8cn8YshOLzLYlvxOPRSbxIavddCOT2z5RIjqpBAVNuLTmeUnyeMk0WVmLM9xvORtdTrTaa9no/Wek4vJ3MaSr4D5n8ROW6KjEvz5NyxWehzPR5j3SXI/SS22ekkb7QgXlkXMQjIRoTo6YxSioprrKYW+1CowpdDDGO9dGRKYxN7uH/7hH877dn70ox9h5cqV+PM//3Ns27btnN6vAtM5YdKTlIASUAJKQAkogXFEQBL+LmY+pm9WXsukwF686v8YP69571NXEo6j2zvvrlrS08yqR5skH+bqRyniAV9c6EZpMUuRB6UlyXZOttMkGI7HmQR5MOGwRDzJitaGpiBLaLBwokwbPt2UQKoTsNooMi3y4cYHyk1X33iiFkf29ZjE5aned+2fElACSkAJKIFPI2DlmG46LfFW3lOCsmkZ+PDddmx8pg5dErU0hoZx7aI8/PG35lCYcKGuPohfPnbYWOKJGJHDnEYPlizAbQVzILmH/q16K63x6iHCyWTerBTdRICypQ2WdO6zbeHxQs4zSpyZKHJ6UcS2lEJHphGfEgP9iPf3GZZxBgzIfoJcxYKvKRJgTqseNEd70BpnXqhoMi+U5IEa47EZ/OkSbMAxzdBYXiKapMi+2OyVFXtQVuIxdoclRW6O810mIiqeYD9ou2dqthOmPUC77Chzt7Iv/pDJA5XM6ZoUokSsUse9S/utV4Hp0vKe0J8mApNY44lFnuRPikQi2LdvHzZv3kz1+dPtSsQeTyz05L2PPPII//I4t38AVGCa0F8pvTkloASUgBJQApOWgEzC5nqL8KdTVqDKk4vGSDdXIlpQE+rEb+t24lBvy6RlM3TjwohzY5xaS4LiyvKMEUUmq3aKU/2c8Q7wf+LxHqf4JLmdTtT1ooY/UJyoC5h2Ldu6KYFUIyDf8/lLc3DLl8vNDybrflbNZOfj1+on1fhqf5SAElACSuDSE3C6Lbh6dR6WrS2Cy2PFFuYb3PFmCyLB0W5G4oS09uZSfPOhmSan5zvvN+NffvaRyc05wHFdhSsL3yxfgqU5U1Ab6sJfH34NLdFe9J9R7rj095uKn8iRNMfR4P+T/5kxNTvKoyhzZaLclc2ShTKnD6UuFtZizSebjKdFTBL+8l8/BajOWAj1nLPUR7rQEO4xtoTNFKNaYr3Gps+8cYz/8fEalytqX8la9tmxdBYZ11cNju0ryihClWZAop8stNuWzxazLNMHGedzP0YByt/CMX59L5q5wEwEKL/ULSFjqS2v63bhCajAdOGZTtorVlVV4a233jJWePKHOp1/M7hcLmzfvh3f+9730NTUdEY23/72t/GDH/wAf/3Xf43f/va3Zzzv9BdUYDqdiO4rASWgBJSAElACE4lAlTsHfzPrNlyXN8dM/eTetrYdwd8cesnYVsjkrl/+MzWnd6zPtHJwInE5n3vxMNpJVkWWc1IqE9PyMgpQLLk5DjNxlQgpmcCmc6IaZJ4nEZlkUlo7WESEkgTE/RSn+kSgksLfPoS5bkrgUhK4+oZc3MRIJvkOPv3jT1BfHaRoeil7oJ+lBJSAElACSuDzE/Bm2XDjg6W4ZnU+WhrC2PBUHY7s7UFfYuTYSgSPvFwH7r29Ercz35JEsz/7wnH85omjphPy+pyMQnxvyjLMyijA2+3H8A+fbDKRN5+/l3qFsQhINFQxI57KHRSeKDqVUHQqcWaZSCgRn+SZWESiYp3OFTLpbMvsRCKfGsIUnihANTH6Sez3/NGk+CT5oEQMFJEqWcs7ZP/M8xofo57MojIzvs9AeSndDLioTPJBybj+1PG9tEWk7OU4v74hiEZ/kOIT7bQpOg1ZanczD5QZ43NcZWqZWw22x+Kgx0YSUIFpJA/d+xwEfD4f1q5di/fffx/d3d0oKyvDN7/5TTz44IMmsknaY0UmORwObNiwgYmeM3D77bd/qhB1evdUYDqdiO4rASWgBJSAElACE43Af5u+Gt+tunFYYIoxSW9NsAnHQh1o5epMWaHZypWBUotfepCJfGOcoIk9yElriz5jbTHR2HzW+7Eyt01utgNiwVFC8cnURS5jzSHe8Q4WiXqStkQ9tXdEktZ6zSE0Niet9lrbkrmdomLFxxJlEmLN9fRZn4i+71wJLL4pDzfcV0aLmAE8/4tq1B7uHfWD3LleS89TAkpACSgBJXApCVg5tsotdGDNQ2WYOteH4x/1YPO6BtQdHR1BLmO1mdMy8cDdVbjmqjz0UBz43ZOfYMOWRiMAONKtuCqzFN+oWEzBI5OW0gfxh4YPEOA4WLfLQ0CeSR5zPRnbPVrtFTH3k9jw5bF2W+yw83WxAjclzWqs+ywUfrrjzKFKuz0RnGROI/OZ9mgIbbTf66H4FGdeqBjnNQkqPmZ+w3mO2PWNtdhLcrTmU5QslfF9scvUxczlmsNxv4O5XmVsL2P85FifbVr0yQI9k8eVkU8tzOcqbSmtLC2tEZMfatimj+OvoXZf30hB9PJQT41PVYEpNZ7DhO2F1+vF008/jSVLlmDZsmU4fPjwqHu94YYb8Mwzz+D3v/89vv/97496/dMOqMD0aXT0NSWgBJSAElACSmAiEFiVMxX/PP9BZNu9ZoJVHfRTYGox3ulOSejLRL4mqS/bMtHq4KSsg0l4O2hT0T5YS1sma+E+JvOlF32yZjJdk9A3ruLT4BdFop0K8l203nAOJiB2mlxPWT67SU7scVlN/icnJ6ji928SD3PiKXZ7fgpOjczzFAolmHS6D0EmKpa2lIROQCfCH8WUuQcRmVbfX4ZQTxzr/1DHH+gCSJy26jtlOqsdUQJKQAkoASVAAhk+K3MKZmHZ7UVwZ9jw8c52vPdqC9qaIqP4yDjr6gW5+NIXpmJqpRd7D7TjGUYufXSoC/KjfpbVieU5VbifOZdEtHihaT9ebz2k4tIokqlzQESlXIpP+aZ4TTvP7ka21Q2X1UYBSgrH22ZuI/MbG+3BbSbyyQhOnMt0cV7TyUioTtZdsTC6EmEzp5H5TLQvwTlOskS538c50emby2Ux9nqF+U4UyniftTgaSNSTiE8eN/vAucDQeN/ttCLE8bwITR2dUeZvPVnauS8L0MKRPqaIYeG8wLRZR6OMxOICtcm0qcA0mZ72ZbrXv//7vzcWeQ8//DBef/31Eb2wWCz4yU9+gvvuuw933XWXycE04oSz7KjAdBZA+rISUAJKQAkoASUwIQh8rWwxFmZN4Qq/EDa1HsTRYCsyrS74bE74OMlO1m7kcKKWYbWzcLIkteVkLZMusafo5mRMVgr2JCKmFr90maz1csVnL5Pz9jJCKpiQOgZJ1ts3yT24JAGxL9OG3CwHsrn6USKfZDIqCabFniPTazevZ3o5OeWqyM6uGGTS2dGZnIyKCCWT0m6KAT2BOLoDMfSwLRNW3ZTAZyWwiHkrrr+3FL3dMbzF1d/VIjJxVa1uSkAJKAEloARSjUBesQPX3JSPRTcUoKcjhvffaMaBbZ0Ij5FvSSJNrl9WiLvXVpox1uZ3GvHcyydMJLncl0Qr3V1wBW7In2Gi99c1fYgdXbVGaEi1+9b+nBsBW5qFC+lcyLZxLmNzUUBkYe1jbedCukybg/MepyleznGkeChGdXMuMzS3kUinAPd7OJ8x4hPnNtIO9cu8huPu/piZ3wTHmNuIpV4mRc8cju/NOD/bbsb8ssDMxoio5FhfxvvJ4uW5EinVQ1u9rsFxfY/ULN0c67dx7C+We2KxHTQLz1iz3ct2jI4HY2hf5wYqhc9SgSmFH85E6dq//Mu/4Gtf+xruv/9+k6Pp1PuaNWsWnnzySbS3txt7vFgsdurLZ22rwHRWRHqCElACSkAJKAElMEEIiOVEjCKRTJbG2pgP16z8E3FJJl0ZLJ5BgSmbk7Rsik8yOfPJxE2EqcGJm0RARRjZZMQlCktBCky9IjCxmJWCFKBkAmeKEahEmApzohYf05pirL5NtGPi4+5yWjjhtCULBSgf23k5TuYKcNKGQ4pMUjkZ5mt9iX5j7SICk0w+uygKSNSTCE9JMepkPREnnRPt+afC/ch3cOGqHKy6JykybXm+0YhMp+evSIW+ah+UgBJQAkpgchKwcpFO2TQ3ltxSwOilbNQcDOCdV5pQfSAwJpBpVV48SEu8xQvzTETIC6/VYtPbjbQrS459ZzPP0sNli3CVrxQfdNXjqYY9OMyo/rGiVcb8AD047ghYmcdJ5i8iKkkt8xwv5zceLqSTCCdZXJcsSYEqiyKVRD+JW4MsnpN5TZDtkJnjcAzOyCcTATUoQMmCuyFhSs4XC75TNxGSZIwv43kfF5VJLQKT2OzJvoz1ZeFZDucAIk7J3ECcC4JBfv6wwBQ3ApOIThL1JPOA5KIzzgt4TBaf9fYmEOd8YbxuKjCN1yeXYv2WCU5OTg46OzsZBnjyD8T06dON9V1JSYmxyfP7/SN6/hd/8RfGFu+v/uqv8Oijj4547Vx2VGA6F0p6jhJQAkpACSgBJTDZCYi/uUzCxFLPSSuRpKWedXhiJuJVrthUcFImdY7ss22lnUVU7CY4MQsb64mkvZ5M2kR8EssKseMTn/SORNKWT/bl9cm4WS1pxlrDLVZ6tOEQmw1Z9SiWe0krDrHjSFrwyTlip2Es9cROj6W9nd7vtNzzm8J2m7TDxnpjMvLUe/50ApLs/Mpl2VhJkSnQGTN5LGoO9qJfLRk/HZy+qgSUgBJQAhedgNNtwdwlWYxcKkAWrcgOvN+OnRta0FI/2hJPOnPNVbn4yv3TMP+KHBz5pAuPPXMM+z/uNBEg8vpiXzkeLl+E+ZkleKn5AJ5t3If6SLe8pNskJSDik9jqiaBkrPXSk20H5y/i4lDgzKAlHwtzQEktlnxyvuRzkrmNsdTj/MbMdWQRHx0eWpkHSgQocXeQOY1ESHXJQjvWsf6R4pNYOSYt9ZK1tOWYi2P8PIpOhfluFDL/UxHH/vmcC8jrMvYfstQbqsORBH9Pj5q8Tx204evgmE7s+DroiiB1gPnHUn1TgSnVn9A46Z9Y3f3gBz+ACEk7d+40QlNxcTHuuOMOLFy4EH/7t3+Ln/70pyPEp+zsbPzmN7/BnDlzsHTpUvOe871dFZjOl5ierwSUgBJQAkpACSiBkQQsnJzZOBGzSU2LimSbEyVO1sQrvYCTMin5zAFl2jwm0VAyqZNVfjFJuMsJl0m6y1rEpfZoL1qYpNcUtlsH9yUnlJw7mTZZiGVjompZ6TiUVNjhSDdRTqXFbiYg9qC0UGo3ijgJlS0W70c01m9sNGRS6W8J0RqGOZ6aQybPUwPr9o6xI9kmE1u9V8DuTMeC5YxkursE3Z3MyfR4LeqPhTAwybz/9bugBJSAElACqUPAQXFpxZ1FWExxKcq8lFtfbMTBXV0IM0rj9EhtWZBz/fIi3HdnFSorMrD1vWb86veHzSIbybfk4MKoVblT8cWSq1DpzsGva7fjNf9BE1mfOnesPUk1AjK/kbxPdjO3sQ7WFjN/EScHsVosdmSixJWsCx1eEx2VoDV4ck7Tzxy1nN8MznOCFJmaKD7JnKYtHkQ7F9m1SY7baBCdXGR3qvgklntise2QsT/roTmA2O35aLtXJmN/lrISqd1m8Zm8J87xv0QxDdUJMx/oQ1NzmHmgpFAAa4uauk3aLHLuqVtFqQdXzc8xUX+79rVxLjHy9VPPvZBtFZguJM1JfC0RmP7H//gf+O53v0sfSiv/wRhAenq6sb77x3/8R/zhD3/gl36k4nrnnXfi7/7u77B582b85V/+5Qjx6VxRqsB0rqT0PCWgBJSAElACSkAJnD+BdKRBBBKp01nLf1KLBV+x02smZjI5K3JJ24cSHsuxZWAgbcDY5w0gWfcP1mF6oDdFu9EY6UEzi0zUmqKswz1msnb+PRy/7yBGjpfTYGGRmkNnOJlMuKLMg8qyDNZSPKYWz3eiNwmDJTpFJp9tjG46UR9k6UVtXW+y5v5kSyo8fr8BF67nEskkOZlW3UORqT2GdT+rRmvD2CvEL9yn6pWUgBJQAkpACYwmkOGz4favlWPutbmMVgpj/RO1xsJ1rOhasRS7765K3HpjGbJ8Djz29FE8ue64ifKQK4sl2p2Fc3Bv8XzzQT+ufgfbO0+MsjEb3Qs9ogTOTGBoPjM0v5G5jbTF8UHcHCpc2Sh3ZQ2XEqfPWIvLfEZ+7x6a1wy1xVqvMdLFuU0AfllUx/mNnwvt/CJIUYg6dXGdzKssHPMnx/78XLofcBoAByOfyig2VZZ7MaWccwAWqbOZA7ZfPpMLh2TtkCwgSu4DXYx6am4Jo4nFz+LxWPHA3VMwZ1YWzwd++JMP8dNfHhwl6p6ZzGd/RQWmz85O33kaAflD4vF4UF5ebuq2tjY0NDSMEpZOe9vn2lWB6XPh0zcrASWgBJSAElACSuCCEpDJmW9wVWAJBaciszrQS+GJqwNZvPyhYEiwOllzksX3dXEVoAhOjbQ7SYpObFOMkrZM3MRff0iw4vxqeIJ3QW8gBS9m4cRTLPaM6MSJptSV5R4UF7lpw2E1E1Qu0jTCXygUR10DRae6pPB0oi7Adq/xeR+amJqak1Pi1G0CEZA8F9etLcCKO4rR2RbDEz86ih6KTbopASWgBJSAErgUBOSH8qo5Gbj961OQW+jAsQPdFJfqxrTE48+HKOE45tuPzMTK64oYlRHBrx47jK3b/CYigy+bKPqHSxfhtoLZqAl34F+PbcGRYCvHgropgUtPQCKickR8clN4cmYZEaqSIlQJ217OfeQ7axbj8cs9JFyJkNWboAPBoPAkgpOf8xoRoaTdzJKgs4PEGIlYlfyPC8oG20N3mZ1lp9jkNRF+IjpJKeciNLvNgjRZpMYPlz9/+cwDK8LU0CYL0Bbf+KK53tCxi1WrwHSxyOp1LwkBFZguCWb9ECWgBJSAElACSkAJXBACBfQ/T9rsJf3Qh9pFjHxyMCrK2PQZuz5aWAza9skHd1J8ktWAQ5Z7po7Qeo+rA4N9MU7OBu0sxNaCEzWxtOhje6L+CCE/zEgOJ7HVEIuNkiJXsl2SwRXA9kE7DtodUnQQCOLfLvZ6DU1SgqbIikexzRA7vliMVodiy8GiwtMF+apflovYaL24/I5CXHdbETpaolj3v6rR1hjRZ3pZnoZ+qBJQAkpg8hBwZViwYEUu1ny5AjHmmPngrVZsfb4JkfBoW2SxDZs+NdOIS7NnZuGjg534zRNHcPBI9/C/V/ID/rcqrsXSnErs6qrDb2t34FioffIA1TsdVwREfMq2u1AilnuMdpK6mHUxbfck/62xHxe7vmHLvmQ7EGfeJUY4tdJyT6z22jmvkX1py1wnwvxQxqaPcxqpxb5P5jxSixglUVDFnAOI5Z7Y7d2wsgj3rp0CJ20nZfv4UBduuOuV4T9XFxOqCkwXk65e+6ITUIHpoiPWD1ACSkAJKAEloASUwEUn4LBYjSVFLlcGmsI8TzksuTaXqSUflEzQTKEXv1MK90VEEvGpXbzQoyEm4w0PTs6YnJfHRXwyCXz7k4l8o5yoRdiWidlE3GSimZ83mFSYCbULmVS4kHVengveDCZApigluQ4k8ike70Mb8ziJ0NTSSmsNFhGfgsEEQmEpfcN1gpZ8uo0PAnan5L1IikyNNSG8/lgtmk8wJ9NEVVvHx2PRXioBJaAEJiQBC3NM5hTacc3qAiy8Ph+BzhjeeaUJe7aMLQZJJMbKpYW4/64qsyDm3R1+PPPCcRw/0Wv42Dm+m+bOxXcrl2K6Jw9b2o/h6Ya9qKP9mG5KYDwSkCimHIpPBcO5bIdy23q4mI7jcs5nXCxuLrQbqp2cFwXp3tAZj5j5jOR46oyFuc+5DmsRonoTMUT7EyPK7Gk+/OCPr8GiRXkYiKfhh7/cgx89se+SjAFVYBqP307t8zABFZiGUWhDCSgBJaAElIASUAITkoBMvHxWF7IoNon9no82e1ncz6YAlW13Mh+Ug0l57SYvlMfqMLWLE7MYV/h1U3DqojWFqTlJS9ZhTs4oPnFi1ksBKtgXNUKUiFFybKLFPUm0k8dtQ26OA7nZduSwzst2IjeXdY6TwpMdmV4bSzLyScSldgpP7Z0RU7e0cSLbETE2ez29cQQCcdMOhhIT8vs2EW5KRKbldxRgyc1FaKoJYuMz9Wg8riLTRHi2eg9KQAkogVQhYGfU7NS5XlxzUwFKqjxoqO7Fe6824/jHSbHo9H5KXsm711Zg7U3l6OqOYv2mBry2sd7Y48m5MsZbnl2FB0oWmB/bX/MfxMstH/PH9ODpl9J9JTBhCGTLYjousMuxs0ht85h8Tw5GO8n8Ruz3vJzrZErNOZDMi2TBXE+CY/NTC6Oh5PWbZ87ElCra5EUseHb7fvyf+1820U4XG5gKTBebsF7/ohJQgemi4tWLKwEloASUgBJQAkogZQmIz7ms9sswRUQmEZccnFzZjQiV45AJWlKQkiTRPk7gZHLm4flJcSlqcjtJficpAQpMXYyCMoLU4IStW0QpClQygQsm4pdkgnapgFu56thHUcmXmRSYfJkU8tguLOBEl0m3c5hUWBILyzGJjOoNxtHdI+ISOfGHIYl66uBK5Q7a73UwyXBHF9usJceTbpefgIMi09LbCrD45kI0U2TavK6BP/6FLn/HtAdKQAkoASUw7gnYnem4ipZ4S24phNNtwZ6trSzt6KQ96+kRs2LXe8UsH75wxxQsvaYAR6t78NRzx7BrbzsikaSFXhGtxO4pmoeb8maghwt/fl+7Czu6axHui497VnoDSuCzELBwniNzG5nDZBqBifMYtmUeIxFOsvhObPmyjTiVFKmKXdnIc2Tz4yQjFNAT7cKirf98SeYvKjAZ5Pq/8UpABabx+uS030pACSgBJaAElIASuHgEZFLmSk9a6kktlhNDtawQzGVJTsgGVwsOrhq00aoiwh8zwrTRkx81hgv3O8SCj5FPHYkgrfgG26zFik9s+CaKrOKijZ6HPxZ53FInSy4jncRur4AlP8+JAiYR9jLqiUFikEimYChu6g5GOrUwUXdL62DN6CfZD50h2kl+dBLrPomaGvqR6eJ9Kybfld1eKxbflGdEpsbjyUgmf21k8oHQO1YCSkAJKIELRiAzx4Zr1xTgqpX5iFEgepeWeB/t6ES4d3S+pQyPFStoiXf7LeWYSfuud7f7KS5V48ixnuH+VPJH8S+VLsTK3Kk4FPAz39JOfNTbPPy6NpSAEhhJQOY5Ts5vZKGdCE7J2obF2ZX4WsV1FJl85g3vtx/CVz94XAWmkfh0TwmMJqAC02gmekQJKAEloASUgBJQAkrgzASsTMRrku2mJRPs2gZre5oVhc4M5DvojW5nLYVRULKfx7asBYz19yHGJLtxqVmkDjHySYSnllgArfREb2FiXqlbo730Sg8bb/Qz92Z8vGKxpMFht8BBOxw7k3NLW8Sn0mI3Soo8TDAstQtF+W54+GNSNNbPQkYsvbTVk/xOjc1SQsOFQVH4r386H4uvzsfho134558eGPGD0/ggk+K9JOOMTCvti/Jpl1eIhmO9eP3xOrQ3R1O849o9JaAElIASSEUC5TM8uPlLZSiZ4kEjo2O3Pt+I2qNBxKOjczVm+ezMtTQFt91UBivHES+ur8Wrb9bDz9yPsqVzZDWDeZa+Ws6cMVnl2NpejSfqd+NEuDMVb137pARSnkAGI53uLJyLO4rmch4SwM9r3sPhYMsl6bdGMF0SzPohF4uACkwXi6xeVwkoASWgBJSAElACk4+A2O7JDx4WilBSm30e89KiQpLzFru8EBuXYkcma59pZ9GeQs7rpydM30C/qSWPUx/3JUGvPxJAU7QHfk70mqLdaOJ+M9sSBSXvGa+bCG7p/MHIQqVIBCgpYqVXRIu9irIMFg/KSzNQXuIxtntWRiv19Q2gv68ffbTR83psuGJ2NmwUrBKJfvzi0cP40b8foP1ebLwiSdl+eygyLVtbaCKZao8E8Px/HEdvt+bQStkHph1TAkpACaQggfnX5eD2r1XAzQjmPVtb8MYfGhAO9mFgDGtcye34R9+agxuWF6ON0c2/fvwItu1sGY5WlnHWosxSfLPyWpS5svBy8wE827SfC3aCEyYiPAUfoXZpEhCQhXMOOjLIXEScGAYu0Z8oFZgmwZdrIt+iCkwT+enqvSkBJaAElIASUAJKILUJiMgiuZ1KKDiVODNRzCJ1idNHEcpncj5Re6JUNfjfYHuAwpLkdRLBqTHcg8ZIjxGhGiMUoChGSe4n0Z5kUigSlKkH91ObyNi9Exu8slIPppRnoJJlaqUXq/mj05Qq7/AbtvOHpz/7xEqsSAAAQABJREFU79twoi6oeZyGqVy4htjlXX9vMa65sQA1BwN48t8+GXPF+YX7RL2SElACSkAJjHcCMoaRHEtLbinA8juKIfn93niyjrZ4Y1vYyUKTaVO8+LPvXoE5s7IYmdyNn//2ED786GRUkohLt+bPwrcrl3KhTT8eZ9TSqy2HGBmuCx/G+/dF+z95CajANHmf/YS4cxWYJsRj1JtQAkpACSgBJaAElMCEIyBWfJLvqYAWe4WMfipg5JNY7xXQhq/A7qFfugPWdAtsPE9qY93HdjqL2OuJtYWfVnsS+dQSYU0LPj+FqDBt+RK06UvwR5kEkyBJO862RE+Nl02inW67uRT//LfX0mrPZiKYWpmr6X2KTC+/UYedH7Sih9Z6EvGk24UjkOGzYfX9JUzMnofjFJme/49qjWS6cHj1SkpACSiBCUVA/q0uLHfhutsLMWthNno6onjzD/U4vLd7zPsU69zrlxXhW4/MpKWuBXs/bMevnziC4yd6h8/PtDpxX/F8PEJbvJpQB35ftwtb2o8Nv64NJaAExicBFZjG53PTXg8SUIFJvwpKQAkoASWgBJSAElAC442AnYJSrs2DXApQuRSb8lhybYNtClJOWls4LFaTwFdsLpxsG7sLikjttNZrj7LEg2inlUwbi9RyLNwfR4Ql2pdgnTD5n6KsRYxKtU0Sf996YymuvjIX7Z1RikwDxjJPrPW272rBxq2NOHi4G51dsXFtJZhq3L3ZNtwoItPKfBzZ04XXn6hFZ4vaEqbac9L+KAEloAQuJwGxr62am4FVd5cakenI3i5sYb6l1oZkhPWpfZOopfxcB+5YU44H7q5CTyCO9Zvq8dwrJ4Ztby0MhSpitPdXShfi9sIr8GFPI35HcemD7vpTL6VtJaAExikBFZjG6YPTbicJqMCk3wQloASUgBJQAkpACSiBiUTAbbUhy+oyRez3smxOFjeyeSybgpTHYofHOljYdg8WEZK6KT51xsPoosVet6nDFJ9C3A8j1BdD8LQi3uypEvkkK6XnzMxivoYiXEXRyee1470dfrzzvh+HP+k2P1hNpOd8Oe9lSGSaf10e5EfDzesazI+Gl7NP+tlKQAkoASWQGgQk2nXONT4svbUIDhcjkd5uw44NLYxgio/qoMNuwYxpXiMurVhahPqGIJ57uQZvvNU4fK4smpmTUYj7S67E/Mxi7OluMOJSdah9+BxtKAElML4JqMA0vp/fpO+9CkyT/iugAJSAElACSkAJKAElMCkISBYnEZYyKCh5aTHjtTqSbVrtifCUZXdBrGdMsTngoyAlbTujn6IUknoTMQT6Iggkoqb0xqPoSoSZUDvE/QhzQkVNXijJDdXNEuT5l2Nz02Jn7uwsk6PpitnZ6KdN3vu7/bTPa8UhCk2xWOpFY10OTp/3M0VkkpxM86/LxdF93dj6QiNa6iOf97L6fiWgBJSAEhjHBAoraIl3WyFmLMhCgJZ4Oza24NDuboQCo/MjiSXesiUFuJORS5Jf8cOPO7HupRrsPdAxTCCDY5UV2VW4q2guxyouvO4/hJf9H6ODC2J0UwJKYOIQUIFp4jzLSXknKjBNyseuN60ElIASUAJKQAkoASVwCgHJ3+S02OBKZ5Gaxc22RDdlMQpKbPhy+MNONiOhkrWHbRfsXFUc7o9BIpmkhIZqiksiPHXQhk8ioqTIj0GdgxFScu7F3CSpeE62gxFNPqxeUYLZM3zoDSZMRNPW9/w4Xhu4mB8/aa7ty7VjxV1FRmT6ZF8X3qL9UVtjdNLcv96oElACSkAJnCQwY0EmVt1TgvIZGTi0qxPvvNyI5lpa2MZHL+wQcenutRW445Zyk29p/cY6rN/ciIamEPr7k/kTZZHLnbTDu5PiUpgR1E817MXbHdVmvHHyU7WlBJTARCCgAtNEeIqT+B5UYJrED19vXQkoASWgBJSAElACSuCsBER8kpxPNopJ9jSLaTvSrEaEynMk8z/lM+9TPkUoqfNsGSY3VBpVnlh/H0siWQ+wzdxOMdb+SIC5n3rRakoyD1RrVPaDF9Ryz2pNQ7bPjgXzcrD25uQK6e6eOF55oxab32ky+ZnOCkBPOCMBEfKy8iky3SkiUx4O7+nEpmca0Nl6eaLXzthRfUEJKAEloAQuGgGn24Irl2XjWlriFZS58faLjdj+hh/d7WMvJsnPdeLhB6Zi1fJis/jjqXXHsHWbn+04BpLaEiOsHfha+TW4pWAWGsPd+H19Mt+SjCt0UwJKYOIRUIFp4j3TSXVHKjBNqsetN6sElIASUAJKQAkoASVwAQlI0u10ClAWsLBtYTudVnwS+VTk9JpS7GDNxNxFUvNYrj2DItIA+tCPfqkH+gfLAILM/eSnyNQc7YE/GkBzpIftAJpiAXTFwiPEp3R+3jR3Lq7NrsDBQAv2B5qMkDXW7YnQ5M2w4caVJbj/7immfYJRTM+8UINtO1sQG2N19VjX0WOjCQyJTDd8oQTzlubi4x0deP3xOgR7RtshjX63HlECSkAJKIHxTCArLxnJeiUXGcRjfVj/hzoc3NWFeHR01JLc51xa1/7Jt+agaooXjU1B/PzRQ9izvwPxU/4dzuOClT+esgJLcyrxcaAZvzzxPo4G20aMAcYzM+27ElACowmowDSaiR4ZRwRUYBpHD0u7qgSUgBJQAkpACSgBJTDuCYi1XonThxJXJkooPJU4M1HqkP0sSK4FyRUlooVs0k7WMAJTY6QbDdFuNFF4EhHrj6tWwmnNQIK5of7q4Et43n8A8bOsbs7jyukv3jMFd99eaWx7du5pw5PrqnG0umfYlsd8qP7vvAhIJNOtXynH3GtzsPedNrz4qxokYoNL0c/rSnqyElACSkAJpDwB/vNcUOLEbY9UYMZVWag93IPnfn4cbU1j26TKopDVK4vw/T+eD5stHbv3tuLHvziIpuaTuZTk3/zZGQX4r9NXo5TjhLfbjuFntdvQzoUnuikBJTCxCajANLGf74S/OxWYJvwj1htUAkpACSgBJaAElIASGAcEJPop1+5GISOcCik8FdJur8BEP9F+j7UIStb0dIhln41WfaXObGTYM4fvbHPLR/i7I6+jNtyJs8kaImDN4yrqu28rxzUL8xEKJ/D2tma8vrEeTS0RRKNqwTMM9jwaOUUO3PZQOWYtzKbI1IrXH6tDOKgszwOhnqoElIASSHkCdmc6Kmdl4MYHymiJ5zKRq5ueHdseNT09DZleG3MtleGBe6aaBSSvbajDfzx6hHZ4J/+1djLv44qcKvxJ1XITGf1i8wH8tm4Ho5ZOnpPyYLSDSkAJfGYCKjB9ZnT6xlQgoAJTKjwF7YMSUAJKQAkoASWgBJSAEjgzASfzP2VTfMqlbU6ejSIUBacbcmfgxsK5tOWz8o0DaI924bnGvXip+SM0MsqpMx4+8wUHX/F4rFiyMM9Y582ZlYXW9ii2vteEd973o6U1jGhsbIufs154Ep+QzxXttz5UhpkUmT7Y0gr50bGnY+w8HJMYk966ElACSmBcEsjMtmHh9XlYcksBLfEGsGdLC3a/1Y7ertF/z0uk0vQqL+66tQLXLSlEd08MTz9fjVffrB9x71mMbF6TPwtfLl2IUF8MTzXswUv+j0ecoztKQAlMbAIqME3s5zvh704Fpgn/iPUGlYASUAJKQAkoASWgBCYYATHOq3Ln4L9MuxEV7nwEEhSDaJMnUU/dFJZ2dtVha1s1asId6IiftN85E4bCfCeuXZSP5UuLMGdGFo4c6zYRTbv3taHJz9xPfbqC+kzsxjqeJ7ZJD5djxpU+IzJtfbEJnS2xsU7VY0pACSgBJTAOCEjkb1GFC9etLcJVK/Nw4nAA77/ejCN7eyg0jV6M4bCnYzEXcNx31xRMrczER4c6se7lGuw90DH8b6pELkuexrUFc3BLwSyTe/GJ+t3Y1nliHBDRLioBJXAhCajAdCFp6rUuOQEVmC45cv1AJaAElIASUAJKQAkoASXwuQlIPod82ulVurIZrRRiJFM6FmaWYXF2OeZ4C80PVXu7G/BeRw0O9bagJxH51M+U602p8GAJhaZlXGldUeoxP4S9u92PPR+2o61j7LwSn3rRSfxiXrETa75Shunzfdj7dhveeaUZHX5lOIm/EnrrSkAJjFMCTpcFVXMzcO2aIkyZ7cVHOzooLvlR98nYuZEkOvjGFcW4h7kOs3x2bHq7ES+vr0N9Y2g416HY3cq/1fcwEnleZgkO9DRhXdOHOBRsQb/a4o3Tb4p2Wwl8dgIqMH12dvrOFCCgAlMKPATtghJQAkpACSgBJaAElIASuAAEHLTSK2Ni8Kt9ZVieW4Xpnjy0MTn4vu5GCk3Hsa+nEZH+xKd+ksNuMULTiqWFFJsKkJlho9DUjne2UWja32HyNX3qBfTFYQJil3fTF0spMmVh37uteOelZnS2aiTTMCBtKAEloARSnEBmjg2LbsjDghV5sNDybtcGP/a914GuM/xdXlbsxhfurMQKRgT39w+YqKWNW5vQ0XlygYEs6FieXYWvlF2NHNrebmg9gldoieePBVRcSvHvg3ZPCVwsAiowXSyyet1LQkAFpkuCWT9ECSgBJaAElIASUAJKQAlcMgKSs6nIkYlrsspxU/5MVLiy0EXrvN20ztvc/gn2MLLpbFsGV2BPqWAS81UlzNOUjzQmKt/5QQve2NyIjw93ne3t+joJ8DdE5Jc6TSJ4scvbs7UVYpenOZn066EElIASSH0COQV2rLqnBHOvzTERqBuerqU1XhCxyGhLPLmbK+dm43/72mzzb2ddQxCPP3vMRAAHQyMXdtxZeAUeKlsEiWJ6pmEf1rceOmuUcerT0h4qASXweQiowPR56Ol7LzsBFZgu+yPQDigBJaAElIASUAJKQAkogQtOQPI02dItKLB7sTxnCu4qugJ5bIf743iH+ZleazmIj3v9n/q56RSVnE4L8zL5cM/aSsznj2f9/F3tlTdqWerhbw1/6vv1xaTIVFDmxM1fKsd0ikw7N7TgrXUNCPX2KR4loASUgBJIQQKyoKJ8uhs3PlhmLPGO7e/Bxmfq0XwiPGxxd3q3b1hehG88NANlJRnYttOP//mLj9FOa9lTcxja+W/yQ6VX4/6SBYj19+Enx982NrbRs0QWn/5Zuq8ElMDEI6AC08R7ppPqjlRgmlSPW29WCSgBJaAElIASUAJKYJISKGS+ptsKZ+OLJVfBZbEj1BfH+pZDeKn5I9SEO85KRcQm+QHtkQenobLCi9a2CB57+hNs3NqIcETFkrMBFJHpjq9VYhpFpndebsKGp+qRiA+c7W36uhJQAkpACVxiAgtW5OJ2/n1ttaVh9+YWvE1700BnfMxeZNBG9u5by3H/3VOYb8mBp5+rxs8fPTzqXMmZ+J3Ka7E6bwZaIgH8zdE3cLS3ddR5ekAJKIHJSUAFpsn53CfMXavANGEepd6IElACSkAJKAEloASUgBI4K4Fy2uWtLZiDWwtmw02hqZvWeRtaD2Nj61E0RXsgK6k/TfbwZdpx+81lJnm5RDcdPdaN/3ypBgcOdjI/U98ZV3eftWOT4ISSKW6s/WoFKud4+YNlE7Y813hGq6VJgENvUQkoASWQMgTE0tTptmD5ncW4/t4SdPoj/Hu6ER+81T4iCmmow7LoorzUjS99YSpWXleE3t44fs9FF+s3NYw4X2zwZmUU4FvlSzDLW4B9XQ34x2Ob0Z2IDF1KayWgBJQA/97oQyAQwMDA6FG4uBKMPqrQlEAKEVCBKYUehnZFCSgBJaAElIASUAJKQAlcAgJpSMMMTx5uzp+Ba7OnIN+RgeZID95ur8bW9mNojgYQ7It9ak+mTfFizY2lWLa4EBZLGvYdaMf6zQ04XhNAd2Dsld6fesFJ8mLpVDdue6SCtkuZePvlRrz7cjOCPSPzc0wSFHqbSkAJKIGUIGCzp0OiTFdQXJpzTTaaa0PY9Gw9juztGbN/Nms65sz04eEHp2PenGwusOjAH9ZVm4UWicTJn4EdzIcouRC/WnYNCvjv7IbWI/hV7XazkGPMC+tBJaAEJi0BFZgm7aOfGDeuAtPEeI56F0pACSgBJaAElIASUAJK4HwJyI9fMz35WJU7DVf5SlDuykZNqB07umrxXnsN6iJdnyo0OR0W8+PaqmVFWHhlLmKxfnywrw1vvduEmtpenJ7Y/Hz7N1HPL5vmwa0Pl6NiphfvvtqEba/5z2i/NFEZ6H0pASWgBFKBgCuDeQYXZeHaNUXIzLFRVOrCe682w183doRRpteGJVfn44G7q1BU6MI77zfj2ReP89+84IjbybA6sDJ7Kh4sXQA7/619sfkAXvUfRG9fdMR5uqMElIASEAIqMOn3YFwTUIFpXD8+7bwSUAJKQAkoASWgBJSAEvjcBDy0ypvOiKblOVVYQKFpOkWnQwE/9nQ3YFtHDY6H203OpjN9UHaWHfNmZ2PFdYVYtCAPre0R7PqgFe9s96O6phfxRP+Z3jppj5dUuXHrQ+Uom5aBHRv82Pa6Hz0dGvk1ab8QeuNKQAlccgIiKF19fR4W31SAWLQfO97kv3tb2xEJjZ1XsKzEbexhr+eiCvl37Q3a4b2+sR7+1pFiVAHzLd1OK9qbCmYiEI/guaYDeK/z+Kcu2LjkN68fqASUQEoRUIEppR6HduZ8CajAdL7E9HwloASUgBJQAkpACSgBJTAxCWRyxXUFo5hW5E7FNb5ylLp8OB7qwAdd9XinoxrVjG6K9Y/9w5sQKSpwYf7cbNywvBhXXpGNT44HsG1ni1nh3dgcnpjQPsddich0y5dFZPJg16YWE8nUc4ZE8p/jY/StSkAJKAElcAoByZ9UVOnCklvyMWthDtqawnj/9WYc3tONRPykxd0pb8Hc2Vn44r1VWHpNAT6p7sGTzx3D3v2dCDD30qnbNHeuscSb5yvGoR4/nm7ci0PBVv7bqVaop3LSthJQAiMJqMA0kofujTMCKjCNswem3VUCSkAJKAEloASUgBJQAheZgJdCU6kzC9dTaJKophy7B37maJIV2JvaPjGi05m6YGVuioI8J5YsysONK0tQVuLBkU+6sYW2ee/saGEC45E/xp3pOpPhuCSVF5Hp5i8lRSZZPf8e7fI0J9NkePp6j0pACVwuAlcszsb1XyhBZradlnidjCJtQfOJMPpOyZ801DcHrWCv5b9n9981BbNnZHHRRCseffIIauuDtLQaKUZd7SvDdyqXYipFpg2th/FE/QdojgXQPzDyvKFra60ElIASGCKgAtMQCa3HJQEVmMblY9NOKwEloASUgBJQAkpACSiBi0ogDWlwWawoo9B0c/5MrM6bDg+Fp554GK/5D+GN1kNoigbO2Ae7JE2n0HTjqhLcRKHJ57Nj34F2vPxGHXbtaceA/uBm2MlK+uIqF9Z8uQLl0z1455Um5v/wn9Gi6YzA9QUloASUgBI4K4Fltxfh+ntLeN4A3nm5Cbs2tiIS7sPAGE6uvkw77lxThjvWVCCL/4Y998oJk2+psys26nNuYC7Db1QsMbkMf1e3C+ua9iGQ0HxLo0DpASWgBMYkoALTmFj04HghoALTeHlS2k8loASUgBJQAkpACSgBJXB5CKRTbJIcTXcXzcVN+bNgS7egOxak9c8+vNl2BB2x0Bk7ls4wnSmVGbj/zkqsWFoEl8uK9Zvq8fQLx1HHFeC6JQmUTXfj9q9WonyGF288WWvs8s5k1aTMlIASUAJK4PwIZPhsuOWhMly9Mh/RcAIv/LIGB97v4GKHsa+Tw9yC33pkJm69sQxtzCv42yeO4K33/IhGR9rEuiw2rM2fjS+XXQ3JZ/iv1VuwsfUo+ilg6aYElIASOFcCKjCdKyk9LyUJqMCUko9FO6UElIASUAJKQAkoASWgBFKSwPzMYtxZeAWWZk+BI92KhnA3Xmjej+1dJ9BOoSkx1jLwwTtZvDAPD9w9BXNmZSPBBOnPvVyDDVsa+eNd1CRMT8kbvoSdqpydgdsermBOpgy8/tgJbH+zlflAxlhWfwn7pB+lBJSAEhjPBCzWNFTMzGCUaBnzLnlQf6wXr/6uFk01Yy+MsFgYVVrowh9/aw4WXZWHw0e78YvfHcL+g10jMEiUb4EjA/cVzceagtloifXif9W8iw97GtUSbwQp3VECSuBcCKjAdC6U9JyUJaACU8o+Gu2YElACSkAJKAEloASUgBJIWQJLssppmzcDC5lzIoPWeceCbVjfcgj7+ONaC63z4mcQmjxuK65fXkTLoXIU5rvgbwnjlTfrsHtfGzo6YpNeaJo614s1XylnbiYP1j9BO8HNrYiGRq6YT9kvhXZMCSgBJZAqBJjjzuW2YNbVzCdISzy314p977ThzScbEI+NLdxneKyQhRCPfHE68vNc2L23DY8/ewyfVPeMuCuJ6q1y5+Ch0quxNKcSe7ob8asT76MmzIioEWfqjhJQAkrg3AiowHRunPSsFCWgAlOKPhjtlhJQAkpACSgBJaAElIASSHECbtoBLcwsxfLcKkhkU5bNhYMBP95q+wQHAs1ojHSfMaKppMiNVcsKseq6Iua2cKC6pgcbtzbi48NdaGmLnNG2KMWRXJDuTZuXFJkKy93Y+Gw9dm1qQ7g3cUGurRdRAkpACUx0AmnMbZdTaMeC5bm4ipZ4Egm6c2ML/y5tRTw6trhUWODEbTeV48F7qtDTE8PGLQ3MGVgPf2t4BC7qVpjvLcYj5ddgVkYBtrYdwzONe1EbGRnhNOJNuqMElIASOAsBFZjOAkhfTm0CKjCl9vPR3ikBJaAElIASUAJKQAkogVQnIMLS3IwiLMuZggW+EmTb3NjPSKZt/z977x0d13me+z6YXlAGfdALwd57FTvFqt4syUVy4ricdXJyUlbuyroruSt/ONcrd8UnPieOa2xZlqzGIomUREnsvZNgB0EQvXcMgBnMDHjfbw8ANgzAAqIMnk1vfX3v7/t9gwG8n/2+b30hzkhaJg/e/L0EujAadRiTGYGFc+OxYE6iFp8pL78Ruw9U4OKVBjQ1e4f70h/b/LImRWDta2mITjDj0A4JRC8iU1sLRabHBpwXJgESCBkCmRPDsWi9E6ljw1FW0IqTIi4VXBTL2l7EJeUSLycrAk+tS8eKJ5K12IAfflyAQ8eq4b4r3pJN4i3Nd2TglZSZiDHZ8HnVZeyQs7qjJWTYcSEkQAJDQ4AC09Bw510HiAAFpgECycuQAAmQAAmQAAmQAAmQwCgnEGeyI9sWi+VxY8SyKRUWgxFXxKLpeEMxjjQUosrjEvdB9zoQUm6JsjMisHhBIpbMd2pu8i5dbcDXe8txUSya7g6qPlowZ0ywY+2r6XDEm3Hkiwqc2lNHkWm0bD7XSQIk8MAEwsLCMHVRNBZtcCI20YKzB2o1y6XaCg86/ff+7rFaxSXejFhsWpuOSeMdOJ1bh48+uYHciw333Fv9fnsqcbIWb8nj78B7ZWdxWH6vNfvc9/RlBQmQAAk8KAEKTA9KjP2HFQEKTMNqOzgZEiABEiABEiABEiABEhjxBGKNdqRaHFibOA6zo9Jh1OmQ31qDw3WF2FV3DS0+T69rdESZNIum1cuTsWSBU4vPpGJgfLmnDAVFLaPObZ48K0X6eBWcPg2OOBMOf16JU3tr4W5lTKZeP0CsJAESGLUEIhxiXfRkAmYujYdOrJIObi9H7qE6tDT2bvkZEW7QYgFuejIdZrNec4n32VelKC5rvYdhhjUar6fOlnhLmShsrcN/3DiIAom35O3kd/E9sFhBAiTwUAQoMD0UNg4aLgQoMA2XneA8SIAESIAESIAESIAESCB0CIRJEPQIg1mzaNrknCRCUyp0YTrcaKvDVzV54lboUq+L1UnsDPXgb8rEGDwjLosmT4xGSbkLe8Vt3pdi0VTf0Ls41evFQqBS8UgfL5ZMr6UjKtaEvVvL5K38OnS4e48jEgJL5hJIgARI4IEIJGXY8OSrKciYEIm6Sje+eKcEJXkudPTiEk9d2CaWS2++NhZPrkxBc4sXf/wgH4ePV8PV6r3nRYax9ni8mT4Psx2pOFx/A78sPIJKD13iPdAGsTMJkEC/BCgw9YuIHYYzAQpMw3l3ODcSIAESIAESIAESIAESGNkElNCkF1OcaZEpeDF5OmZFpYjQFIY8VzU+Kj+HvXXXe12gcnWkhKZli514Zn0G0lLDkXetCVu3F2L/kUr4enF31OuFQqBSWTKpmEzrvyUiU4wZn/+xCLmH6+H33evyKQSWyyWQAAmQwH0TyJ4SgXWvpyMp044LR+ux+efXte/GXsL+addMctrw1z+cjOlTYlFc6sIvf38Fp87VobPzzu9T9XtqcoQTP8hchPEiMn1SeQFvlZ5Ck7f9vufGjiRAAiRwvwQoMN0vKfYblgQoMA3LbeGkSIAESIAESIAESIAESCDkCKgHdoujs/CscyomRCaK9ARcaK7A5vJc5LaUw9PpQ2cvTwWTEq2aK6MVS5IQF2vBkZPV2PppEa7mN8HT4b/njfOQA9e1oHEzIuUt/XRExBix/XeFuHissde4IqG6fq6LBEiABDQC8svDatdj6sIYLHkqGeGRBhwRF6L7tlUEtVoyGXWYNysOf/2jKbBYDDh7oQ6/fTsP1wvvtUay6IxYEpOFN9LnwqwzaC9D7Ki+BJevgxtAAiRAAo+FAAWmx4KVFx0sAhSYBos070MCJEACJEACJEACJEACJKAIGCQm08rYcVgZl4Ox4fEiNIXhXHMZdlReQoG40GvwtuHOd8kD3CZPcGDjmjTMnBYr1k1GfLGrFLv2l8tb6K1obes9zkaoEZ84JwqrXk5DeJQRO35fhCunGuHtoLu8UNtnrocESCA4gdgkMxauTcT0JXGor3KLuFSFSycaehWXlAVoVKQJT65IwTdfzoHX24md8rvj/W030NR8r2AUZbDiKedkvJw8Q1zhNeO90jM42FCADsZbCr4hbCEBEnhkAhSYHhkhLzCUBCgwDSV93psESIAESIAESIAESIAERi+BKKNFs2haKIHTJ4QnaKLSuaYyfFmdh2J3Pao8rnvgqGDsc2fGycPCZIzJipIHin5NZDp2qholZW1wSznUj0lzHSIypcIWYcTOd4oDD1YZkynUt53rI4FRT0CvD0PKGBuWPpOM7MlRyM9txMHtFSjNb7vHxZ2CZTToxL2qXXsxYfXyZNTWecTN6g1s/7K0V5apFocIS9OxPnGS9tLDn0RcOtVU0mtfVpIACZDAQBKgwDSQNHmtQSdAgWnQkfOGJEACJEACJEACJEACJEACXQSU27wEUzhmR6ViXnQGpkQ64RM3ebkiNO2rvY681hpUd9wrNMVEmzV3R8sWJyEtxS4PDt04ILGZTkssjSKxaLo7nkaoAZ8wOwprxV2e3hiGvVvLJPaIvL1PkSnUtpnrIQES6CJgFzd4E8SCc8GTSYhwGOU7rw7Hv6pGdZm7V0YWeRlh9oxYPL0uHTnZkbhW0Iwtnxbi+Onae/obwnTaSw4vp8zAguhMHKgrwAdlZ3G1tfqevqwgARIggcdBgALT46DKaw4aAQpMg4aaNyIBEiABEiABEiABEiABEghCQC8P+JLMEZgiQdUXx2ZjWmQyWv0eidFUicP1N+Rt8nJxnXdncHXtbfYkG2ZNj8XShU4kxltRXtmGvQcrcEweIirRKZSPsdMjsfa1dOjkrf6Dn5bjwjGKTKG831wbCYxWAnHJAZd4kxfEorXZKy7xKnD1dDNaGr29IlHi0hqxWHp2QwYixT3e7v1l+GJ3GYpK7n35wKY3YYEjA88kTUGKJRI7q69iu8RbqnA393ptVpIACZDA4yBAgelxUOU1B40ABaZBQ80bkQAJkAAJkAAJkAAJkAAJ9ENAvUmuLJomRCRiVdxYsWhKQpu/Q4SmChwUoel4YzHa/Xc+VFQPE52JViycE4/Vy1JgtxvFXV6L5gbp5JnakI3PpGKLjJkaISJThohMwIFPynHxuMRk8jAmUz8fMzaTAAmMBALyHZc+1o4lm5IwdroDNy41Y/dHpagsbofP21ukPom3FGHCK89lYeXSZPj9ndi8vRB79legUeItiXHsHYdy07ohYRI2iks8n8RYerf0FA43FMElLzfwIAESIIHBJECBaTBp814DToAC04Aj5QVJgARIgARIgARIgARIgAQekYASmmKMdkwVgWlD4gSMkxhNnk4fzjWW46vaqzgqDwHvPqxWEZoSrFi3MhXrV6ei3e1H7sV6fPJ5MS5ebQxJt3nKemnMlAisez0dSnDa9VGZvNnfJA9fKTLd/flgmQRIYOQQMJp1mDjHgcUbnYh1WpB7qE4sNStQX90RdBFjsiLxwzfl90VOFKqq2/GH969BvWSgfhfcfTiMVryaMhPrEiai3N2E3xQdRa68yOC9eW/fu8eyTAIkQAIDTYAC00AT5fUGlQAFpkHFzZuRAAmQAAmQAAmQAAmQAAk8AAEVoynSYMH86HQ875yOTHsMOuU19KNizbS18oI8ECy/52oqsHtWZgS+8Vw2lixMRH29B/sOVWDrjiJUykPHUDt0OmDsjEis/2aGtrQdbxXh+vmWkBTUQm3vuB4SIIF7CZjlZYElmxJFXBILVpcP+z8uR+7herhbg4s/C+fG469+OAUxDjNOnK7BL35/BaXlbb1+D4brzfjL7CVYLlayyg3rLwsP45rE++vEXSZO906NNSRAAiTwWAhQYHosWHnRwSJAgWmwSPM+JEACJEACJEACJEACJEACj0IgSoSmFfE5eME5DfGWCPg7O7G3Lh/bKy/helstvFK+edsDQpNJJ27zEvDsxgxMGOtAeUUrdnxVgq/3laO11SfjQ+dhorJemrIgGmteSZMHqsC2XxWg6KrrHpdQj8KfY0mABEjgcRJQ32NWux7rv52BGUviUF7Yip3vFKHgoqvX26r+JpMe61al4Fsv58BuM2LHzmL8n99e7rW/emEhxRyFv8tZgbHh8ThSX4jfFh9DmVgw8SABEiCBoSRAgWko6fPej0yAAtMjI+QFSIAESIAESIAESIAESIAEBpFAnMku8ZnGYU38WCRIUHa3xGTaX3cdu2uuodjdiFaf5zaZCYiLMWP5kiSseCIJGanhuJzXiM+/LsXZ83VoavFKnI7QEJp0ujDMeCIGy55LQaesaesvb6D0ugS1D5H1DeJHjLciARIYZAImcYmXMsaGJyWmXEKKBYWXVbylMpQVtPU6E724B01JsuGZ9eny/Z4Mr7gFfW9LAbZ9VtRrf6veiHmOdPwocxH0ErRuZ9UVfFh+Do2+0LNq7RUAK0mABIY1AQpMw3p7OLn+CFBg6o8Q20mABEiABEiABEiABEiABIYbAXlxHalWB5bGjMHCmAykW6PR6G2XAO2FOFh3A0Xt9WgRoen2IzsjQkQmJ+bPTkBqih2HjlZhz8EKXLnWhIZGEaVCQGdSMZlmLo3VRCa/PHDd/vtCFF5yhYyIdvt+Mk8CJBAaBCKijZi6MAZLn0mGr6MTZw/U4OTuWjTW9h5vySBuUKdOdOClZ7IweWK09tLAlk+LcDq3Fj7fvV/k0UYb1shLCd9Kn4MmrxsflJ3F9uqLmrvV0CDIVZAACYx0AhSYRvoOjvL5U2Aa5R8ALp8ESIAESIAESIAESIAERjABo7yJniHi0kJHBmZHp2GcPR6VnhacbCzBYXF/pFzn3S40qfhMkyY4sHyxE9Mmx8ImsT4OH6/Szqv5zXCJ67yRfqg3+2eIyLTyhVS0ioXW1++XaDGZQsVSa6TvD+dPAiQQIBAmVpfxKWbMXZmAmcviUVcpLwl8VoELR5vg94mvz14Os1niM81PwPNPZSIp0Yb9hyvxsVgtFZWKteZdbk/ViwhJ5khsSpyMDc6JKG1vwntlZ3CwvqCXK7OKBEiABIaOAAWmoWPPOw8AAQpMAwCRlyABEiABEiABEiABEiABEhhSAhadAWkiNM1zpGGOCE3TIlNwo7UOZ5vLcaiuAFclgHub/9bb8OF2A6bIm+/LFidh0jiH5l7p6KlqHDlRjav5Tb2+BT+kC3zAm+sNYZi2MBorXkxDa3MH9m4pw7XcFrrLe0CO7E4CJPB4CBjFJV7W5HDMW5WI1DHhKM5rweHPK8U1Xu/xltQsEuIs2PhkKlYtSxE3d2FaTL0vd5ehutZ9zyQNYTrk2OPwrHMqZjtScamlSnOJd6Gl4p6+rCABEiCBoSZAgWmod4D3fyQCFJgeCR8HkwAJkAAJkAAJkAAJkAAJDCMCKs6GU95YXxCdgUUxmRgrFk0qgPu5pjLskhhNeSI0eW/6tRmrmEWx0WZMGu/AyqVJGDcmCs1i8bP/SAX2HaxEaUXvsT+G0XL7nIoSmaYqkUksmVxNXuwRkangvIhMd73l3+dF2EgCJEACA0zAbNWJK884zH8yEQajDmf2VyP3cD3qKoK7Kh2XE4k3vjEWUyfHoESslT76pAAnz9Zp39l3T88QpsdcednglZQZ8vsgAntrr+Oz6ssolRh9naHgC/XuBbNMAiQw4glQYBrxWzi6F0CBaXTvP1dPAiRAAiRAAiRAAiRAAqFIQFk0xZvCRWTKwur4cRKvKQr1He04Km7zPqm+gKK2hp5lq3gejkgjZs+Iw6Yn05GSbEOzWP1s3l6I/Ycq0SSi00g9TGIlMHm+EplS0NLoxVfvlaDoSqvEm7o3TslIXSPnTQIkMHIIGE06rH4lBTOfiNdceO7dWoarp5vgafcHjYO3YE48vvlyDsbnRGlWpr/8/RXNaskrcebuPpRbvHUJE/FG+lxNTFLxlr6uzYPL14Gb8o8HCZAACQxHAhSYhuOucE73TYAC032jYkcSIAESIAESIAESIAESIIERRkC9yZ5oDseKuDHYKHE4Yk12eDp92FF1EZvLc1HT0dqzIhW7KCLChPUrU7Tg8UqcyRN3eR9sK8TJMxI83n/vw8yewcM4o9YxbXGMZsnUXN+BT39biIqitqAPc4fxUjg1EiCBEUwgLsmCZ/48E6ljw+U7qBVfv1eKwiuuoK47bVYD1sr38YtPZyIh3oqt24vwu3fz0O4OWKH2huL1lFl4PW0Omn1u/KbwKPbW5cN3c2R+d/e2PtaRAAmEJgEKTKG5r6NmVRSYRs1Wc6EkQAIkQAIkQAIkQAIkMKoJpFodWBc/Hpuck2HXm+H2e/FB+Rl8Xn0FDd52+G97COlMtOIbz2XLw81UeDx+HD1ZjQ8/uYGiYpcITSPvLXglMs1ZGYsnnklBY00HPvw/11Ff5RnVnwcungRIYHAI6ES8Hz8zCi/9tzEIk/yFI3XY9WEZGmtvxcW7fSZhYoYUF2PBK89nYf2qNLhavfjjB/n4QuIt9W61FAa7wYQfZCzE+sRJqGxvwr8V7MOpptLbL8s8CZAACQxbAhSYhu3WcGL3Q4AC0/1QYh8SIAESIAESIAESIAESIIFQITBGAr8/GTcOy+JyEGEwi+u8VnxSeRFHG4pQ1eFCh1g4qcMgMYymS7yPjWvSMH1qLFwuFZ+pEl/tlaDyNW64RXgaSYfZqse8NfFYuM6JhmoPPvr5dUl7f8A7ktbFuZIACQxPAkoosoUbMGtFHJY+nQy/7yYO7ajAgU8rg05YxcbLSg/Ht17JwfzZCbh8tQF//Og6ci/Wwyfj7z6MYqU6xh6L76TNxZTIJFxqrsB/Fh5BYXv93V1ZJgESIIFhS4AC07DdGk7sfghQYLofSuxDAiRAAiRAAiRAAiRAAiQQagQmhzuxVFznzXWkI95sR1l7I3aKNdM5eUBZ3N7Q41YpSuIzzZsVj+VLkjBhrAOVVW3Yd7hSYoFUoarajY5e4oAMV1YWmx4L1iVg/pNO1Fe68clvb6CqxD1cp8t5kQAJjFACBmMYEtOsImoniPVSNJobPNj/cQUuHL0V/+7upSmXeFMmOkRcGouMtHDNcvT9LQW4Xthyd1etbNUbMScqDa+nzkacuD/dXZOHP5Sd1OIt9TqAlSRAAiQwTAlQYBqmG8Np3R8BCkz3x4m9SIAESIAESIAESIAESIAEQo+ARWfA+PBELIrOwExHKpItkbjeWo99tddwvqUS19tqtUDxauXJTnlYKkLTkgVOTBznwPnL9Th0tAqncutEdGpHZ+e9b9cPR2JWux7z1yZg0YYkVBa2YeefilF2vW04TpVzIgESGIEEjOKSc9z0SBGznYh1WpB3thEndlWjvCB47LeEOAvWr07FBrEY9Ysb0j0Hy7Hjy1KUV/b+3RQubk6XywsCLyRPhyFMh08rLuBjia2nYuzxIAESIIGRRoAC00jbMc73DgIUmO7AwQIJkAAJkAAJkAAJkAAJkMAoJKBc5Y2xxWGBCE2zRWhKt0bjkqsKR+uLcLKxGAVt9bgp//TKfVNGhLhuisPCeYlIllhNZ87X4/DxKpwWoamhcWS4nFMi07zV4i5PRKaKwlbs/qgMJddaR+HOc8kkQAIDSUBZSc5aHoe5KxNgEKHppAhLZ/bXoqXBi5tBNPic7Ag8tyEDq5en4PqNFnz0SQFOnq1Dc4u316nFGG3YKLGW1iZMEGslD7ZU5OJAfQHaJa4eDxIgARIYiQQoMI3EXeOcewhQYOpBwQwJkAAJkAAJkAAJkAAJkMAoJxBpsCDVEoWlsWMwPzodceZw5LtqcaKhGHvq8lHhadYIWcx6EZrCsXShE3PFqslqMeDs+VotRtNZEZw8HZ3DnqR6EKyJTOtFZCpSIlMpSvN7txYY9ovhBEmABIacQKzTjKXPJGHsdAdaGr04urMSV041ot3Ve7w6o1GHWdNi8NzGTEyfEiuiUg3e+fA68q43B7UIVd/P3xSXeLMcaWJtWovN5bm40FIBNy2Xhnz/OQESIIGHJ0CB6eHZceQwIECBaRhsAqdAAiRAAiRAAiRAAiRAAiQwrAgoi6ZEUwTWJIzDopgsRBmtKG5rwKG6As0NU5u/AyqAvd1uQLZYNK2RN+/nzIjT3tA/LLGZdu4qw7WCgBg1rBZ212Rs4QbMWRmnucsrv9GKr94vEYum9rt6sUgCJEACfRMYMzUS67+ZhphE5RKvCQe3V6CquB3eIGJ7uHx3rlmejKfXZcDhMOPrvWXYsr0QFeJuNNgxJdKJ/5m1VGLmRWC/fBe/V3YGlSL6+24Of0E/2JpYTwIkQAKKAAUmfg5GNAEKTCN6+zh5EiABEiABEiABEiABEiCBx0RA9COYJEZTqtUh7pgmYmnMGNgNJpS5m/BZ5SVsqTyv3VknbvPMJh2mTorGC09lYtL4aPgkhsiWTwvx2dclqKv3PKYZDsxlbREGzF8j7vLEkqk034XP/lCE2orhPeeBWTmvQgIkMBAEZq+Iw4oXUuCIM+PAJ+XYu7UcHe7OoC7xIiOMeO3FbGxam4HGRg/e3XwdB45UocUV3MXdEhH6/3v2E4g12kVYOo135HSLS7wgXvcGYlm8BgmQAAkMGgEKTIOGmjd6HAQoMD0OqrwmCZAACZAACZAACZAACZBAqBEYH56A55KmYHFMNmx6E4okLpN60Lm7Nh9+CS6i/hkMOqxZliwPT8cgId4qAepb8afNBTh4tArtbl/QB65DzUqJTEs2OTH/yUQUXWnBtl/fQHN98Ie9Qz1f3p8ESGCICYgCHxFlxBNPOSXmUoK8fd+Jne+W4PTe2qAT06w+bQb83X+fisXzEzUrz1/87grOXagPOkYvgzYmTMIb6fMQLpalP79xENsqLwTtzwYSIAESGIkEKDCNxF3jnHsIUGDqQcEMCZAACZAACZAACZAACZAACfRLYHZUKtYlTJQYIKkw6/S45qrRHnjmNpejWQLO+8VdU0y0GU+tTcO6VdLHpMflvEZs+6wIV641obXNFzS+SL83f4wdIhzysPhpeVi8LB6FIjJ98ttCikyPkTcvTQIjlYBOH4akTCtWitVS9uQoFF1twZ4tZSi+6goqopslbt3kCQ786LsTkZRoQ+7FOvz+T9dwNb93V6I6EZbixFrpaecUrEucgGavG78pPorD9YUjFRvnTQIkQAJBCVBgCoqGDSOBAAWmkbBLnCMJkAAJkAAJkAAJkAAJkMBwI7AoOhNLY7MxLSoFFnGld7lFYi9VX0Feaw2qPC0IE9d548ZEanFG5s6Kh3pgejq3Dl/vK0NhkQvNfbiDGqq1RsYYsezZJExfIiLTpWZ89nYx6qvoLm+o9oP3JYHhRsBk0YmoFCHfEymIdVpw8Vg99m0rR2NtR9CpxjhMWP5EEt58dRxa233Ys78cH39ejMrq3uMt6cPkHrZYvJg8DXMc6bjYXIk/lZ7G1bZqdIq1KA8SIAESCDUCFJhCbUdH2XooMI2yDedySYAESIAESIAESIAESIAEBoyATW/E7Kg0zI/OwPSoZFilfLG5AntqryPPVY1yCUBvF5dQUyY68MRCJ2ZMjYXb7ceps7XYd7gSN4paxHWef8DmMxAXioo1YekzAbdX+eea8PX7JagqdQ/EpXkNEiCBEUwgMtaImU/EYfbyeM0K8+zBWpzeU4vmht7daar4dGkpNmx6Ml2z5qwQQWnLpzew50AFPB2dvZLQIQwzRLT/RspMjA2Px76afHxQfk6+S5t67c9KEiABEggFAhSYQmEXR/EaKDCN4s3n0kmABEiABEiABEiABEiABAaEQLTRhknhiVgYkymu81LEdZ4RF8Rl3qG6QpxrKdcsmmJjzJrQtHRhEmZPj0NpRStOnK7BoWNVKCx2wecfPm/mK0umpWLJNHtZAvLONmruryqLerc2GBCAvAgJkMCwJpCaY8PC9U5MmBWNkmsuHP+6CjcuikDe2rtArlziTZ0UjafXpmvp1fwmfPjJDRHX64KuU1l5rojNEcul6UgwhWN71SXskLO6wxV0DBtIgARIIBQIUGAKhV0cxWugwDSKN59LJwESIAESIAESIAESIAESGDACEvMesSY7ssS10/K4HMxzpEFJRlfEdd6h+hs43liCRl87nIlWTJvkwIonUjBxbBTybzTj8PEqHDxahaqa4WMppMVkEkum2csTcE1Epr1by1FZTJFpwD4wvBAJjAACekMYJsyOwqJ1TmRMiMTpfTU4/HklqsWqsTOIKG6z6rFyaTKe3ZCBcLsRB45U4ItdZSgQi81gHu4iDRY8lTgJG52T4OvsxGaxWtpXX4BGL79zRsDHhFMkARJ4RAIUmB4RIIcPLQEKTEPLn3cnARIgARIgARIgARIgARIILQJh4uIp2mhFutWB9YkTMUdc6Cmh6aq4zNtVe00LUu/X+ZEQb8GCufFYJUKTEp2u5DVit7iOOny8Gm0Sp2Q4HBHRYsn0dBJmiUsszZJpc5n2YHk4zI1zIAESeLwE7JEGzFkVh1liyWiy6HF0ZxVO761BSxCXeGo2ynLp9RezsX51GtweP97bcl2sNKvR1NwRVFxKNkfiO2lzNQvQkvYG/KboGC7L96W7s3fXe4931bw6CZAACQw+AQpMg8+cdxxAAhSYBhAmL0UCJEACJEACJEACJEACJEACXQRULBG7wYSx9ng845yixRUJExdQV1oq5e38XBxrLIbJpENSghVrVqRgxZIkhIcbtfhMH39ejHMX6oeepZhlRYrItOy5ZHGXF49LJxvw1XslaKjuGPq5cQYkQAKPjUBMohkrX0jGpPmxqC1vl1hspbhxqQXeILGT1ETiYs34H38xCbNmxKNK4i395u2rOHGmFl5v7/GW1Jgcexx+kLEI0ySG3bGGIvx/+XvQ4vegM5ipkxrEgwRIgARCjAAFphDb0NG2HApMo23HuV4SIAESIAESIAESIAESIIHBJmDU6TErMhUvS2yRyZFJMEn5hAhMb5ecxEVxoXdT/o0bE4mXn8kSq6YEWCwGfPxZETZvL0RFZVvQN/8Hax0qJtOaV1Iwc2k8zh2qw+dvF8PVNDysrAaLAe9DAqOFQHyyGU9/LwtZ4hLv6plG7HirCPVVnqDLF91c4izF4B//dgYiI004m1uHX/3hirj/bAk+RlqmRCThR1mLMS48AdsrL+A/Cg+jo5PfK0GhsYEESCBkCVBgCtmtHR0Lo8A0OvaZqyQBEiABEiABEiABEiABEhh6Ala9EYuiMyXWyBRkh8dAWTkdlvhM26su43prLTw3fVgwLx7Pb8rEmKwItLX5sE2Epn2HKlHX4OnTEuBxry46wayJTJPnxSL3cC2+eKcErc18GPy4ufP6JDBYBEwWHSbMisLql9Nhtulw/kgdDm6vRGNNcItFFW9plcRb+u43x0Gv00mspRK8/UEBWlzBx6jvwbmOdLwhbvEc4k7044oL2FyRC5dYLvEgARIggdFIgALTaNz1EFozBaYQ2kwuhQRIgARIgARIgARIgARIYEQQCNeb8URsFlbEjUW2PVYslG5qsZn21V3XhKablk6seMKJtStTxO2UBeUVbfj861Kcu1iH2joPfH4V1Wnwj7gkszx8TsWEOTHIPVSLrz8oRXM946QM/k7wjiQwsAQc8SbMXZmAJyTmWlVJG058XYULRxvR5updRNbrw5AoceQ2PJmG9avStLhxH318A8q9Z19HjNGGdfET8HTSFDR527G14jz21xegzR9ckOrremwjARIggVAgQIEpFHZxFK+BAtMo3nwunQRIgARIgARIgARIgARIYMgIiFcpxJnCsSA6Xc5MjBc3UR5xD3VU4pAcrS/C1bZqRCfqsWRhIhbPcyJKXE/lFzRh94FyXMprQk2te0jmHp9swaqXU6Asmc4eqMGeLeV9us8akknypiRAAvdFQG8IQ3KWFYs3JGHy/Bhcv9CMQ9srcC23Oeh4k1GHyRMceHZDhqTRKCxuwZbt8r11sqbP2ElpFgdeSJ6GNfHjcb65Ah+Vn8W5lnJ4O4PHaAo6CTaQAAmQQAgRoMAUQps5GpdCgWk07jrXTAIkQAIkQAIkQAIkQAIkMFwI6MN0cJojMCsqFfNEbJomMZqafR6cbCiRoPfFuNZRBWe6GQslNtP82Qkwm3S4ki9C075yXLzaKK6oBt+CKE5EptUiMk2aG4OzB2uxb1s56iro3mq4fKY4DxK4HwK2cINYI0Zh7upEOGJNyDvbiCNfVKGyqD3ocKOIS8sWOfHcxgwkJtiw92C5uMUrxY1iF/x9WFZOlXhLL6fMwPzoDOyrzceH5eeQ11oT9D5sIAESIIHRRIAC02ja7RBcKwWmENxULokESIAESIAESIAESIAESGDEETCG6ZEoQpMSmBbFZGG2IxXVHpf2pv9+cZ1XeLMGSakWLJWHu08sdEp8Jj/OX67D13vLcVksmjq8g2sFEJOo3OWlYKK4y1OxWvZ9TJFpxH3oOOFRSyAqzoR5q+MxY0kc3PJdcmRnJa6eakJLY3DB2mYzSHy4dHHdmQaDuMj7WOLDfSVCd73EhxMvn70eRp0eixwZeFHEpSxbLD6rvoRtEnOp3N3Ua39WkgAJkMBoJECBaTTuegitmQJTCG0ml0ICJEACJEACJEACJEACJDDiCagHsrFGuwhNTqyMG4+pIjg1eFuRKy6lPqu6hCpDIzIy7VgnD3kXzIlHRVUbjp2qwc7dZSgpax3U9UcnmLD6pVRMFEum80dqsXdrBRqqack0qJvAm5HAAxAIE9+cygJx+XPJGD8zWqyVWuXntgyFV1vh6wguUqen2PHn3xqHqZNjUF3jxocSb+noyWq4WnuP0aSmFGEwa/GWnnJOhrLUfK/sjMRbui6xl4bGvecDYGJXEiABEhhUAhSYBhU3bzbQBCgwDTRRXo8ESIAESIAESIAESIAESIAEHp2AQR7IRhmtmC2u855yTsJYezxa/V5xm1eIP5WfQZO+FTOnxeKZ9RkYPzYKxSUusWYq0ywKmluCWyE8+sxuu4I8rI5JUJZMqeIuLxpn9gdiMjXXD9L9b5sKsyRAAv0QkJ/XsVMjsfb1dESJS7yrZxpxUOItVZe40dkZxARJLvEjtp4AADHJSURBVDl7Rix++OZEpKeG48TpavzXu9dQXNoKbx9WkzFGG15NnYn1CZNQ0t6IXxQewmVXFTo6/f1Mks0kQAIkMPoIUGAafXseUiumwBRS28nFkAAJkAAJkAAJkAAJkAAJhCCBKIMFT8Rm4+Xk6UixRmsr/LTyAn5fcgI3rT6sWZaCp9enIznJjguX6/HB1hs4fKJ60Egod3nrXk/TYjId/bIKuz8qQ1tLcMuGQZsYb0QCJNBDYMHaRGx6I0P72Tz8WQWOfVWN9ta+BZ8nVyTjz745HnExFmzdUYj/+O3loO7wum+kxKUfZC7CqvhxONdUhp8VHEBhe313M1MSIAESIIG7CFBgugsIiyOLAAWmkbVfnC0JkAAJkAAJkAAJkAAJkMDoJRBvsmNFXA6eTZoGh1g3dUrgk83l57Cz+grsiWFYszoJSxY4ERtjxv7Dlfjk82Lk32iG2+Pv96Hwo1JNkPhQT76ahnHTHVo8l71by9Hu6vvh9aPek+NJgAT6JhCmC4PVrsOaV9IwZ2UCGsS93Vfvl+D84YagA3UyRn2HPL0uDRvWpIl1E/Du5uvYtqOoz+8Rnfjfc5oi8Fdjlolrz2TN2vK/io+juD34vYJOgg0kQAIkMIoIUGAaRZsdikulwBSKu8o1kQAJkAAJkAAJkAAJkAAJhDKBFEsUlsZkY3WCWBaI6NTq92B75UV5oFuMuLF6rFrp1GKlmIx6fLmnFPsOVYhLqza0tT9eq6KkTJu4y0tBzjQHjn5RiX0fV9CSKZQ/iFzbsCZgsuiQlmPHMom3lJRhR/kNF3ZvLkfRFVfQeev1YcjJjsArz2Zj7qx4XL3WhM2fFOLk2Vp4fcFjNFn1RkyLSMb3MxcgXCwu99bkY0tlLio9LUHvxQYSIAESIIEAAQpM/CSMaAIUmEb09nHyJEACJEACJEACJEACJEACo5SAhFNBpi0Gi6OzsCAmE2nWKFR5JA5TdR6ueavhGN+JVcuTkZUegdY2H3bvL8cJeUhcUtaKjo7gD4ofFWdKtg2rXkpFzvQoEZmqcODTCrQ0MCbTo3LleBJ4EAL2CAMmz3dg8aZkGAw6nD1QjRO7atFY2xH0MqrfnJmxmriUlRGBQ8eqsOXTQtwodvUZo0m5xFsVNw6vp85Cg68d28pzsbsuHy0+T9B7sYEESIAESOAWAQpMt1gwNwIJUGAagZvGKZMACZAACZAACZAACZAACZBAFwGTTo9MawzmRadjjiMNOfZ4FLXV41DdDZSZahE+thNPLHQiNcWO6pp2HDhSiVPn6sSiqfWxMUzOsmK1uOTKmRqF418pkakSTXXBH2w/tonwwiQwygiIlzpEJ5gxe0UcZiyJQ5vLh2MSF+3swTr4Om4GpRHtMGH1smRsfDIdZpMOX+0tw2dflaKyuj3oGNWQKtaUTzmnYGPiJNxoq8O7padxtEFc6ck/HiRAAiRAAvdHgALT/XFir2FKgALTMN0YTosESIAESIAESIAESIAESIAEHoCAclGVanFgnohM86MzMDEiEVdd1TjbUoYCcwUc48KwbFES4mMtKK1oxe595Th+phb1DY/HyiAx3Yq1EpMpc2IETu2pwcHtFJkeYDvZlQQemIASl9TP26INiUjJDtdc4p34uhoFF13w9mG1mJ0Zjpefycbi+YmaheO2z4pw/FQNGpuDi8LKgjLHFoeXUmZggXzfnGsu18Sly66qB543B5AACZDAaCdAgWm0fwJG+PopMI3wDeT0SYAESIAESIAESIAESIAESOA2AjYRmuJN4VgUnYkn4rKRIdZNxe0NyG0vxZmbRciZZcOTK1I1K4Xrhc3Y8WWJZtHkdvtvu8rAZONTzFj7ejoyx4vItLdaRKYqussbGLS8CgncQ2Dm0lgsfToZVnGPd/ZAjQi7IiBXeeD3BbcmmjUtFt94IRvTJ8fg+Oka/P7dPJSUt/XpRtMQpsOMyBR8I2UmMmzROFhXgG2VF7TvmeB3ume6rCABEiABEugiQIGJH4URTYAC04jePk6eBEiABEiABEiABEiABEiABHolYNYZoGKjrIjLwar4sUgSV1ZV7hYcdl3H4c58rFrtFKEpBS6Jz3T6XC227SjCtYJm3BzIJ8Ri5pCQYsE6EZkyRGQ6/nWVZsnU2uzrdc6sJAESeHACBqMOq15MxuxVCVCe6XZ9WIJzB+vhafcH/Xk2m3VYvtiJl5/NRkqSDZ9+UYJ3PrqOxqbgVktqZkpcWhGbg++mzwfk53uLxFvaVXsNDd52usV78K3jCBIgARLQCFBg4gdhRBOgwDSit4+TJwESIAESIAESIAESIAESIIE+CejEb1aCWDStT5iIdQkTEGu2o6GjDe9VnEZeZCleeT4b82fHo7bOLXFXyqHcYw2027yEVAs2fidDE5n2fVKOw59VwdM28BZTfYJgIwmEIIG4ZPWzlY4xk6NQV+XGjreKcP2CCMWdwRcbGWEUl3hZeG5TBlokRtOfNl/Hzj1luB8rxleSZ+DPMxaiytOCXxcewYGGAnQOqCodfN5sIQESIIFQJUCBKVR3dpSsiwLTKNloLpMESIAESIAESIAESIAESGDUE8i0xWBd/HisjB+HKKNFs2jaVncOGNcmFk1JyMwKR0lpq+Y2b++hCrS1++D3D4xJU0q2DWtfS0NqTgT2bC3F8S9rNAuLUb8pBEACD0FAbwjDmKmRWPdaOqITzbh8sh5fvluKxtrgFkgqRlNighXffW0cli1OwtX8RvzhvXycPV8Pnz+4IqXiLdn0JhGW5uMp5xQUttXjl4WHcaKx5CFmziEkQAIkQAJ3E6DAdDcRlkcUAQpMI2q7OFkSIAESIAESIAESIAESIAESeGQCE8MTsTJuDBbGZCPCYEaRxGg67s9H7LSbmDI3CkkpVpy/VI+du8qQe6kBTc0dAyI0pY+3Y/XLqUgWIWvv1jKc+LpaRKbgD7YfeaG8AAmEGAElElnDDZg8z4Elm5JhsuhwYlc19n9SCV9H8J8lk0mHrIxw/PDNiRiTFYlTZ2vxzof54hazpU9CyiVemtWhucSb7UjDpeZK/Kb4GK64qvocx0YSIAESIIH7J0CB6f5ZsWc/BMxmM8aPH48w9RfDXUdpaSnq6up6ahMTE+F0OnvK3RmPxwPV1+VydVf1mVJg6hMPG0mABEiABEiABEiABEiABEggZAlMj0zGougszIlORbTRijxXDUojqxE34yZSJ1kQH2fFoWOV2H+4EleuNfUbn+V+QGVODMeql1KRlGnDPhGZTu6pRbuL7vLuhx37jG4CmgVSuhVzV8Zj4twYsVby4KSISxeONaDDHVxciok244mFiXhV3GEqb3bq5/mTL4pRVtHWJ1Cr3ojZkan4RupMJJgjcKCuAJsrzqHc3dznODaSAAmQAAk8GAEKTA/Gi737IJCcnIzf/OY30Ol09/T62c9+hs8++6yn/rXXXsO3vvWte8SoiooK/Pu//zvOnj3b07evDAWmvuiwjQRIgARIgARIgARIgARIgARCm4BFZ8DEiETMc6RjjlgoxJpsyHPXwJXQiPCpPiSMMcFo0OHIiSo5q8WtVpO4zns0QShzQjjWfCMNiWk2HPhULJl21aKtxRfaoLk6EnhEAmOnR2LRBifSxkbgirjEO7G7BmUFbX1aLmWk2bHpyXRsXJuGkpJWbP70Bo6dqkFTi7fP2UQaLFgRl4MXkqZp/bZWnMfOmito8/c9rs+LspEESIAESKBXAhSYesXCyochkJ2djf379+P48ePYu3fvHZfYvXs3Lly40FP3t3/7t/jRj36EDz/8EGVlZT31TU1N2LVrl2bF1FPZR4YCUx9w2EQCJEACJEACJEACJEACJEACo4SAcpWXbYvFgugMzJcz1mRH4c0atCU2wzjJjcQsE9rdfk1kOixi07X8FnQqc4iHPNLG2rHum+mITbTgyBeVIjLJvSgyPSRNDgtlAmaLHjOWxmDe6kSER5twanc1TspZXxU83pJBH4bJExx4blMm5s6Mx7kLdXhva4G4vmzQrJj64uUQa8ZnJdbSuoSJaPS148OyszhQX4COzkcTlvu6J9tIgARIYDQToMA0mnd/gNeuBCYlDv3617/Gv/7rv95xdfVB6+y8ZfKsBKZvf/vb+N73vofTp0/f0dfn88kfDPf3hz4FpjvQsUACJEACJEACJEACJEACJEACo5qAslxIMkdiZXyOuM/LRITJglpDI+oS6mCZ1gFnukWLybT7QAX2HaxARXX7Q/NKyrRi43cyEJ1gwbGdSmQSd3mttGR6aKAcGHIEYpMseOIpJybOjkarCLCHd1Tg8qlGtDYH/zmxWfVYutCJZzdmICbagoNHK/Hx50UoEgum/o4Eczi+nTpXE5pvtNXhg/KzONdcTnGpP3BsJwESIIFHIECB6RHgceidBLoFpl/84hf4yU9+cmfjXSUlMCkXeW+++eY9AtNdXfssUmDqEw8bSYAESIAESIAESIAESIAESGBUEgjXmzQrpqeck7E4JhsRZhNq0IiytAqkLNQjOk7Kte3icqtIHmBXwdX6EK6zJPxwUoYVm97IhCPejEM7ynFqTx08j+iCb1RuGBcdcgQyxtuxUuKVZYyPRMGFJnz5fglqyz19usSz2wx46ZksPL0uHS3yM7n500IcOFKpxU/r7z3kLFsM/nrMcqRaHThWX4QPRVwqam+A7+atl51DDjIXRAIkQALDgAAFpmGwCaEyBSUw7du3T3ORl5ubC7fbjXPnzmHPnj3weDx3LFMJTN///vfx8ccfw+v1ory8HEePHsWJEyfu6NdfgQJTf4TYTgIkQAIkQAIkQAIkQAIkQAKjl4AhTIc0iwMvJE8XoSkL4SYTijprUTqxBLNWRUCn1+Hi5Qa8t+U6zl1sEM8b9+dNo5tomBKZsmx4+ruZYslkRvmNNriavDh3sBb5uc3d3ZiSwKghoNOFYcLsKKx5JQ1xKVYc/6oKX71XCrcSXvv48TIYwvD3fzkNSxcloajUhV/9/jLOnK+H39/HoC6qyi3m/zN+LTrlBtvKz+OdstNo93f0dbtRsx9cKAmQAAk8bgIUmB434VF0/czMTE1gUq7w1KnX62G1WnHs2DFNTKqoqOih8Vd/9VdQp+qn3OEZDAat/zvvvIN/+Zd/QWNjY0/fvjIUmPqiwzYSIAESIAESIAESIAESIAESIAFFIEz+TYpIxLNJUzDHkY5wvRmF1gp4Ztdh3Bw7Wtq9OHisEtt2FKGsog0d3gezesiaFI5X/3osJs6JhnrAro7/9/tnRGRqCjzklmfk3a7guy0xtFTVq85S6K5XFYG6e8eorjxIYLgSsEcZMHdVAhZvcGqWfIc+q8TpvbV9WvUpYSkzPVwTl1KS7Th/sR7/9U4erub3L9CadHqsi5+A72UuhE5+xn9bfAxbKnKHKx7OiwRIgARCkgAFppDc1qFZVFRUFNavX69ZIimBKC0tDW+88QZefvllTXhS7vCUtZI65syZg8jISFy4cEGrmzRpEv7mb/4GU6dOxc9+9jP8/Oc/l7dU+g/ASIFpaPaadyUBEiABEiABEiABEiABEiCBkUhALxZNs6PS5KH0OEyJSobNbECNswbmGe2IztSjsqEVew9XYNf+ctTUecQbR///v1RxiE+x4PW/GYu5qxN6sNRVelByrQXejpvwejollVOup6Uqr5VVXVe+p66rT0+9lCXfKZYcysBKefxSYpVKO7vSm9KgBCqt7vZ8d3t3/5622wStnhkzQwIPTyA+2Yxlz6ZgysIYlOS5cFDiLV0/3wJfH2JtRLgRSxYk4odvTtBEXfVzt2V7Ear6iY2mxKQoowXPOKdAucH0+L34ZdFR7Ku7/vAL4EgSIAESIIGHIkCB6aGwcdD9EoiIiMD777+P+fPnY9GiRbh69WrQoePGjcOWLVtw8eJF/OVf/iWqqqqC9u1uoMDUTYIpCZAACZAACZAACZAACZAACZDA/RIwhumxQNxqLRG3eVMik2CP1MOd0QTLJA9MKZ3IL2nCfon9cuxUNSqr3fJiZN8WTZExRjz3gyyseD4FRpMOft9NzU1efZVHs2gSQwvNHZ9Op9Kwrrq70+Btal0+r19OEatEiFIP7bW8pH4lTKmyCFlafXdZ+vq6+vaM6WlT/btEKxGdOkVH82up5JVwpcQsOZVgpVyUKdeBqk8gva3c1a+7XolcPEYXAZNFh9QxNqx6KQ2JaVZcPduIg59WoqKwLSgI5VrSmWDFhtVpeGp9OuobPCIsFWLnrjJ4fX3/rCm3l5m2WDwv4tKc6HTkt9bi/bIzONdcHvR+bCABEiABEnh8BCgwPT62vHIXgR//+Meai7zXX38dX3zxRVAu0dHR+NWvfgW73Y6/+7u/04SmoJ27Gigw9UeI7SRAAiRAAiRAAiRAAiRAAiRAAsEIRBgsmBWVgvnyoHp6ZArC48WZXlYrdBPc0Dv9OH2+FoeOV+H0uTpU1bTfcmPXywVzpoVjxQupiE+2orywFZ//oQRtLT7ojWHiFj4MeoMOBsnru/I99Vq7tKl6rf1Wv0CdDkajDjoZrxdxqme8Eqq6yxJLSqtXdeo6Wn2g/61yYGz3GE08EiHMJ6dfCVTyYF8JY0q48kv+7lS1BfqpMdJXCVjd41SqylLfqfqJ8KT19ysRS0QqVXdbfU+frn6d6npav8Acbu/bC2pWDRMCjjgTpi+JEcu9RG3fzx2qxel9dWiovjMO9+3TVZ/l8TmReHpdOmZOi0NRiQsffnxDxNya27v1mlfC8Az5eX1JYqpl2mKwv/Y6Pq26hBK3xE+jutkrM1aSAAmQwOMmQIHpcRPm9fHTn/4U3/72t/H8889rrvKCIYmJicFbb72lNSt3eXl5ecG69tRTYOpBwQwJkAAJkAAJkAAJkAAJkAAJkMBDENCJOUWM0YZJ4YkiNGVgbmwabImAZZy4yMt2wW1zB4SmYyI05dahuSXg+r23W0UnmBAeZURdhQdtLl9vXR6qThOFusSkboFIiUjd+e5UE5ZuF5mU5ZQmTEEToG7vZzDqNcHLIA/8A+KXpN1i1x1CV7fgpdLuPkqsCtQb1PVVf7mvesavWTx1i0lKYBIMfkmVaKSsorrFo4DIpISlQF2grUtgkjpV1qy21LU08Ur16xa+usStO8QwVReoV/fotvJSaaAcqFPWVoEgVw+1FRzURSApw4oFaxMxdVEcKotasf+TchRelp+XNlEKgxwWsx5LFkostA0ZiI224MiJKnyxqxT5N1o067ggw7RqFUdtdfxYvJg8Aw5xj/dp5UV8XnUZdd7gllJ9XY9tJEACJEACA0OAAtPAcBz1VwlTf5CLQNTQIG+NKHv6riMnJwdvv/02kpOTMW/ePM3tncVikTezDGhtbZU/Pm/Zz69cuRK//vWvsXv3bi0eU3Nz/wEdKTB1k2ZKAiRAAiRAAiRAAiRAAiRAAiTwKAT08v9ro0VoyrHFY3lcNhY7M2BJvAnTxHa0ZTSjobMdp3JrsfdgBc5eqNeEkUe531CP1ekCAtWdbvtEkOqqF09kt9z53Z5XopXWBwiTVAlLqq9KDSYlWonFlbgJVJYqBknV2VPurhNBStWpvsqqy2juyveMk2upNhGvNPd73W77lKs+OW8qAUpSZfWk4k8pMUrrd0eqXP0FLKhub1Mi1e0uBb1KlOoIuB9UbgNVzCwtVVZZmkvBQFkJVT1tUq/ELK9yW+gJ3Huo93Ow7q8s5cZMicCi9U6kjg1H3tkmcYlXLi7x+rbwU9Z4Lz+bhY1r0jQhcvP2G9h/uAoNjR3a3vU1f/Wz+UryLGxyTtTGvicu8VS8pWafu69hbCMBEiABEhgEAhSYBgHyaLiFXq/HP/3TP2lC0vHjx9HY2IikpCRs2LABM2fOxD//8z/j5z//ufzR0Ilp06bhe9/7HlwuFy5dugS3243x48fjxRdf1FD9/d//Pb788ss7xKdgDCkwBSPDehIgARIgARIgARIgARIgARIggYchoB5mK9d5YyTOy0bnJMx3piE8SV6OnCbWGaktaOhwY9/hCnz+VSkKxb0Xj1sElNCkXkBVopVKu8uaWCVxd5QgJdW3pSJW9fTrvd5oNogYFQaTiFBGsYAxKRFKUiVKqTpNwFL57nqVannVL1Cv+nT31Ys7QWXCpN6NVe+8KoFKvfwayAfiTGllrb27XyAeVe/1IkAp0coTEKC8IlYF8oFyh1uJUJ3oUGLVbWl3nw636qfa1LibWj8lZql5DbfDbNVh1vI4LBRxSS+bfHpfNU7vrUVDbYdCGvRwRJnwwzcnYP7seNTWe/D2B/k4Li7x2oVNf0e00Yo/T1uAJ+LHoLy9EW+VnMSZplK4lWkcDxIgARIggSEnQIFpyLcgNCagBKZ/+Id/0IQjo9Go/XGmkz82amtr8ZOf/ATvvfeevNkTcCMwYcIE/OM//iOWLVum/cGpCKjxSmxSItWhQ4fkLaT+/8hQ4ygwKQo8SIAESIAESIAESIAESIAESIAEBpqAcsll1RsxOSIRzydPw8yYFETliLu1uQ1wJ7bB1d6BP20pwM7dZWhskgfsPB4PASVIqStraXdBilrlrfT29u7+2rC7+ulEYFLCk1lOo0UPs1WJViJgWQxyihAldUqMupWXcne9StU4bbyIXF1l5S5QCSyaxqKl3QWp0yq70q7CHXVdA2+Nlb4iLimRyaNEKxGeNBFKUo+IUSqvRCvtVIKVlhdhSusn9VpdoF7118a3SyrXe5jDHmnEk6+lIjreLBZtQOqYcNRXebD7o1LknWnS7tfXdSdPcOD/+h/TEB9nxVlxMfm7d6+JS7xm+O9DQMuyxuB/jlmGCfIzeKaxBP/7xkGUe5oZb6kv4GwjARIggUEmQIFpkIGH8u3U20l2ux2pqama8KPEpbKysh5h6fa1K/EpLi4OTqdT/pAzobCwUBOjbu9zP3kKTPdDiX1IgARIgARIgARIgARIgARIgAQehYBNhKa5jjQ8nzQN4xxxSJgjcYXmNMBlaUdeURPeE6Hp5NkazdWXstJRFi1KHOAxOggol4GaWNUlON0SpLrEKhGxlKCl1SsrrLsEq4CoFajXRCtxNahcDgaUtW4RLWD9pRHtbupS0rqSHiFO9VHPaAKplmj/USKURwQprxKpuoSr7rL6vHa0dwlUPWLVTWx6Ix1jpkZpgp6ytMo9WIfN/1mAoqt9W+8pl3jLlyTh+9+ZIM+IjNixs0TEpTy0tvVveaSs2qZHJuOHmYuRYYvBF9WX8dPr+24thDkSIAESIIFhQ4AC07DZCk7kYQhQYHoYahxDAiRAAiRAAiRAAiRAAiRAAiTwMASixHXegphMbEqYhMzkSKTMD0PnxGbU+ltRWudCfLwFyU4bDhypxI//7Zxm2aQMNVQMIB4k8CAEAjGtbllMKaspowhP3RZU3e7/tFTaut0Aav16+oplloqLpZV1WuwspTvd7apQCWS36iUvBllK5LHY9UgfH665HFRzb2/1Ycfvi7D1l4VBl6KuFSVWTxtWp+KZDRmaBdeftlzHth3FQcfc3mDRGbEwOgPfSpsDh7jH21pxHh+Un4WHLvFux8Q8CZAACQwbAhSYhs1WcCIPQ4AC08NQ4xgSIAESIAESIAESIAESIAESIIFHIRBrsmGRIxMrnGMxbmwE0ubr4FjshS1RxfcJHG//8Tp27i+GR6w+PGIRoqya/P6bt04RnVTZ57+rXvXpavN3tfm6ximhqtu9Wvd9mJLA/RLoFq0MRiVWhWmilBbDSvJGqdPyWipliVsV7hD3eK+micgUoVlHVZe1471/u4ZjX9X0ekuDuAocmx2hCUuzp8ehuNSFzZ8W4tjJmvtyiRdjtGFlXA6eTZqKdr8PH1eex+7aa2jzB0Iu9HpTVpIACZAACQwpAQpMQ4qfN39UAhSYHpUgx5MACZAACZAACZAACZAACZAACTwMAeWAzGmOxDxxnbd+ajZW/EUEYmYF3JKp67VeMKKwqR5+nbgkuykikzww7+gUoUlEIyUYdXjFHZnExekQAUrLS6ri5HSXlTuy2/t4OqR/Vx+viFVKsPL5RKCSNFDuznent9pVP9XH29VfjaFQ9TC7PvrGzFwWg6VPJ2vi05WT9di3rQqupnsFHyVeLZgTjxefzkJ6arhY8VVgx5elKChq0YTU/silWR14MWk6FsdmId9Vi22VF3C2qRRuWi71h47tJEACJDCkBCgwDSl+3vxRCVBgelSCHE8CJEACJEACJEACJEACJEACJPAoBAziT2x2fAr+/juzsPgbkdBFiUVSpREtbztQ3tYInwhMSmTq1ElMJn0nwvSSiMVIe1gHXGFutMKDNsm3h3nh0Ul8GsNNzZrEJJYkJrEiUanRKK7RlGWJxLVRsXWU+zLlxkyzgOoWjkScCohIAWHJKwJWt7CkiVC3tXeIWKWJWapOE7KUmBUQt3rqVfnudiWKdQthWl5ZVNH936N8fkbC2JhEs2bRVFfh1j5Td8/ZInGlNqxJxaa16bBJvKntX5Zg564y1NS57+7aa3lqRBJeS52F6VEp2Fubr7nFK2irg1+EWR4kQAIkQALDmwAFpuG9P5xdPwQoMPUDiM0kQAIkQAIkQAIkQAIkQAIkQAKPnYBFb8R3Js7CD5bOQnScCY2lXvyvL0+g46ZfiyOjYslEGS09+WiTFTd1N+GGiEo3xbJJ0o4wEYTkH5SXvbBONN10o0FiO2lnZ7ukbWjyt2tClV4vYpNYjFgsBpglvo7Z1JXKg36LitMjZ6BepXKKUKVEAFVvkf4mEayUOzO9CFZ6iZnTKSJRQKxSacBlX7dbPlXuzmvu/JQVVE8fscxy+zU3gEq0Uq4ANZeAWl7abksD7d11frhFqNL6ewKWWur+PEYegZRkG157IRvzZyegVgSlrTuKcORENZpb7rVy6m11S2Oy8aqISzn2eHwksZY+FsulSk9Lb11ZRwIkQAIkMAwJUGAahpvCKd0/AQpM98+KPUmABEiABEiABEiABEiABEiABB4fAYfBirkx6Ui1O3CqrgR5rmq5mcSy0YkFkpgtKUsno06v5S06I2LNNqhYTrFGO2JUarJ3lW0iRlnFeuMmPOIeTLnV65DUI6lXTnFuhzZfB6o8zaj0tqCmowXVXhdq5GwWAcofdhNySznF0qnnFKup2/LKAqq7Tbk2s4pQZbHotdQqFihKjOqu0+qVcNXdR8urPmqMEreUcKWsq3Sa2z0VJ0rFkFJp4EQglfV0iojUXR/oE2hT+Q4Rp9rldItg5dZSX1faXZZ2rU3qVSpnu7tTxqiyT8srsUuJXzwGh8CMKTF48/WxGD/WgeOnavDOh/koLHZpImN/MzDrDNiYMBHPJU+DTWfCO2Un8VVNHlp8nv6Gsp0ESIAESGAYEaDANIw2g1N5cAIUmB6cGUeQAAmQAAmQAAmQAAmQAAmQAAk8HgJ6EZGUeOMTIag/exxN5BEB6vZUHN9p5QiDGfHGcMRbwpEgwlO8OULS7nw47AaLLECEHGV5JGmnuBJTVkjqVPetFQuQUnejnE0oETd9pZ4msQppRrPXrY25e/UyZc31npZKo3LDJ1ORtKteq7tV1tp66pTbPhGwRKiyWQ23Tttteam3aqe+q10ELCnblajV3SYClhK3lFClDuV6T/4XOGVV3XmV0fJ399HqRagSy6j2dh/a5FSClMq3tisxSsoq1dpU6pU+fq2fSrvHdOeVu0EewQksX5yIN14dh5RkO7aJ1dLv3s3TeKu96e9QFn2vJs/EusSJ8ll14VeFR3CquRQ+usTrDx3bSYAESGDYEaDANOy2hBN6EAIUmB6EFvuSAAmQAAmQAAmQAAmQAAmQAAmEAgH1gN4polOiiE6JFiU+Sd4sAlRXXrnsC2hESrJSWlFABFJph9+riU3FIkAp8amkXU7JV7pb0Orv0PAoKylN4JGS5LoEnftQDgYArlEEJluXOGVXqU0Pu9Wo1QXKSrgKCFV2m1EsrSSv9btVr4SubqFKAdAoaGlggoqNdkjmtmxXZUBU65AYU+4uMUoTq7rEqFZV19Z1imjV1iYilSqLYKWErLY2Ea60sqoT6zOJY6WJYt1XV6KZynenXZluut0CTSAN1HbXdV9iqFLFKiLCKLGW0vDiU1maoPnHD/Lx6c4SzcVif/NS453mSPxZ+nwsj8/B2aYy/O+CAyhubwgw6e8CbCcBEiABEhh2BCgwDbst4YQehAAFpgehxb4kQAIkQAIkQAIkQAIkQAIkQAKhTkC54lMxnuJEfIpTbvfEBV98lws+VY6WslkvAoz0M4gvPS3tcuGnyq2a+70WlIv1U7mITuUiPtV0uFDf0Q6P3ycWUJ3wSmypwCl5sdZSlieqfjgdRqMuYB2lBCg5LSI62bqspJQopVlOqVQ7xXqqK69cAaq8RUQs5Saw25WgsjQTZIGy5HvcEN5T39VP6yPxrcQtoIpFpdz+KSspzQ2gspjS3Pqp9PZ6ZXXVZWmluQBU5UAfr1xDs1ITd4JKcOpxPygFhb67rVPTs5Qrwlt1t9qV1tUtZd3fbqn4XbExZhHsAq4Un9uYgaWLknA1vxHvbb2B0+fq4FUiWj+HkvJy7LH4s4wFmBaZhIN1N/BWyQmUyeeMBwmQAAmQwMglQIFp5O4dZy4EKDDxY0ACJEACJEACJEACJEACJEACJEAC909Axb6JFguoGKMNyhLKIWJUtMSPipayqo+UU1lAmSVelOqrnSJImZQIJaqKy9uBahGcqlXsJ3HFV+dpQ11HK5oldo4SmpQI1d7ZgXZJ3Z1eLY6Uih/lE1FqJB4qvpSKSWVWsae6TyVA3V4nsahUTKpbfQKxqbSytJkkTpVe2Ck3grdOKUtcLFU2yKnTi9h3R7tqu9VH9CpNyPGo+FRyejydgRhVKq8ELBGibrV19wmkWkwrbYxYVCmhSkQqvwhf3aevq6zEMK1OK4toKLrR8kVOfPvVsYhxmOFq9WrtB49W4f1tBSgobNHErv721SSfpcnhTnwvc4Hm6nFPbT42V+SKJV1Lf0PZTgIkQAIkMMwJUGAa5hvE6fVNgAJT33zYSgIkQAIkQAIkQAIkQAIkQAIkQAIPQsAq4lKUxHiKNMqp70pVWeJCqfpwqbfrTbBJP5ukqn93Xln5tIjQpASnho421Hvb0eST0+tBu1hGKasn1e6Ss8Xv0VzytYlbvnZx2xfq8XdMYlGlhCZlEaREK7PkVXqrTrWFaeXuukBf6SdjjdJXuQ9Urv/UqfJGsSoyqLY76qWuqz3QdltZ+iuLLCUiKdd9SmxSMauUQKVSLS+uAQN5ie4lxk4vPZOFJKdN+RnURKyPdxTixz/NRXll2319rJSIuSp2LF5KmQG1159VXcIuEZgavPc3/r5uwk4kQAIkQAJDRoAC05Ch540HggAFpoGgyGuQAAmQAAmQAAmQAAmQAAmQAAmQQP8ElIBk0RkRYTCJyGTWhCYlNmmn1EWICKUsoJQYFanEKElVnUrDpb+KwdPsd6PZ6xbRyQ2XiEwuEZ6UWz5Pp08EJw8aRZRSZ5NP+skZEKQ6JEbPg7l26381I6+HsmLSxCMlVikRSYlL2hkWEJy6y11tmjBlVG36nn49ApW6hpxK6FLXMBkDglcgr4QvnVgtWbBiaZIW40rRamz04Kf/eQE//+2V+4KXanHguaSpWJcwAfmttfhT6WmcaynXBMX7ugA7kQAJkAAJDHsCFJiG/RZxgn0RoMDUFx22kQAJkAAJkAAJkAAJkAAJkAAJkMDgEdBLkCKLuNVTLvasIkQF8lLW8kYRn8wSH8om7vmsiJJTWbdEiUWUQ1z0KRFKxRFSVi6tcraJVZOybFKncrvXIQJUnbcVtWIdVSfWUcoCpqFLjFL9edw/gTBRqjR3fGLRZFRu+ZQFlHLVJ6nmsk9ZRol7PhWL6s+/PR6vvjhGgjcBh49V4f/+8SlcvNLY783G2ePxSspMLIrJxImGYrxdekpEphrKhP2SYwcSIAESGFkEKDCNrP3ibO8iQIHpLiAskgAJkAAJkAAJkAAJkAAJkAAJkMAwJaAEKBWPxyjxnIySqrhOKjVKvVlEKIeITfEmO+LM4YgVISpW8ioulEojxCJKi/EkQpMSmzokrlP36ZV8q7jdUzF9qjzNWoyoWhGhlKs+JUgp6ygeD0cgMd6CmdNiEW434nRuLYpLWuETF3vBDmWlNi0yGd9Jm4scEZl21ebhg7KzqJB94UECJEACJBB6BCgwhd6ejqoVUWAaVdvNxZIACZAACZAACZAACZAACZAACYQwAeWCTw8dtFTykuvJm8UyKt4UjkRLBJzmCCTIqcoJIkQpQcouFlB+sYDy3+zUTmUNpfIqVcJUjceFUncjyt1NIkIpIcqFajmrOlq0PiGM9ZGXppe4TWFy+nydfV5LCYdLYrLw3fR5MOsN2FpxHp9XX9FcHvY5kI0kQAIkQAIjlgAFphG7dZy4IkCBiZ8DEiABEiABEiABEiABEiABEiABEhjdBJTVjFViQSVbIpFkjtRSp+QTlSClhCizXdz2mbQYUJD/qlhG6pCclnrFDV9xeyNKRHwqk7PCI6e7BZXuZs0CSnUK2OwEIkGJZqXVBLfjUe2j6zCJAPisczL+ImOhiHjNeKvkBA7U39CszUYXCa6WBEiABEYXAQpMo2u/Q261FJhCbku5IBIgARIgARIgARIgARIgARIgARIYUAI6EZJU/Cdl9ZSgrJ7E4kmlyvIpTtzvxRhsEnNID4O46us+9bpAXrn1a/F6NMunSuV+r8vySUs7XFrMKF9np1hJ+TVLKWUtpSynutPRIEJFSQytb6XNwTPOKbjqqsbvio/hVFPpgO4hL0YCJEACJDA8CVBgGp77wlndJwEKTPcJit1IgARIgARIgARIgARIgARIgARIgAR6JaBc8mmxnox2Ld5TIP6TDdEiPMUYbbCLOKVc9GmnuH6zSF7FklJWO6pOxXqqFrd7Kt5TncR+qvcG4j/Vedq0OFGeTi/cXXGjVDwoz81AHCkVO2okC1CKW5rFIS7x5mNedDpymyvwVvFxXHJV9cqZlSRAAiRAAqFHgAJT6O3pqFoRBaZRtd1cLAmQAAmQAAmQAAmQAAmQAAmQAAkMOgEVWyjKaBURyqKlDrHYiVJ5gwWRkrcZjLCJCz6b3iixoFQayFulrOJINXhb5WyXWERuNGlpIO/yedAu7vla/R2aJVSblnrRJoJUu+SHswCl1jY9Ihmvps5CqtWBQ3UF+KjinOZqcNA3iDckARIgARIYMgIUmIYMPW88EAQoMA0ERV6DBEiABEiABEiABEiABEiABEiABEjgYQkoi6ZwgxkR6tSbe/J2TWgyIUIsoCJEjFLtkV2pyqsxfgno1OxzQ4lN6my5LXWL+NSs1bl70hb/rT7KDd9QHEpsWxmXIzGXpmq3/6TyInbX5mki2lDMh/ckARIgARIYOgIUmIaOPe88AAQoMA0ARF6CBEiABEiABEiABEiABEiABEiABEjgsRGwiLWPTWeEsvpRVk5WnUnLW0WYsooI5TBZ4dAspMQtn5aqsrKOsog7Pb9m5aQsnZSFk0oD+UC5UVzyNYhA1Shu+ZSFVKMvkCqhSsWCGuhDxaxSsZbWJU5EjcSjerfkFE40lUC5/uNBAiRAAiQw+ghQYBp9ex5SK6bAFFLbycWQAAmQAAmQAAmQAAmQAAmQAAmQwKgioPv/27ub1aaCMAzA3zE2jdJGatFqi4K6dKEIuhHxIsQL8Ba8CtGVN+DGjXtduHGjrgR15aYFf8DfUusiLcWgiTOnraBCNQ1JY/IEhjMnzZkz88yuLzMTRYyl85zyWU7luU7F5vlO6YynVJ8Yq0YOdTbL9EY9X/N2fN9arTKEam6c8bR5zdvr5dApnwu1nMpSCqLyWVGfN77L2/K10uqpTj65D1eOnIsL08djfmUxbr99Gi8aH2OnVlJ10ne/JUCAAIHeCAiYeuOq1T4JCJj6BO01BAgQIECAAAECBAgQIECAQN8FdhVFVNI5TpV8LfJ1sxTl+U7T1b1xqDYZM9XJODg+EYfGU328XtZrld3xPdrlSqa8FV9e0bRe2pG338vB06dmIxbTSqTFr434VF5TvblSrpLKgz0/dSyuHr8Y+1O7jbQ6KkdST768iTvvnsfrteXUXmchVd8BvZAAAQIEeiogYOopr8Z7LSBg6rWw9gkQIECAAAECBAgQIECAAIH/UaCaVkXNpNBptrYvZlPoNLunHnP5mu5navW0Ymr3z2EVP2vrldW0xV5e7XRm6kTa1q9Wfvm11Yy775/FtYUHaSu+td+ecEuAAAECoyggYBrFWR+iMQuYhmgyDYUAAQIECBAgQIAAAQIECBDom0DeYu9AdaIMoWaq9fVrWql0MJV8FlQ+F+rE5FwKosbKPq2mUOnW60dx89XDvvXRiwgQIEBgsAUETIM9P3r3FwEB01+A/JkAAQIECBAgQIAAAQIECBAg0KFAXtF0OK10unHyUpydOpruKjHf+BDXF+7Hw+WXHbbm5wQIECAwrAICpmGd2REZl4BpRCbaMAkQIECAAAECBAgQIECAAIG+C5yuz8Xlw6eiUhmPx0vzcW/xRd/74IUECBAgMLgCAqbBnRs9+wcBAdM/IPkJAQIECBAgQIAAAQIECBAgQKALgV1FEa12u4sWPEqAAAECwyggYBrGWR2hMQmYRmiyDZUAAQIECBAgQIAAAQIECBAgQIAAAQIEBkZAwDQwU6Ej2xEQMG1HzTMECBAgQIAAAQIECBAgQIAAAQIECBAgQKA7AQFTd36e3mEBAdMOT4DXEyBAgAABAgQIECBAgAABAgQIECBAgMBICgiYRnLaDXq7AkXacziXdtp3OBcfAgQIECBAgAABAgQIECBAgAABAgQIECBA4FeBIt36D/qvJu4IECBAgAABAgQIECBAgAABAgQIECBAgAABAgS2EBAwbYHjTwQIECBAgAABAgQIECBAgAABAgQIECBAgAABAn8KCJj+NPENAQIECBAgQIAAAQIECBAgQIAAAQIECBAgQIDAFgI/ALuQ1a1mOA0iAAAAAElFTkSuQmCC;" vertex="1" parent="1">
          <mxGeometry x="50" y="255" width="961.24" height="205" as="geometry" />
        </mxCell>
        <mxCell id="TdrcF2T7CQJfTdAJFarz-32" value="Buy" style="html=1;shadow=0;dashed=0;shape=mxgraph.bootstrap.rrect;align=center;rSize=5;strokeColor=none;fillColor=#3D8BCD;fontColor=#ffffff;fontSize=16;whiteSpace=wrap;rounded=0;" vertex="1" parent="1">
          <mxGeometry x="1030" y="383" width="120" height="24" as="geometry" />
        </mxCell>
        <mxCell id="TdrcF2T7CQJfTdAJFarz-34" value="Sell" style="html=1;shadow=0;dashed=0;shape=mxgraph.bootstrap.rrect;align=center;rSize=5;strokeColor=none;fillColor=#3D8BCD;fontColor=#ffffff;fontSize=16;whiteSpace=wrap;rounded=0;" vertex="1" parent="1">
          <mxGeometry x="1030" y="410" width="120" height="24" as="geometry" />
        </mxCell>
        <mxCell id="3d76a8aef4d5c911-53" value="Remove" style="html=1;shadow=0;dashed=0;shape=mxgraph.bootstrap.rrect;align=center;rSize=5;strokeColor=none;fillColor=#DB524C;fontColor=#ffffff;fontSize=16;whiteSpace=wrap;rounded=0;" parent="1" vertex="1">
          <mxGeometry x="1030" y="436" width="120" height="24" as="geometry" />
        </mxCell>
        <mxCell id="TdrcF2T7CQJfTdAJFarz-35" value="&lt;div style=&quot;&quot;&gt;&lt;span style=&quot;background-color: initial; font-size: 10px;&quot;&gt;Click banner&amp;nbsp;&lt;/span&gt;&lt;span style=&quot;background-color: initial; font-size: 10px;&quot;&gt;to expand&lt;/span&gt;&lt;/div&gt;" style="strokeWidth=1;shadow=0;dashed=0;align=center;html=1;shape=mxgraph.mockup.text.stickyNote2;fontColor=#666666;mainText=;fontSize=17;whiteSpace=wrap;fillColor=#ffffcc;strokeColor=#F62E00;" vertex="1" parent="1">
          <mxGeometry x="-80" y="199" width="130" height="40" as="geometry" />
        </mxCell>
        <mxCell id="TdrcF2T7CQJfTdAJFarz-36" value="&lt;div style=&quot;text-align: left;&quot;&gt;&lt;font style=&quot;background-color: rgb(0, 127, 255);&quot; color=&quot;#ffffff&quot;&gt;Units&lt;/font&gt;&lt;/div&gt;&lt;div style=&quot;text-align: left;&quot;&gt;&lt;font style=&quot;background-color: rgb(0, 127, 255);&quot; color=&quot;#ffffff&quot;&gt;Average Cost&lt;/font&gt;&lt;/div&gt;&lt;div style=&quot;text-align: left;&quot;&gt;&lt;font style=&quot;background-color: rgb(0, 127, 255);&quot; color=&quot;#ffffff&quot;&gt;Total Cost&lt;/font&gt;&lt;/div&gt;&lt;div style=&quot;text-align: left;&quot;&gt;&lt;font style=&quot;background-color: rgb(0, 127, 255);&quot; color=&quot;#ffffff&quot;&gt;Profit&lt;/font&gt;&lt;/div&gt;" style="rounded=0;whiteSpace=wrap;html=1;fillColor=#007FFF;strokeColor=#007FFF;" vertex="1" parent="1">
          <mxGeometry x="1027" y="255" width="78.11" height="60" as="geometry" />
        </mxCell>
        <mxCell id="TdrcF2T7CQJfTdAJFarz-37" value="&lt;div style=&quot;text-align: left;&quot;&gt;&lt;font style=&quot;background-color: rgb(0, 127, 255);&quot; color=&quot;#ffffff&quot;&gt;567&lt;/font&gt;&lt;/div&gt;&lt;div style=&quot;text-align: left;&quot;&gt;&lt;span style=&quot;background-color: rgb(0, 127, 255); color: rgb(255, 255, 255);&quot;&gt;1.2&lt;/span&gt;&lt;/div&gt;&lt;div style=&quot;text-align: left;&quot;&gt;&lt;font color=&quot;#ffffff&quot;&gt;&lt;span style=&quot;background-color: rgb(0, 127, 255);&quot;&gt;680.4&lt;/span&gt;&lt;/font&gt;&lt;/div&gt;&lt;div style=&quot;text-align: left;&quot;&gt;&lt;font color=&quot;#00ff00&quot; style=&quot;background-color: rgb(0, 127, 255);&quot;&gt;53.4 (20%)&lt;/font&gt;&lt;/div&gt;" style="rounded=0;whiteSpace=wrap;html=1;fillColor=#007FFF;strokeColor=#007FFF;" vertex="1" parent="1">
          <mxGeometry x="1111.95" y="255" width="78.11" height="60" as="geometry" />
        </mxCell>
        <mxCell id="TdrcF2T7CQJfTdAJFarz-38" value="&lt;div style=&quot;&quot;&gt;&lt;span style=&quot;font-size: 10px;&quot;&gt;Data source&lt;/span&gt;&lt;br&gt;&lt;span style=&quot;font-size: 10px;&quot;&gt;Align Chart&lt;/span&gt;&lt;br&gt;&lt;span style=&quot;font-size: 10px;&quot;&gt;Low/High/Close&lt;/span&gt;&lt;br&gt;&lt;span style=&quot;font-size: 10px;&quot;&gt;Colour Theme&lt;/span&gt;&lt;br&gt;&lt;/div&gt;" style="strokeWidth=1;shadow=0;dashed=0;align=center;html=1;shape=mxgraph.mockup.text.stickyNote2;fontColor=#666666;mainText=;fontSize=17;whiteSpace=wrap;fillColor=#ffffcc;strokeColor=#F62E00;rotation=15;" vertex="1" parent="1">
          <mxGeometry x="963.56" y="-19.82" width="110" height="90.69" as="geometry" />
        </mxCell>
        <mxCell id="TdrcF2T7CQJfTdAJFarz-40" value="Sort" style="html=1;shadow=0;dashed=0;fillColor=none;strokeColor=none;shape=mxgraph.bootstrap.rect;fontColor=#999999;whiteSpace=wrap;" vertex="1" parent="1">
          <mxGeometry x="361" y="70" width="75" height="40" as="geometry" />
        </mxCell>
        <mxCell id="TdrcF2T7CQJfTdAJFarz-41" value="&lt;font style=&quot;font-size: 9px;&quot;&gt;Highest/lowest profit&lt;br&gt;Daily performance&lt;/font&gt;" style="strokeWidth=1;shadow=0;dashed=0;align=center;html=1;shape=mxgraph.mockup.text.stickyNote2;fontColor=#666666;mainText=;fontSize=17;whiteSpace=wrap;fillColor=#ffffcc;strokeColor=#F62E00;rotation=15;" vertex="1" parent="1">
          <mxGeometry x="330" y="6.120000000000001" width="80" height="63.88" as="geometry" />
        </mxCell>
      </root>
    </mxGraphModel>
  </diagram>
</mxfile>
